<?xml version="1.0" encoding="UTF-8" standalone="no"?>
<!-- Created with Inkscape (http://www.inkscape.org/) -->

<svg
   xmlns:dc="http://purl.org/dc/elements/1.1/"
   xmlns:cc="http://creativecommons.org/ns#"
   xmlns:rdf="http://www.w3.org/1999/02/22-rdf-syntax-ns#"
   xmlns:svg="http://www.w3.org/2000/svg"
   xmlns="http://www.w3.org/2000/svg"
   xmlns:sodipodi="http://sodipodi.sourceforge.net/DTD/sodipodi-0.dtd"
   xmlns:inkscape="http://www.inkscape.org/namespaces/inkscape"
   version="1.1"
   id="svg5622"
   width="512"
   height="512"
   viewBox="0 0 512 512"
   sodipodi:docname="faudlogofinal.svg"
   inkscape:version="0.92.5 (2060ec1f9f, 2020-04-08)">
  <metadata
     id="metadata5628">
    <rdf:RDF>
      <cc:Work
         rdf:about="">
        <dc:format>image/svg+xml</dc:format>
        <dc:type
           rdf:resource="http://purl.org/dc/dcmitype/StillImage" />
        <dc:title />
      </cc:Work>
    </rdf:RDF>
  </metadata>
  <defs
     id="defs5626" />
  <sodipodi:namedview
     pagecolor="#ffffff"
     bordercolor="#666666"
     borderopacity="1"
     objecttolerance="10"
     gridtolerance="10"
     guidetolerance="10"
     inkscape:pageopacity="0"
     inkscape:pageshadow="2"
     inkscape:window-width="1822"
     inkscape:window-height="1051"
     id="namedview5624"
     showgrid="false"
     inkscape:zoom="1.6230469"
     inkscape:cx="312.21694"
     inkscape:cy="239.98451"
     inkscape:window-x="89"
     inkscape:window-y="-9"
     inkscape:window-maximized="1"
     inkscape:current-layer="svg5622" />
  <path
     style="fill:none;stroke:#000000;stroke-width:1.48359561px;stroke-linecap:butt;stroke-linejoin:miter;stroke-opacity:1"
     d="m 25.659598,138.57746 c 0,0 -30.4242682,61.87133 45.636292,71.26153 0,0 33.77269,4.74294 99.69254,-35.05673 0,0 72.38273,-32.39616 98.44051,-5.24286 0,0 25.66653,24.41451 -22.06695,40.69084 0,0 -13.69403,3.59957 -26.60555,3.36482 -12.9115,-0.23474 -32.86567,-0.39125 -32.86567,-0.39125 0,0 -83.16477,-0.20006 -128.015169,22.54162 0,0 -58.96104326,25.0652 -59.10992216,85.99081 0,0 -4.43483084,93.27845 106.68244116,104.54667 74.24353,7.52893 131.51179,-6.23328 196.93013,-44.73305 63.48229,67.10463 180.43426,30.4947 207.10746,-89.67634 l -56.22662,-12.08817 c 5.24786,28.93461 -42.384,61.11705 -38.95388,-7.5252 3.90331,-78.11186 -1.99915,-97.22428 -1.99915,-97.22428 C 387.75766,84.894106 297.47266,85.851196 229.99013,84.010406 115.08876,86.197246 44.17183,103.42638 25.659598,138.57746 Z"
     id="path5632"
     inkscape:connector-curvature="0"
     sodipodi:nodetypes="cccccscccscccsccc" />
  <path
     style="fill:none;stroke:#000000;stroke-width:1.48359561px;stroke-linecap:butt;stroke-linejoin:miter;stroke-opacity:1"
     d="m 286.6254,258.64843 c -1.17124,34.86616 -55.62871,83.99128 -94.91977,81.56511"
     id="path5638"
     inkscape:connector-curvature="0"
     sodipodi:nodetypes="cc" />
  <path
     style="fill:none;stroke:#000000;stroke-width:1.48359561px;stroke-linecap:butt;stroke-linejoin:miter;stroke-opacity:1"
     d="m 286.6254,258.64843 c 0,0 -23.16165,10.18378 -55.80246,13.57715 -32.64081,3.39333 -46.21422,7.10987 -57.68698,17.28992 -11.47275,10.18006 -5.87346,31.58559 -4.58075,34.33258 1.29271,2.74701 6.49388,13.57783 23.15042,16.36546"
     id="path5813"
     inkscape:connector-curvature="0"
     sodipodi:nodetypes="csssc" />
</svg>
