<?xml version="1.0" encoding="UTF-8" standalone="no"?>
<!DOCTYPE svg PUBLIC "-//W3C//DTD SVG 1.1//EN" "http://www.w3.org/Graphics/SVG/1.1/DTD/svg11.dtd">
<svg xmlns="http://www.w3.org/2000/svg" xmlns:xlink="http://www.w3.org/1999/xlink" version="1.1" width="841.89pt" height="595.276pt" viewBox="0 0 841.89 595.276">
<g enable-background="new">
<g id="Layer-1" data-name="PlacedGraphic">
</g>
<clipPath id="cp0">
<path transform="matrix(6.7275087,0,0,-6.7275087,-1292.2988,3319.707)" d="M 144.066 318.898 L 336.615 318.898 L 336.615 507.756 L 144.066 507.756 Z "/>
</clipPath>
<g clip-path="url(#cp0)">
<path transform="matrix(6.7275087,0,0,-6.7275087,397.87867,518.37649)" d="M 0 0 C -18.646 0 -33.764 15.115 -33.764 33.764 C -33.764 52.41 -18.646 67.527 0 67.527 C 18.651 67.527 33.763 52.41 33.763 33.764 C 33.763 15.115 18.651 0 0 0 M 0 76.356 C -23.521 76.356 -42.593 57.286 -42.593 33.764 C -42.593 10.241 -23.521 -8.829 0 -8.829 C 23.525 -8.829 42.593 10.241 42.593 33.764 C 42.593 57.286 23.525 76.356 0 76.356 " fill-rule="evenodd"/>
</g>
<clipPath id="cp1">
<path transform="matrix(6.7275087,0,0,-6.7275087,-1292.2988,3319.707)" d="M 144.066 318.898 L 336.615 318.898 L 336.615 507.756 L 144.066 507.756 Z "/>
</clipPath>
<g clip-path="url(#cp1)">
<path transform="matrix(6.7275087,0,0,-6.7275087,423.9336,102.97241)" d="M 0 0 C .084 -.095 .234 -.655 .223 -.833 C .117 -.929 -.39 -1.073 -.613 -1.059 C -.73 -.876 -.842 -.496 -.835 -.226 C -.68 -.134 -.278 .013 0 0 "/>
</g>
<clipPath id="cp2">
<path transform="matrix(6.7275087,0,0,-6.7275087,-1292.2988,3319.707)" d="M 144.066 318.898 L 336.615 318.898 L 336.615 507.756 L 144.066 507.756 Z "/>
</clipPath>
<g clip-path="url(#cp2)">
<path transform="matrix(6.7275087,0,0,-6.7275087,495.24256,211.43872)" d="M 0 0 C .095 -.087 .295 -.629 .301 -.808 C .206 -.914 -.29 -1.103 -.507 -1.114 C -.646 -.936 -.785 -.572 -.808 -.303 C -.663 -.195 -.284 -.011 0 0 "/>
</g>
<clipPath id="cp3">
<path transform="matrix(6.7275087,0,0,-6.7275087,-1292.2988,3319.707)" d="M 144.066 318.898 L 336.615 318.898 L 336.615 507.756 L 144.066 507.756 Z "/>
</clipPath>
<g clip-path="url(#cp3)">
<path transform="matrix(6.7275087,0,0,-6.7275087,303.95948,210.06909)" d="M 0 0 C .078 -.1 .206 -.663 .19 -.844 C .078 -.933 -.434 -1.054 -.657 -1.034 C -.769 -.842 -.864 -.46 -.847 -.189 C -.686 -.106 -.278 .028 0 0 "/>
</g>
<clipPath id="cp4">
<path transform="matrix(6.7275087,0,0,-6.7275087,-1292.2988,3319.707)" d="M 144.066 318.898 L 336.615 318.898 L 336.615 507.756 L 144.066 507.756 Z "/>
</clipPath>
<g clip-path="url(#cp4)">
<path transform="matrix(6.7275087,0,0,-6.7275087,484.1416,181.48169)" d="M 0 0 C .151 -.772 .675 -.917 1.054 -.844 C 1.951 -.669 1.717 .638 2.375 .766 C 2.552 .803 2.697 .769 2.82 .691 C 2.838 .655 2.881 .571 2.904 .457 C 2.96 .176 2.859 -.075 2.609 -.293 C 2.781 -.388 2.904 -.432 3.099 -.421 C 3.177 -.203 3.188 .047 3.138 .304 C 3.015 .936 2.565 1.117 2.208 1.047 C 1.349 .883 1.705 -.395 .836 -.566 C .702 -.591 .524 -.571 .396 -.513 C .357 -.468 .279 -.34 .251 -.193 C .168 .217 .324 .513 .664 .752 L .658 .763 C .469 .786 .268 .803 .051 .75 C -.005 .585 -.055 .26 0 0 "/>
</g>
<clipPath id="cp5">
<path transform="matrix(6.7275087,0,0,-6.7275087,-1292.2988,3319.707)" d="M 144.066 318.898 L 336.615 318.898 L 336.615 507.756 L 144.066 507.756 Z "/>
</clipPath>
<g clip-path="url(#cp5)">
<path transform="matrix(6.7275087,0,0,-6.7275087,484.7483,176.72949)" d="M 0 0 C -.046 -.153 -.093 -.453 -.04 -.696 C .104 -1.436 .588 -1.516 .789 -1.516 C .844 -1.516 .899 -1.512 .954 -1.501 C 1.409 -1.412 1.556 -1.013 1.698 -.626 C 1.824 -.281 1.944 .045 2.275 .109 C 2.452 .145 2.615 .118 2.757 .027 L 2.769 .019 L 2.782 -.008 C 2.803 -.051 2.842 -.132 2.863 -.24 C 2.919 -.517 2.832 -.768 2.606 -.988 C 2.728 -1.05 2.831 -1.079 2.972 -1.078 C 3.036 -.881 3.045 -.651 2.999 -.412 C 2.87 .253 2.403 .305 2.263 .305 C 2.217 .305 2.172 .3 2.127 .291 C 1.728 .215 1.61 -.121 1.485 -.477 C 1.355 -.848 1.221 -1.231 .756 -1.322 C .61 -1.349 .417 -1.326 .285 -1.265 L .268 -1.252 C .221 -1.199 .141 -1.064 .111 -.909 C .036 -.537 .148 -.233 .454 .018 C .301 .032 .14 .031 0 0 M .789 -1.618 C .562 -1.618 .019 -1.53 -.139 -.716 C -.199 -.437 -.142 -.1 -.087 .059 L -.078 .085 L -.051 .093 C .05 .117 .154 .129 .268 .129 C .375 .129 .478 .119 .573 .107 L .6 .104 L .634 .041 L .603 .005 C .26 -.237 .136 -.521 .21 -.889 C .235 -1.02 .302 -1.134 .337 -1.177 C .451 -1.226 .615 -1.244 .737 -1.222 C 1.144 -1.143 1.263 -.803 1.389 -.444 C 1.518 -.076 1.651 .303 2.108 .391 C 2.159 .401 2.211 .406 2.263 .406 C 2.591 .406 2.984 .196 3.097 -.393 C 3.151 -.663 3.135 -.923 3.057 -1.145 L 3.046 -1.176 L 3.012 -1.178 C 2.804 -1.189 2.669 -1.139 2.494 -1.043 L 2.43 -1.009 L 2.486 -.961 C 2.721 -.755 2.816 -.52 2.764 -.259 C 2.746 -.164 2.71 -.091 2.691 -.051 C 2.572 .021 2.444 .04 2.295 .01 C 2.019 -.044 1.913 -.33 1.792 -.66 C 1.648 -1.054 1.485 -1.501 .973 -1.6 C .912 -1.612 .85 -1.618 .789 -1.618 "/>
</g>
<clipPath id="cp6">
<path transform="matrix(6.7275087,0,0,-6.7275087,-1292.2988,3319.707)" d="M 144.066 318.898 L 336.615 318.898 L 336.615 507.756 L 144.066 507.756 Z "/>
</clipPath>
<g clip-path="url(#cp6)">
<path transform="matrix(6.7275087,0,0,-6.7275087,480.35865,164.63086)" d="M 0 0 C -.028 .07 -.011 .153 .089 .189 L 1.126 .613 C 1.143 .621 1.153 .616 1.159 .605 L 1.421 -.044 C 1.482 -.184 1.577 -.345 1.773 -.307 C 1.711 -.2 1.645 -.064 1.583 .081 L 1.349 .663 C 1.343 .683 1.332 .7 1.36 .708 L 2.201 1.053 C 2.33 1.101 2.413 1.117 2.452 1.12 C 2.452 1.12 2.491 1.056 2.536 .942 C 2.803 .276 2.697 .089 2.43 -.147 L 2.43 -.153 C 2.67 -.131 2.954 -.03 3.087 .023 L 2.413 1.686 C 2.39 1.605 2.357 1.522 2.235 1.471 L -.105 .522 C -.251 .463 -.329 .504 -.396 .543 L .295 -1.156 C .474 -1.137 .802 -1.048 1.054 -.945 L 1.054 -.936 C .652 -.953 .346 -.861 .089 -.223 Z "/>
</g>
<clipPath id="cp7">
<path transform="matrix(6.7275087,0,0,-6.7275087,-1292.2988,3319.707)" d="M 144.066 318.898 L 336.615 318.898 L 336.615 507.756 L 144.066 507.756 Z "/>
</clipPath>
<g clip-path="url(#cp7)">
<path transform="matrix(6.7275087,0,0,-6.7275087,478.31996,161.61084)" d="M 0 0 L .63 -1.55 C .759 -1.531 .941 -1.485 1.114 -1.428 C .81 -1.39 .558 -1.22 .345 -.691 L .256 -.467 C .235 -.415 .235 -.361 .256 -.315 C .27 -.282 .303 -.238 .375 -.212 L 1.41 .211 C 1.437 .226 1.489 .215 1.508 .178 L 1.771 -.474 C 1.819 -.582 1.882 -.693 1.992 -.709 C 1.941 -.614 1.888 -.502 1.839 -.388 L 1.605 .195 C 1.596 .221 1.588 .246 1.602 .272 C 1.61 .289 1.626 .301 1.649 .308 L 2.485 .651 C 2.638 .708 2.722 .72 2.751 .722 L 2.782 .725 L 2.799 .698 C 2.8 .695 2.84 .628 2.886 .512 C 3.116 -.062 3.084 -.302 2.875 -.53 C 3.051 -.495 3.228 -.433 3.324 -.398 L 2.716 1.104 C 2.684 1.053 2.636 1.008 2.557 .975 L .217 .026 C .134 -.007 .059 -.013 0 0 M .566 -1.66 L -.195 .213 L -.067 .138 C .004 .097 .072 .076 .179 .119 L 2.519 1.069 C 2.621 1.111 2.647 1.179 2.667 1.251 L 2.708 1.393 L 3.456 -.455 L 3.408 -.473 C 3.318 -.509 3.003 -.627 2.738 -.653 L 2.682 -.657 L 2.682 -.579 L 2.699 -.558 C 2.939 -.347 3.06 -.195 2.791 .475 C 2.766 .539 2.742 .589 2.727 .617 C 2.681 .609 2.611 .59 2.522 .557 L 1.705 .222 L 1.932 -.349 C 1.992 -.49 2.059 -.625 2.119 -.73 L 2.155 -.791 L 2.085 -.805 C 1.858 -.851 1.746 -.668 1.678 -.513 L 1.426 .11 L .411 -.306 C .378 -.318 .358 -.335 .348 -.356 C .339 -.377 .339 -.403 .35 -.43 L .439 -.653 C .685 -1.264 .967 -1.353 1.354 -1.334 L 1.407 -1.332 L 1.407 -1.419 L 1.376 -1.44 C 1.127 -1.542 .795 -1.635 .604 -1.656 Z "/>
</g>
<clipPath id="cp8">
<path transform="matrix(6.7275087,0,0,-6.7275087,-1292.2988,3319.707)" d="M 144.066 318.898 L 336.615 318.898 L 336.615 507.756 L 144.066 507.756 Z "/>
</clipPath>
<g clip-path="url(#cp8)">
<path transform="matrix(6.7275087,0,0,-6.7275087,473.5365,154.35718)" d="M 0 0 C .006 .117 .044 .181 .145 .248 L 2.19 1.533 C 2.246 1.566 2.302 1.599 2.368 1.611 L 2.547 1.321 C 2.769 .975 2.67 .8 2.43 .465 L 2.436 .46 C 2.474 .479 2.502 .499 2.564 .535 C 2.659 .596 2.992 .839 3.06 .922 C 3.015 .933 2.976 .948 2.769 1.279 L 2.006 2.5 C 1.806 2.817 1.806 2.856 1.816 2.901 C 1.711 2.879 1.349 2.681 1.254 2.625 C 1.192 2.586 1.16 2.56 1.126 2.542 L 1.131 2.536 C 1.538 2.608 1.739 2.617 1.951 2.274 L 2.14 1.97 C 2.1 1.92 2.046 1.887 1.989 1.85 L -.056 .569 C -.156 .505 -.234 .499 -.34 .541 Z "/>
</g>
<clipPath id="cp9">
<path transform="matrix(6.7275087,0,0,-6.7275087,-1292.2988,3319.707)" d="M 144.066 318.898 L 336.615 318.898 L 336.615 507.756 L 144.066 507.756 Z "/>
</clipPath>
<g clip-path="url(#cp9)">
<path transform="matrix(6.7275087,0,0,-6.7275087,471.97669,151.23902)" d="M 0 0 L .207 -.33 C .233 -.269 .277 -.221 .349 -.173 L 2.395 1.112 C 2.459 1.151 2.519 1.185 2.592 1.197 L 2.625 1.203 L 2.822 .884 C 3.016 .583 2.974 .39 2.827 .154 C 2.936 .23 3.117 .365 3.207 .446 C 3.159 .486 3.092 .574 2.958 .789 L 2.195 2.009 C 2.067 2.212 2.016 2.307 2 2.368 C 1.892 2.324 1.701 2.224 1.579 2.156 C 1.882 2.189 2.055 2.112 2.225 1.837 L 2.433 1.503 L 2.412 1.475 C 2.37 1.422 2.315 1.387 2.262 1.353 L 2.249 1.344 L .203 .062 C .131 .016 .069 -.006 0 0 M .275 -.627 L -.233 .181 L -.089 .124 C .006 .087 .062 .093 .149 .148 L 2.207 1.438 C 2.244 1.462 2.28 1.485 2.308 1.512 L 2.14 1.784 C 1.996 2.016 1.866 2.062 1.703 2.062 C 1.613 2.062 1.509 2.047 1.372 2.023 L 1.345 2.018 L 1.28 2.084 L 1.332 2.122 C 1.35 2.132 1.368 2.144 1.39 2.16 C 1.409 2.172 1.431 2.187 1.459 2.205 C 1.516 2.238 1.914 2.461 2.038 2.487 L 2.117 2.504 L 2.098 2.425 C 2.091 2.402 2.084 2.373 2.28 2.063 L 3.045 .842 C 3.243 .523 3.278 .514 3.303 .508 L 3.381 .489 L 3.331 .427 C 3.256 .334 2.906 .083 2.822 .029 L 2.764 -.006 C 2.736 -.023 2.716 -.036 2.69 -.049 L 2.658 -.066 L 2.601 -.009 L 2.621 .031 C 2.851 .352 2.943 .508 2.736 .83 L 2.576 1.09 C 2.534 1.077 2.494 1.054 2.448 1.026 L .403 -.258 C .316 -.316 .287 -.367 .282 -.466 Z "/>
</g>
<clipPath id="cp10">
<path transform="matrix(6.7275087,0,0,-6.7275087,-1292.2988,3319.707)" d="M 144.066 318.898 L 336.615 318.898 L 336.615 507.756 L 144.066 507.756 Z "/>
</clipPath>
<g clip-path="url(#cp10)">
<path transform="matrix(6.7275087,0,0,-6.7275087,474.96168,131.74878)" d="M 0 0 C -.301 -.281 -.669 -.281 -.998 .075 C -1.087 .164 -1.103 .181 -1.081 .204 L -.34 .903 C -.168 1.059 -.106 1.079 -.106 1.079 C -.067 1.051 -.023 1.008 .017 .964 C .373 .585 .245 .231 0 0 M .229 .984 L -.346 1.591 C -.335 1.496 -.34 1.416 -.435 1.323 L -2.28 -.413 C -2.375 -.494 -2.458 -.502 -2.553 -.482 L -2.112 -.95 C -2.124 -.856 -2.112 -.772 -2.023 -.685 L -1.238 .053 C -1.221 .07 -1.204 .072 -1.193 .059 L -1.076 -.061 C -.964 -.181 -.986 -.309 -1.054 -.563 L -1.332 -1.441 C -1.377 -1.578 -1.394 -1.644 -1.427 -1.677 L -1.02 -2.11 C -1.059 -1.92 -1.07 -1.811 -.998 -1.569 L -.653 -.359 C -.424 -.457 .006 -.58 .368 -.237 C .702 .072 .68 .496 .229 .984 "/>
</g>
<clipPath id="cp11">
<path transform="matrix(6.7275087,0,0,-6.7275087,-1292.2988,3319.707)" d="M 144.066 318.898 L 336.615 318.898 L 336.615 507.756 L 144.066 507.756 Z "/>
</clipPath>
<g clip-path="url(#cp11)">
<path transform="matrix(6.7275087,0,0,-6.7275087,468.02845,130.52783)" d="M 0 0 C .014 -.016 .04 -.042 .068 -.07 C .365 -.391 .706 -.416 .996 -.145 C 1.084 -.061 1.195 .076 1.214 .251 C 1.232 .417 1.164 .585 1.01 .748 C .98 .782 .948 .814 .919 .837 C .889 .819 .828 .777 .724 .683 Z M .573 -.435 C .373 -.435 .173 -.333 -.005 -.141 C -.097 -.048 -.145 -.001 -.087 .058 L .656 .758 C .828 .914 .897 .941 .909 .945 L .933 .953 L .954 .938 C .995 .909 1.042 .865 1.085 .816 C 1.259 .631 1.336 .437 1.315 .24 C 1.297 .077 1.21 -.082 1.065 -.218 C .914 -.36 .744 -.435 .573 -.435 M -.331 -1.855 L -.066 -2.136 C -.078 -2.019 -.067 -1.909 -.016 -1.736 L .346 -.472 L .398 -.494 C .554 -.561 .702 -.594 .838 -.594 C 1.038 -.594 1.214 -.523 1.364 -.382 C 1.773 -.002 1.513 .453 1.222 .768 L .734 1.284 C .723 1.228 .695 1.168 .631 1.106 L -1.214 -.631 C -1.275 -.683 -1.334 -.712 -1.399 -.721 L -1.13 -1.007 C -1.118 -.95 -1.089 -.891 -1.028 -.831 L -.242 -.092 C -.219 -.069 -.195 -.063 -.18 -.063 C -.157 -.063 -.137 -.074 -.123 -.092 L -.009 -.207 C .124 -.351 .091 -.51 .026 -.757 L -.274 -1.701 C -.296 -1.771 -.312 -1.819 -.331 -1.855 M .096 -2.457 L -.467 -1.858 L -.432 -1.823 C -.413 -1.804 -.397 -1.754 -.37 -1.67 L -.35 -1.607 L -.071 -.729 C -.006 -.481 .01 -.377 -.082 -.277 L -.186 -.171 L -.958 -.904 C -1.032 -.976 -1.041 -1.043 -1.032 -1.126 L -1.012 -1.278 L -1.669 -.581 L -1.512 -.614 C -1.414 -.634 -1.355 -.618 -1.281 -.556 L .562 1.179 C .637 1.252 .645 1.312 .634 1.404 L .617 1.554 L 1.296 .837 C 1.752 .344 1.8 -.115 1.432 -.456 C 1.265 -.615 1.065 -.695 .838 -.695 C .704 -.695 .561 -.667 .411 -.609 L .082 -1.764 C .013 -1.995 .021 -2.094 .06 -2.281 Z "/>
</g>
<clipPath id="cp12">
<path transform="matrix(6.7275087,0,0,-6.7275087,-1292.2988,3319.707)" d="M 144.066 318.898 L 336.615 318.898 L 336.615 507.756 L 144.066 507.756 Z "/>
</clipPath>
<g clip-path="url(#cp12)">
<path transform="matrix(6.7275087,0,0,-6.7275087,454.8252,122.82739)" d="M 0 0 C -.105 .07 -.29 .187 -.44 .296 C -.602 .41 -.73 .51 -.808 .566 L -.758 .605 L .418 1.497 Z M .886 1.82 L .53 1.931 C .53 1.889 .502 1.823 .463 1.772 C .446 1.742 .407 1.697 .357 1.663 L -.914 .719 L -1.705 .187 C -1.861 .081 -1.967 .078 -2.101 .109 L -1.66 -.209 C -1.671 -.167 -1.655 -.13 -1.633 -.103 C -1.611 -.073 -1.554 -.022 -1.499 .02 L -.947 .46 C -.886 .424 -.741 .335 -.518 .178 C -.301 .02 -.128 -.12 -.05 -.178 L -.234 -.861 C -.273 -.997 -.362 -1.076 -.423 -1.092 L .089 -1.457 C .023 -1.31 .04 -1.229 .106 -.995 Z "/>
</g>
<clipPath id="cp13">
<path transform="matrix(6.7275087,0,0,-6.7275087,-1292.2988,3319.707)" d="M 144.066 318.898 L 336.615 318.898 L 336.615 507.756 L 144.066 507.756 Z "/>
</clipPath>
<g clip-path="url(#cp13)">
<path transform="matrix(6.7275087,0,0,-6.7275087,449.95655,119.01489)" d="M 0 0 C .018 -.013 .037 -.027 .058 -.043 C .127 -.095 .214 -.16 .313 -.23 C .432 -.316 .574 -.409 .678 -.476 L .694 -.487 L 1.053 .799 Z M .754 -.647 L .622 -.561 C .517 -.492 .374 -.399 .255 -.312 C .155 -.242 .067 -.177 -.003 -.124 C -.047 -.091 -.084 -.064 -.114 -.042 L -.169 -.003 L -.065 .078 L 1.231 1.061 Z M .396 -1.664 L .723 -1.898 C .712 -1.8 .736 -1.703 .781 -1.548 L 1.548 1.219 L 1.293 1.299 C 1.28 1.258 1.256 1.213 1.227 1.175 C 1.212 1.147 1.17 1.096 1.109 1.055 L -.16 .112 L -.953 -.422 C -1.042 -.482 -1.12 -.514 -1.201 -.523 L -.977 -.685 C -.97 -.669 -.96 -.653 -.948 -.638 C -.922 -.601 -.857 -.545 -.806 -.507 L -.228 -.045 L -.198 -.063 C -.147 -.093 -.003 -.181 .235 -.347 C .388 -.458 .517 -.56 .609 -.631 C .649 -.662 .68 -.687 .704 -.705 L .732 -.725 L .539 -1.441 C .509 -1.544 .453 -1.62 .396 -1.664 M .937 -2.174 L .183 -1.638 L .287 -1.61 C .328 -1.599 .407 -1.536 .441 -1.414 L .616 -.764 C .596 -.749 .573 -.731 .547 -.711 C .456 -.64 .327 -.539 .176 -.429 C -.022 -.291 -.153 -.208 -.219 -.168 L -.744 -.586 C -.799 -.628 -.85 -.676 -.868 -.7 C -.892 -.73 -.891 -.75 -.888 -.763 L -.853 -.899 L -1.609 -.353 L -1.366 -.409 C -1.319 -.42 -1.282 -.424 -1.248 -.424 C -1.171 -.424 -1.098 -.397 -1.009 -.338 L -.218 .194 L 1.051 1.137 C 1.096 1.168 1.13 1.206 1.142 1.23 C 1.182 1.282 1.203 1.338 1.203 1.365 L 1.203 1.433 L 1.671 1.287 L .879 -1.575 C .811 -1.813 .802 -1.876 .859 -2.003 Z "/>
</g>
<clipPath id="cp14">
<path transform="matrix(6.7275087,0,0,-6.7275087,-1292.2988,3319.707)" d="M 144.066 318.898 L 336.615 318.898 L 336.615 507.756 L 144.066 507.756 Z "/>
</clipPath>
<g clip-path="url(#cp14)">
<path transform="matrix(6.7275087,0,0,-6.7275087,390.93995,112.98511)" d="M 0 0 C .781 .064 .981 .577 .948 .959 C .869 1.872 -.451 1.772 -.513 2.441 C -.529 2.63 -.479 2.764 -.39 2.878 C -.351 2.889 -.267 2.923 -.145 2.931 C .139 2.959 .379 2.834 .562 2.561 C .68 2.722 .736 2.842 .747 3.037 C .535 3.14 .289 3.174 .028 3.148 C -.613 3.096 -.842 2.672 -.808 2.307 C -.735 1.438 .574 1.655 .646 .772 C .664 .638 .619 .46 .552 .341 C .502 .301 .368 .242 .218 .229 C -.2 .189 -.474 .378 -.68 .742 L -.691 .742 C -.735 .546 -.769 .351 -.741 .134 C -.585 .056 -.262 -.023 0 0 "/>
</g>
<clipPath id="cp15">
<path transform="matrix(6.7275087,0,0,-6.7275087,-1292.2988,3319.707)" d="M 144.066 318.898 L 336.615 318.898 L 336.615 507.756 L 144.066 507.756 Z "/>
</clipPath>
<g clip-path="url(#cp15)">
<path transform="matrix(6.7275087,0,0,-6.7275087,386.2732,111.85962)" d="M 0 0 C .154 -.069 .451 -.138 .69 -.117 C 1.015 -.09 1.259 .017 1.415 .202 C 1.546 .357 1.61 .57 1.591 .787 C 1.551 1.251 1.17 1.438 .8 1.619 C .472 1.781 .161 1.932 .13 2.269 C .115 2.455 .157 2.605 .264 2.742 L .274 2.755 L .313 2.767 C .36 2.782 .438 2.807 .546 2.814 C .571 2.817 .598 2.818 .625 2.818 C .873 2.818 1.085 2.705 1.256 2.481 C 1.331 2.593 1.374 2.691 1.387 2.839 C 1.198 2.924 .971 2.954 .726 2.931 C .447 2.908 .227 2.809 .089 2.644 C -.026 2.507 -.081 2.33 -.064 2.145 C -.03 1.74 .291 1.588 .63 1.425 C .986 1.256 1.352 1.081 1.391 .608 C 1.407 .475 1.366 .285 1.289 .148 L 1.277 .133 C 1.213 .083 1.069 .025 .916 .011 C .533 -.025 .252 .115 .028 .453 C .002 .316 -.017 .164 0 0 M .599 -.222 C .347 -.222 .072 -.15 -.07 -.079 L -.094 -.067 L -.097 -.04 C -.128 .196 -.087 .407 -.047 .585 L -.037 .625 L .032 .625 L .058 .599 C .268 .229 .533 .075 .906 .112 C 1.039 .124 1.157 .173 1.206 .207 C 1.269 .324 1.304 .487 1.29 .598 C 1.256 1.015 .931 1.17 .587 1.334 C .236 1.501 -.126 1.674 -.165 2.136 C -.184 2.347 -.122 2.551 .012 2.71 C .168 2.895 .411 3.006 .717 3.031 C .991 3.058 1.249 3.019 1.463 2.915 L 1.493 2.901 L 1.491 2.867 C 1.478 2.65 1.414 2.523 1.297 2.364 L 1.255 2.305 L 1.214 2.365 C 1.042 2.622 .816 2.742 .554 2.714 C .457 2.707 .386 2.684 .344 2.671 L .335 2.668 C .25 2.554 .218 2.433 .232 2.278 C .257 1.999 .53 1.865 .846 1.71 C 1.221 1.526 1.647 1.317 1.691 .796 C 1.713 .552 1.641 .312 1.493 .137 C 1.319 -.07 1.051 -.189 .698 -.217 C .666 -.221 .633 -.222 .599 -.222 "/>
</g>
<clipPath id="cp16">
<path transform="matrix(6.7275087,0,0,-6.7275087,-1292.2988,3319.707)" d="M 144.066 318.898 L 336.615 318.898 L 336.615 507.756 L 144.066 507.756 Z "/>
</clipPath>
<g clip-path="url(#cp16)">
<path transform="matrix(6.7275087,0,0,-6.7275087,371.93128,108.18506)" d="M 0 0 C -.195 -.053 -.351 -.092 -.445 -.109 L -.44 -.047 L -.384 1.427 L .508 .144 C .384 .108 .184 .047 0 0 M 1.338 -.404 L -.328 1.992 L -.641 1.791 C -.612 1.761 -.574 1.7 -.557 1.638 C -.546 1.599 -.54 1.546 -.54 1.487 L -.635 -.092 L -.725 -1.042 C -.747 -1.232 -.808 -1.315 -.919 -1.399 L -.39 -1.263 C -.434 -1.243 -.445 -1.204 -.456 -1.17 C -.468 -1.137 -.468 -1.059 -.468 -.99 L -.452 -.284 C -.384 -.262 -.223 -.207 .04 -.137 C .296 -.073 .518 -.025 .613 -.003 L 1.02 -.583 C 1.104 -.696 1.104 -.814 1.076 -.872 L 1.683 -.713 C 1.521 -.671 1.477 -.608 1.338 -.404 "/>
</g>
<clipPath id="cp17">
<path transform="matrix(6.7275087,0,0,-6.7275087,-1292.2988,3319.707)" d="M 144.066 318.898 L 336.615 318.898 L 336.615 507.756 L 144.066 507.756 Z "/>
</clipPath>
<g clip-path="url(#cp17)">
<path transform="matrix(6.7275087,0,0,-6.7275087,369.64869,99.62012)" d="M 0 0 L -.05 -1.319 C .038 -1.3 .162 -1.269 .327 -1.224 C .476 -1.186 .638 -1.137 .757 -1.103 L .765 -1.1 Z M -.162 -1.444 L -.151 -1.316 L -.09 .306 L .929 -1.157 L .785 -1.2 C .666 -1.235 .503 -1.284 .352 -1.322 C .139 -1.38 -.008 -1.416 -.097 -1.432 Z M -.228 .505 C -.204 .469 -.181 .424 -.169 .378 C -.157 .335 -.15 .279 -.15 .214 L -.245 -1.368 L -.335 -2.32 C -.348 -2.435 -.376 -2.515 -.417 -2.578 L -.147 -2.508 C -.154 -2.492 -.16 -2.477 -.164 -2.464 C -.178 -2.421 -.18 -2.357 -.18 -2.263 L -.162 -1.521 L -.112 -1.504 C -.036 -1.479 .121 -1.426 .365 -1.361 C .559 -1.313 .733 -1.274 .848 -1.248 L .975 -1.219 L 1.401 -1.826 C 1.464 -1.912 1.486 -2.002 1.482 -2.076 L 1.864 -1.976 C 1.785 -1.924 1.729 -1.844 1.635 -1.706 L -.002 .65 Z M -.813 -2.784 L -.611 -2.632 C -.511 -2.557 -.456 -2.486 -.435 -2.309 L -.346 -1.361 L -.252 .218 C -.252 .269 -.257 .317 -.267 .351 C -.28 .402 -.313 .456 -.339 .484 L -.38 .528 L .024 .788 L 1.718 -1.648 C 1.854 -1.847 1.891 -1.9 2.035 -1.938 L 2.224 -1.986 L 1.323 -2.222 L 1.37 -2.124 C 1.389 -2.083 1.392 -1.985 1.319 -1.886 L .93 -1.333 L .87 -1.347 C .755 -1.372 .583 -1.411 .391 -1.459 C .168 -1.519 .017 -1.568 -.063 -1.594 L -.078 -2.264 C -.078 -2.318 -.078 -2.401 -.07 -2.427 C -.056 -2.466 -.05 -2.481 -.031 -2.489 L .103 -2.549 Z "/>
</g>
<clipPath id="cp18">
<path transform="matrix(6.7275087,0,0,-6.7275087,-1292.2988,3319.707)" d="M 144.066 318.898 L 336.615 318.898 L 336.615 507.756 L 144.066 507.756 Z "/>
</clipPath>
<g clip-path="url(#cp18)">
<path transform="matrix(6.7275087,0,0,-6.7275087,359.26075,120.85889)" d="M 0 0 L .579 .273 C .462 .292 .401 .34 .346 .452 L -.719 2.723 C -.774 2.834 -.769 2.909 -.713 3.012 L -1.293 2.739 C -1.175 2.72 -1.115 2.672 -1.058 2.558 L .006 .29 C .056 .176 .056 .103 0 0 "/>
</g>
<clipPath id="cp19">
<path transform="matrix(6.7275087,0,0,-6.7275087,-1292.2988,3319.707)" d="M 144.066 318.898 L 336.615 318.898 L 336.615 507.756 L 144.066 507.756 Z "/>
</clipPath>
<g clip-path="url(#cp19)">
<path transform="matrix(6.7275087,0,0,-6.7275087,351.4812,102.376468)" d="M 0 0 C .059 -.034 .104 -.087 .143 -.167 L 1.208 -2.436 C 1.244 -2.519 1.257 -2.583 1.246 -2.649 L 1.599 -2.482 C 1.54 -2.449 1.496 -2.397 1.457 -2.318 L .392 -.046 C .354 .031 .34 .097 .353 .166 Z M 1.038 -2.859 L 1.112 -2.723 C 1.16 -2.635 1.16 -2.58 1.115 -2.478 L .052 -.211 C .003 -.112 -.044 -.074 -.145 -.058 L -.305 -.032 L .562 .377 L .488 .241 C .437 .148 .437 .091 .482 -.002 L 1.548 -2.274 C 1.596 -2.371 1.644 -2.408 1.744 -2.424 L 1.905 -2.451 Z "/>
</g>
<clipPath id="cp20">
<path transform="matrix(6.7275087,0,0,-6.7275087,-1292.2988,3319.707)" d="M 144.066 318.898 L 336.615 318.898 L 336.615 507.756 L 144.066 507.756 Z "/>
</clipPath>
<g clip-path="url(#cp20)">
<path transform="matrix(6.7275087,0,0,-6.7275087,355.02516,122.64111)" d="M 0 0 C -.044 .153 -.212 .474 -.346 .669 L -.351 .666 C -.179 .134 -.284 -.1 -.602 -.317 C -1.204 -.73 -1.872 -.451 -2.313 .19 C -2.58 .588 -2.675 1.001 -2.652 1.38 C -2.597 1.48 -2.481 1.63 -2.296 1.755 C -2.095 1.895 -1.8 1.998 -1.438 1.887 C -1.399 2.034 -1.393 2.227 -1.477 2.397 C -1.689 2.355 -1.984 2.257 -2.218 2.093 C -2.954 1.591 -3.093 .653 -2.519 -.189 C -2.034 -.897 -1.281 -1.064 -.596 -.593 C -.296 -.384 -.145 -.2 0 0 "/>
</g>
<clipPath id="cp21">
<path transform="matrix(6.7275087,0,0,-6.7275087,-1292.2988,3319.707)" d="M 144.066 318.898 L 336.615 318.898 L 336.615 507.756 L 144.066 507.756 Z "/>
</clipPath>
<g clip-path="url(#cp21)">
<path transform="matrix(6.7275087,0,0,-6.7275087,344.8922,106.90527)" d="M 0 0 C -.131 -.029 -.431 -.111 -.683 -.288 C -1.405 -.78 -1.524 -1.69 -.971 -2.5 C -.685 -2.917 -.298 -3.147 .118 -3.147 C .376 -3.147 .633 -3.061 .881 -2.89 C 1.173 -2.688 1.319 -2.509 1.45 -2.33 C 1.42 -2.239 1.353 -2.098 1.277 -1.959 C 1.323 -2.289 1.217 -2.504 .933 -2.698 C .736 -2.833 .526 -2.901 .309 -2.901 C -.111 -2.901 -.532 -2.638 -.849 -2.178 C -1.102 -1.801 -1.222 -1.379 -1.197 -.956 L -1.19 -.935 C -1.153 -.867 -1.041 -.693 -.819 -.542 C -.696 -.456 -.494 -.354 -.235 -.354 C -.148 -.354 -.059 -.366 .031 -.389 C .047 -.299 .06 -.148 0 0 M .118 -3.249 L .118 -3.249 C -.333 -3.249 -.749 -3.003 -1.054 -2.557 C -1.641 -1.698 -1.512 -.73 -.74 -.204 C -.443 .005 -.084 .087 .019 .108 L .058 .115 L .074 .08 C .152 -.077 .167 -.275 .117 -.465 L .104 -.516 L .053 -.501 C -.043 -.471 -.141 -.456 -.235 -.456 C -.468 -.456 -.65 -.548 -.761 -.625 C -.96 -.76 -1.063 -.916 -1.096 -.974 C -1.118 -1.37 -1.003 -1.767 -.765 -2.121 C -.468 -2.553 -.077 -2.8 .309 -2.8 C .505 -2.8 .696 -2.738 .876 -2.614 C 1.158 -2.422 1.278 -2.217 1.107 -1.689 L 1.093 -1.647 L 1.172 -1.608 L 1.202 -1.641 C 1.342 -1.845 1.51 -2.171 1.554 -2.325 L 1.561 -2.349 L 1.547 -2.368 C 1.406 -2.562 1.255 -2.754 .938 -2.974 C .673 -3.156 .397 -3.249 .118 -3.249 "/>
</g>
<clipPath id="cp22">
<path transform="matrix(6.7275087,0,0,-6.7275087,-1292.2988,3319.707)" d="M 144.066 318.898 L 336.615 318.898 L 336.615 507.756 L 144.066 507.756 Z "/>
</clipPath>
<g clip-path="url(#cp22)">
<path transform="matrix(6.7275087,0,0,-6.7275087,332.9402,128.43335)" d="M 0 0 L .502 -.51 L .346 -.481 L -2.653 -.214 L -2.441 -.396 L -.724 -2.198 C -.63 -2.29 -.601 -2.382 -.63 -2.518 L -.234 -2.126 C -.384 -2.167 -.468 -2.131 -.562 -2.036 L -1.398 -1.231 L -1.973 -.651 L -1.861 -.671 L 1.109 -.917 L -.83 1.12 C -.925 1.218 -.953 1.307 -.925 1.447 L -1.327 1.051 C -1.17 1.093 -1.092 1.059 -.992 .961 Z "/>
</g>
<clipPath id="cp23">
<path transform="matrix(6.7275087,0,0,-6.7275087,-1292.2988,3319.707)" d="M 144.066 318.898 L 336.615 318.898 L 336.615 507.756 L 144.066 507.756 Z "/>
</clipPath>
<g clip-path="url(#cp23)">
<path transform="matrix(6.7275087,0,0,-6.7275087,316.12416,130.30884)" d="M 0 0 L .092 -.078 L 1.812 -1.884 C 1.883 -1.953 1.921 -2.025 1.929 -2.11 L 2.127 -1.913 C 2.025 -1.905 1.956 -1.849 1.901 -1.793 L 1.065 -.989 L .379 -.295 L .647 -.343 L 3.481 -.577 L 1.633 1.364 C 1.561 1.438 1.524 1.51 1.516 1.596 L 1.314 1.397 C 1.407 1.39 1.474 1.344 1.543 1.277 L 2.535 .315 L 3.15 -.309 L 2.836 -.252 Z M 1.787 -2.394 L 1.821 -2.23 C 1.845 -2.11 1.823 -2.036 1.74 -1.956 L .022 -.152 L -.306 .129 L 2.854 -.153 L 2.464 .243 L 1.473 1.204 C 1.37 1.304 1.314 1.315 1.187 1.281 L 1.001 1.231 L 1.657 1.878 L 1.625 1.716 C 1.6 1.595 1.622 1.522 1.705 1.435 L 3.738 -.699 L .671 -.446 L 1.137 -.917 L 1.972 -1.721 C 2.068 -1.817 2.131 -1.832 2.253 -1.798 L 2.438 -1.748 Z "/>
</g>
<clipPath id="cp24">
<path transform="matrix(6.7275087,0,0,-6.7275087,-1292.2988,3319.707)" d="M 144.066 318.898 L 336.615 318.898 L 336.615 507.756 L 144.066 507.756 Z "/>
</clipPath>
<g clip-path="url(#cp24)">
<path transform="matrix(6.7275087,0,0,-6.7275087,320.79615,154.78858)" d="M 0 0 C -.045 -.067 -.123 -.097 -.212 -.044 L -1.16 .552 C -1.176 .566 -1.182 .579 -1.171 .59 L -.803 1.179 C -.72 1.31 -.641 1.482 -.786 1.614 C -.836 1.504 -.909 1.368 -.993 1.24 L -1.332 .708 C -1.338 .691 -1.349 .677 -1.372 .691 L -2.146 1.179 C -2.257 1.245 -2.318 1.31 -2.347 1.341 C -2.347 1.341 -2.313 1.407 -2.246 1.51 C -1.868 2.118 -1.65 2.14 -1.299 2.059 L -1.299 2.062 C -1.455 2.246 -1.7 2.418 -1.823 2.494 L -2.776 .975 C -2.709 1.003 -2.613 1.026 -2.503 .956 L -.369 -.39 C -.235 -.471 -.223 -.56 -.217 -.641 L .763 .914 C .641 1.048 .379 1.26 .15 1.407 L .145 1.402 C .39 1.084 .49 .78 .128 .204 Z "/>
</g>
<clipPath id="cp25">
<path transform="matrix(6.7275087,0,0,-6.7275087,-1292.2988,3319.707)" d="M 144.066 318.898 L 336.615 318.898 L 336.615 507.756 L 144.066 507.756 Z "/>
</clipPath>
<g clip-path="url(#cp25)">
<path transform="matrix(6.7275087,0,0,-6.7275087,302.94288,147.70557)" d="M 0 0 C .061 0 .121 -.018 .178 -.055 L 2.313 -1.4 C 2.395 -1.45 2.438 -1.504 2.461 -1.56 L 3.353 -.145 C 3.263 -.053 3.121 .066 2.973 .176 C 3.12 -.103 3.119 -.407 2.825 -.876 L 2.697 -1.08 C 2.632 -1.177 2.518 -1.202 2.416 -1.141 L 1.467 -.544 C 1.44 -.521 1.428 -.5 1.427 -.477 C 1.426 -.459 1.433 -.441 1.448 -.426 L 1.808 .153 C 1.896 .292 1.919 .39 1.879 .467 C 1.827 .364 1.765 .255 1.704 .16 L 1.364 -.373 C 1.352 -.414 1.311 -.418 1.299 -.418 C 1.285 -.418 1.27 -.414 1.256 -.405 L .481 .083 C .361 .155 .295 .227 .27 .253 L .246 .279 L .262 .311 C .263 .313 .298 .381 .365 .485 C .637 .921 .847 1.091 1.114 1.091 C 1.146 1.091 1.179 1.088 1.214 1.084 C 1.078 1.215 .922 1.322 .847 1.371 L -.014 0 C -.01 0 -.005 0 0 0 M 2.396 -1.852 L 2.386 -1.697 C 2.381 -1.628 2.376 -1.557 2.259 -1.486 L .124 -.14 C .051 -.094 -.016 -.088 -.103 -.124 L -.249 -.184 L .815 1.51 L .857 1.484 C 1.013 1.389 1.246 1.216 1.394 1.042 L 1.406 1.028 L 1.406 .946 L 1.344 .957 C 1.245 .98 1.176 .99 1.114 .99 C .92 .99 .74 .896 .451 .431 C .412 .372 .385 .325 .369 .296 C .4 .265 .453 .217 .534 .169 L 1.287 -.305 L 1.618 .214 C 1.694 .329 1.767 .463 1.822 .582 L 1.85 .645 L 1.902 .598 C 2.098 .421 1.944 .178 1.894 .099 L 1.539 -.469 L 2.469 -1.054 C 2.49 -1.067 2.511 -1.073 2.531 -1.073 C 2.573 -1.073 2.599 -1.043 2.612 -1.025 L 2.739 -.822 C 3.076 -.285 3.002 .003 2.758 .318 L 2.731 .354 L 2.792 .413 L 2.832 .397 C 3.06 .25 3.327 .034 3.454 -.104 L 3.48 -.133 Z "/>
</g>
<clipPath id="cp26">
<path transform="matrix(6.7275087,0,0,-6.7275087,-1292.2988,3319.707)" d="M 144.066 318.898 L 336.615 318.898 L 336.615 507.756 L 144.066 507.756 Z "/>
</clipPath>
<g clip-path="url(#cp26)">
<path transform="matrix(6.7275087,0,0,-6.7275087,315.3578,167.78125)" d="M 0 0 L .229 .6 C .134 .532 .056 .524 -.061 .568 L -2.408 1.457 C -2.519 1.496 -2.575 1.558 -2.602 1.672 L -2.831 1.073 C -2.731 1.134 -2.652 1.146 -2.542 1.103 L -.195 .215 C -.078 .17 -.028 .115 0 0 "/>
</g>
<clipPath id="cp27">
<path transform="matrix(6.7275087,0,0,-6.7275087,-1292.2988,3319.707)" d="M 144.066 318.898 L 336.615 318.898 L 336.615 507.756 L 144.066 507.756 Z "/>
</clipPath>
<g clip-path="url(#cp27)">
<path transform="matrix(6.7275087,0,0,-6.7275087,297.4458,159.84888)" d="M 0 0 C .043 0 .089 -.009 .139 -.029 L 2.485 -.917 C 2.568 -.948 2.623 -.986 2.661 -1.043 L 2.799 -.68 C 2.733 -.697 2.668 -.69 2.583 -.658 L .237 .231 C .157 .259 .101 .299 .062 .357 L -.078 -.01 C -.051 -.003 -.026 0 0 0 M 2.652 -1.349 L 2.613 -1.191 C 2.59 -1.092 2.551 -1.051 2.449 -1.011 L .104 -.123 C .009 -.087 -.05 -.093 -.142 -.149 L -.268 -.227 L .07 .663 L .109 .505 C .133 .408 .177 .359 .271 .326 L 2.62 -.563 C 2.723 -.603 2.777 -.598 2.862 -.538 L 2.998 -.442 Z "/>
</g>
<clipPath id="cp28">
<path transform="matrix(6.7275087,0,0,-6.7275087,-1292.2988,3319.707)" d="M 144.066 318.898 L 336.615 318.898 L 336.615 507.756 L 144.066 507.756 Z "/>
</clipPath>
<g clip-path="url(#cp28)">
<path transform="matrix(6.7275087,0,0,-6.7275087,313.5542,173.19629)" d="M 0 0 C -.133 .081 -.479 .195 -.713 .251 L -.713 .245 C -.217 -.025 -.138 -.268 -.217 -.647 C -.378 -1.363 -1.053 -1.61 -1.816 -1.444 C -2.279 -1.34 -2.636 -1.106 -2.875 -.811 C -2.909 -.702 -2.92 -.51 -2.875 -.295 C -2.82 -.056 -2.68 .223 -2.34 .39 C -2.413 .521 -2.535 .663 -2.713 .736 C -2.841 .56 -2.986 .284 -3.047 .006 C -3.243 -.864 -2.702 -1.644 -1.705 -1.864 C -.868 -2.048 -.206 -1.652 -.027 -.842 C .057 -.482 .034 -.245 0 0 "/>
</g>
<clipPath id="cp29">
<path transform="matrix(6.7275087,0,0,-6.7275087,-1292.2988,3319.707)" d="M 144.066 318.898 L 336.615 318.898 L 336.615 507.756 L 144.066 507.756 Z "/>
</clipPath>
<g clip-path="url(#cp29)">
<path transform="matrix(6.7275087,0,0,-6.7275087,295.4181,168.6726)" d="M 0 0 C -.113 -.163 -.244 -.417 -.302 -.678 C -.389 -1.065 -.329 -1.438 -.127 -1.755 C .103 -2.117 .504 -2.377 1.002 -2.487 C 1.133 -2.516 1.261 -2.53 1.384 -2.53 C 2.016 -2.53 2.477 -2.146 2.619 -1.503 C 2.698 -1.165 2.681 -.939 2.649 -.704 C 2.568 -.66 2.424 -.605 2.276 -.558 C 2.564 -.79 2.591 -1.027 2.529 -1.329 C 2.401 -1.894 1.961 -2.216 1.321 -2.216 C 1.176 -2.216 1.024 -2.199 .869 -2.165 C .421 -2.065 .045 -1.84 -.218 -1.515 L -.228 -1.498 C -.26 -1.392 -.278 -1.194 -.229 -.958 C -.157 -.648 .02 -.409 .285 -.262 C .232 -.18 .14 -.068 0 0 M 1.384 -2.632 L 1.384 -2.632 C 1.254 -2.632 1.118 -2.616 .98 -2.586 C .456 -2.47 .032 -2.194 -.213 -1.81 C -.429 -1.469 -.494 -1.07 -.401 -.656 C -.336 -.362 -.182 -.076 -.059 .093 L -.036 .125 L .002 .11 C .22 .021 .345 -.158 .4 -.258 L .426 -.304 L .378 -.327 C .111 -.46 -.061 -.679 -.13 -.979 C -.173 -1.189 -.16 -1.366 -.134 -1.459 C .116 -1.762 .469 -1.972 .891 -2.066 C 1.039 -2.099 1.183 -2.115 1.321 -2.115 C 1.91 -2.115 2.314 -1.821 2.43 -1.308 C 2.501 -.963 2.447 -.738 1.959 -.471 L 1.932 -.457 L 1.932 -.363 L 1.995 -.373 C 2.236 -.43 2.586 -.547 2.722 -.629 L 2.743 -.642 L 2.746 -.665 C 2.781 -.919 2.803 -1.159 2.718 -1.525 C 2.566 -2.218 2.067 -2.632 1.384 -2.632 "/>
</g>
<clipPath id="cp30">
<path transform="matrix(6.7275087,0,0,-6.7275087,-1292.2988,3319.707)" d="M 144.066 318.898 L 336.615 318.898 L 336.615 507.756 L 144.066 507.756 Z "/>
</clipPath>
<g clip-path="url(#cp30)">
<path transform="matrix(6.7275087,0,0,-6.7275087,494.49256,256.5796)" d="M 0 0 C .412 .663 .123 1.129 -.2 1.332 C -.981 1.817 -1.694 .694 -2.268 1.048 C -2.424 1.145 -2.508 1.265 -2.541 1.405 C -2.53 1.441 -2.508 1.533 -2.441 1.633 C -2.291 1.875 -2.051 1.993 -1.722 1.982 C -1.777 2.168 -1.845 2.288 -1.995 2.413 C -2.201 2.305 -2.374 2.124 -2.514 1.9 C -2.848 1.354 -2.647 .917 -2.335 .727 C -1.594 .268 -.986 1.45 -.234 .981 C -.117 .912 0 .772 .055 .644 C .055 .585 .029 .438 -.055 .312 C -.273 -.045 -.585 -.156 -.997 -.103 L -1.009 -.111 C -.88 -.265 -.741 -.412 -.551 -.515 C -.39 -.437 -.139 -.226 0 0 "/>
</g>
<clipPath id="cp31">
<path transform="matrix(6.7275087,0,0,-6.7275087,-1292.2988,3319.707)" d="M 144.066 318.898 L 336.615 318.898 L 336.615 507.756 L 144.066 507.756 Z "/>
</clipPath>
<g clip-path="url(#cp31)">
<path transform="matrix(6.7275087,0,0,-6.7275087,488.45777,257.67555)" d="M 0 0 C .097 -.109 .208 -.215 .346 -.295 C .503 -.211 .728 -.015 .853 .19 C 1.232 .798 1.007 1.24 .67 1.452 C .544 1.53 .415 1.568 .276 1.568 C .02 1.568 -.23 1.44 -.472 1.316 C -.698 1.2 -.913 1.09 -1.121 1.09 C -1.222 1.09 -1.312 1.115 -1.398 1.168 C -1.558 1.268 -1.655 1.395 -1.694 1.556 L -1.697 1.569 L -1.693 1.582 C -1.677 1.637 -1.651 1.727 -1.586 1.824 C -1.438 2.063 -1.205 2.189 -.895 2.195 C -.943 2.334 -1.003 2.425 -1.104 2.515 C -1.279 2.415 -1.437 2.254 -1.573 2.036 C -1.72 1.798 -1.77 1.56 -1.719 1.35 C -1.677 1.176 -1.568 1.028 -1.412 .933 C -1.302 .865 -1.192 .833 -1.073 .833 C -.854 .833 -.643 .944 -.42 1.063 C -.194 1.183 .04 1.307 .289 1.307 C .43 1.307 .561 1.268 .69 1.187 C .812 1.114 .937 .969 .999 .827 L 1.003 .807 C 1.003 .734 .971 .579 .884 .447 C .685 .121 .401 -.027 0 0 M .344 -.409 L .321 -.397 C .121 -.288 -.024 -.132 -.15 .02 L -.185 .061 L -.114 .113 L -.093 .111 C .323 .057 .601 .178 .798 .502 C .872 .612 .899 .741 .902 .797 C .847 .916 .74 1.04 .638 1.101 C .524 1.172 .41 1.206 .289 1.206 C .066 1.206 -.147 1.093 -.373 .974 C -.597 .854 -.829 .732 -1.073 .732 C -1.211 .732 -1.339 .769 -1.465 .847 C -1.644 .956 -1.769 1.126 -1.818 1.326 C -1.875 1.563 -1.82 1.827 -1.66 2.09 C -1.505 2.336 -1.325 2.514 -1.122 2.621 L -1.092 2.636 L -1.065 2.615 C -.917 2.491 -.839 2.368 -.777 2.159 L -.756 2.091 L -.827 2.094 C -.841 2.095 -.854 2.095 -.868 2.095 C -1.158 2.095 -1.365 1.988 -1.501 1.769 C -1.557 1.685 -1.58 1.608 -1.591 1.567 C -1.557 1.439 -1.476 1.336 -1.344 1.254 C -1.276 1.212 -1.203 1.191 -1.121 1.191 C -.937 1.191 -.734 1.296 -.518 1.406 C -.266 1.535 -.005 1.669 .276 1.669 C .435 1.669 .581 1.626 .723 1.538 C 1.085 1.311 1.357 .808 .94 .136 C .793 -.103 .535 -.317 .367 -.398 Z "/>
</g>
<clipPath id="cp32">
<path transform="matrix(6.7275087,0,0,-6.7275087,-1292.2988,3319.707)" d="M 144.066 318.898 L 336.615 318.898 L 336.615 507.756 L 144.066 507.756 Z "/>
</clipPath>
<g clip-path="url(#cp32)">
<path transform="matrix(6.7275087,0,0,-6.7275087,480.3208,272.01)" d="M 0 0 C -.062 -.058 -.139 -.072 -.217 0 L -1.02 .772 C -1.036 .789 -1.036 .806 -1.031 .814 L -.546 1.315 C -.44 1.427 -.328 1.58 -.445 1.739 C -.518 1.642 -.618 1.528 -.725 1.416 L -1.159 .959 C -1.176 .948 -1.186 .934 -1.204 .954 L -1.867 1.586 C -1.962 1.675 -2.012 1.751 -2.028 1.784 C -2.028 1.784 -1.984 1.842 -1.9 1.932 C -1.398 2.447 -1.186 2.428 -.858 2.277 L -.858 2.28 C -.975 2.494 -1.182 2.712 -1.281 2.807 L -2.525 1.514 C -2.447 1.528 -2.357 1.533 -2.257 1.438 L -.434 -.308 C -.324 -.418 -.328 -.506 -.34 -.582 L .93 .742 C .842 .895 .624 1.16 .429 1.35 L .418 1.344 C .602 .984 .641 .666 .167 .172 Z "/>
</g>
<clipPath id="cp33">
<path transform="matrix(6.7275087,0,0,-6.7275087,-1292.2988,3319.707)" d="M 144.066 318.898 L 336.615 318.898 L 336.615 507.756 L 144.066 507.756 Z "/>
</clipPath>
<g clip-path="url(#cp33)">
<path transform="matrix(6.7275087,0,0,-6.7275087,464.1648,261.45924)" d="M 0 0 C .065 -.009 .123 -.041 .18 -.093 L 2.002 -1.84 C 2.069 -1.907 2.1 -1.967 2.112 -2.025 L 3.269 -.819 C 3.2 -.712 3.083 -.563 2.958 -.426 C 3.053 -.728 2.993 -1.027 2.606 -1.431 L 2.438 -1.603 C 2.349 -1.688 2.239 -1.688 2.15 -1.605 L 1.346 -.833 C 1.31 -.795 1.311 -.752 1.328 -.727 L 1.819 -.218 C 1.932 -.098 1.974 -.006 1.948 .078 C 1.885 0 1.805 -.091 1.714 -.187 L 1.265 -.655 C 1.255 -.663 1.238 -.675 1.214 -.675 C 1.2 -.675 1.179 -.67 1.16 -.649 L .5 -.019 C .407 .068 .35 .148 .327 .193 L .314 .221 L .333 .246 C .335 .248 .38 .308 .464 .398 C .778 .721 .994 .852 1.209 .852 C 1.281 .852 1.353 .837 1.421 .813 C 1.331 .944 1.215 1.073 1.121 1.167 Z M 1.988 -2.301 L 2.012 -2.142 C 2.023 -2.071 2.024 -2.003 1.932 -1.913 L .109 -.167 C .044 -.105 -.009 -.097 -.048 -.097 C -.071 -.097 -.093 -.1 -.114 -.104 L -.267 -.132 L 1.119 1.31 L 1.155 1.275 C 1.203 1.23 1.45 .99 1.588 .736 L 1.594 .712 L 1.594 .633 L 1.522 .663 C 1.406 .716 1.309 .751 1.209 .751 C 1.024 .751 .83 .629 .537 .328 C .49 .277 .455 .236 .434 .211 C .458 .175 .501 .118 .57 .055 L 1.217 -.564 L 1.641 -.117 C 1.754 .003 1.85 .113 1.916 .201 L 1.956 .256 L 1.996 .201 C 2.154 -.012 1.957 -.22 1.892 -.288 L 1.426 -.769 L 2.22 -1.532 C 2.269 -1.578 2.318 -1.578 2.367 -1.532 L 2.532 -1.359 C 2.975 -.899 2.957 -.603 2.774 -.248 L 2.752 -.204 L 2.828 -.162 L 2.866 -.182 C 3.063 -.374 3.282 -.64 3.376 -.801 L 3.395 -.834 Z "/>
</g>
<clipPath id="cp34">
<path transform="matrix(6.7275087,0,0,-6.7275087,-1292.2988,3319.707)" d="M 144.066 318.898 L 336.615 318.898 L 336.615 507.756 L 144.066 507.756 Z "/>
</clipPath>
<g clip-path="url(#cp34)">
<path transform="matrix(6.7275087,0,0,-6.7275087,463.63734,286.30836)" d="M 0 0 C -.285 -.225 -.435 -.229 -.657 .047 L -1.906 1.613 C -2.034 1.774 -2.04 1.817 -2.04 1.817 C -2.04 1.817 -1.989 1.878 -1.889 1.953 C -1.154 2.541 -.39 2.388 .128 1.736 C .613 1.132 .574 .46 0 0 M .335 2.124 C -.234 2.831 -1.07 2.817 -1.878 2.168 L -2.564 1.624 C -2.492 1.63 -2.397 1.622 -2.307 1.516 L -.736 -.456 C -.641 -.577 -.657 -.669 -.68 -.741 L .066 -.151 C .836 .465 .914 1.399 .335 2.124 "/>
</g>
<clipPath id="cp35">
<path transform="matrix(6.7275087,0,0,-6.7275087,-1292.2988,3319.707)" d="M 144.066 318.898 L 336.615 318.898 L 336.615 507.756 L 144.066 507.756 Z "/>
</clipPath>
<g clip-path="url(#cp35)">
<path transform="matrix(6.7275087,0,0,-6.7275087,450.31288,274.15943)" d="M 0 0 C .013 -.024 .044 -.073 .115 -.161 L 1.363 -1.728 C 1.472 -1.862 1.556 -1.921 1.642 -1.921 C 1.72 -1.921 1.815 -1.873 1.949 -1.766 C 2.218 -1.55 2.371 -1.281 2.391 -.989 C 2.412 -.696 2.3 -.389 2.069 -.101 C 1.776 .267 1.415 .464 1.026 .464 C .722 .464 .418 .343 .123 .108 C .063 .063 .022 .024 0 0 M 1.642 -2.022 C 1.522 -2.022 1.414 -1.952 1.284 -1.791 L .035 -.225 C -.053 -.112 -.104 -.032 -.109 .004 L -.112 .025 L -.098 .043 C -.096 .046 -.043 .109 .061 .188 C .373 .437 .698 .564 1.026 .564 C 1.441 .564 1.839 .35 2.148 -.038 C 2.395 -.346 2.515 -.677 2.493 -.995 C 2.47 -1.318 2.304 -1.612 2.012 -1.845 C 1.857 -1.969 1.747 -2.022 1.642 -2.022 M -.453 -.144 C -.391 -.162 -.336 -.199 -.288 -.258 L 1.285 -2.231 C 1.342 -2.304 1.365 -2.37 1.368 -2.428 L 2.016 -1.917 C 2.742 -1.336 2.848 -.43 2.276 .286 C 2.007 .621 1.664 .798 1.285 .798 C .919 .798 .521 .634 .134 .323 Z M 1.204 -2.688 L 1.252 -2.531 C 1.273 -2.466 1.285 -2.395 1.206 -2.294 L -.366 -.322 C -.448 -.225 -.527 -.229 -.579 -.233 L -.744 -.245 L .071 .402 C .476 .727 .896 .899 1.285 .899 C 1.696 .899 2.065 .709 2.355 .35 C 2.965 -.413 2.852 -1.378 2.079 -1.996 Z "/>
</g>
<clipPath id="cp36">
<path transform="matrix(6.7275087,0,0,-6.7275087,-1292.2988,3319.707)" d="M 144.066 318.898 L 336.615 318.898 L 336.615 507.756 L 144.066 507.756 Z "/>
</clipPath>
<g clip-path="url(#cp36)">
<path transform="matrix(6.7275087,0,0,-6.7275087,441.7771,292.51319)" d="M 0 0 C -.178 -.093 -.328 -.162 -.418 -.2 L -.423 -.14 L -.674 1.315 L .463 .248 C .351 .186 .162 .083 0 0 M 1.394 -.116 L -.741 1.879 L -1.003 1.616 C -.969 1.594 -.919 1.54 -.892 1.482 C -.875 1.451 -.852 1.396 -.841 1.341 L -.601 -.224 L -.495 -1.173 C -.473 -1.365 -.518 -1.455 -.608 -1.561 L -.123 -1.316 C -.167 -1.307 -.189 -1.274 -.206 -1.24 C -.222 -1.21 -.24 -1.137 -.251 -1.067 L -.384 -.374 C -.324 -.338 -.178 -.248 .062 -.128 C .301 -.006 .513 .083 .597 .123 L 1.115 -.357 C 1.22 -.455 1.249 -.566 1.232 -.63 L 1.795 -.346 C 1.633 -.338 1.572 -.287 1.394 -.116 "/>
</g>
<clipPath id="cp37">
<path transform="matrix(6.7275087,0,0,-6.7275087,-1292.2988,3319.707)" d="M 144.066 318.898 L 336.615 318.898 L 336.615 507.756 L 144.066 507.756 Z "/>
</clipPath>
<g clip-path="url(#cp37)">
<path transform="matrix(6.7275087,0,0,-6.7275087,437.7539,284.61134)" d="M 0 0 L .224 -1.3 C .302 -1.266 .426 -1.207 .575 -1.13 C .71 -1.06 .864 -.978 .975 -.916 Z M .137 -1.449 L .125 -1.319 L -.151 .281 L 1.146 -.938 L 1.085 -.971 C .974 -1.033 .784 -1.136 .622 -1.22 C .418 -1.324 .259 -1.395 .201 -1.422 Z M -.33 .445 C -.3 .415 -.269 .373 -.248 .329 C -.23 .297 -.206 .236 -.193 .176 L .047 -1.391 L .153 -2.342 C .166 -2.455 .157 -2.538 .13 -2.608 L .376 -2.484 C .361 -2.466 .352 -2.447 .347 -2.438 C .322 -2.392 .304 -2.291 .297 -2.25 L .157 -1.523 L .202 -1.496 C .271 -1.455 .414 -1.368 .638 -1.258 C .819 -1.164 .983 -1.092 1.092 -1.043 C 1.126 -1.028 1.153 -1.016 1.174 -1.006 L 1.205 -.992 L 1.747 -1.494 C 1.827 -1.568 1.868 -1.652 1.881 -1.722 L 2.238 -1.542 C 2.15 -1.508 2.077 -1.443 1.957 -1.327 L -.142 .633 Z M -.207 -2.892 L -.048 -2.702 C .036 -2.602 .072 -2.525 .052 -2.354 L -.054 -1.403 L -.293 .158 C -.303 .206 -.323 .256 -.338 .283 C -.364 .337 -.408 .383 -.433 .399 L -.484 .433 L -.144 .774 L 2.027 -1.255 C 2.208 -1.428 2.256 -1.462 2.395 -1.47 L 2.586 -1.479 L 1.754 -1.9 L 1.781 -1.792 C 1.792 -1.75 1.773 -1.656 1.679 -1.569 L 1.186 -1.112 C 1.17 -1.118 1.153 -1.126 1.134 -1.136 C 1.026 -1.183 .863 -1.256 .683 -1.348 C .478 -1.451 .343 -1.53 .27 -1.574 L .397 -2.232 C .411 -2.316 .427 -2.373 .437 -2.39 C .453 -2.424 .466 -2.436 .486 -2.441 L .63 -2.469 Z "/>
</g>
<clipPath id="cp38">
<path transform="matrix(6.7275087,0,0,-6.7275087,-1292.2988,3319.707)" d="M 144.066 318.898 L 336.615 318.898 L 336.615 507.756 L 144.066 507.756 Z "/>
</clipPath>
<g clip-path="url(#cp38)">
<path transform="matrix(6.7275087,0,0,-6.7275087,421.57093,306.5354)" d="M 0 0 C -.351 -.081 -.49 -.017 -.568 .329 L -1.009 2.284 C -1.054 2.482 -1.036 2.525 -1.036 2.525 C -1.036 2.525 -.964 2.555 -.847 2.583 C .067 2.789 .697 2.316 .875 1.508 C 1.048 .753 .719 .161 0 0 M 1.232 1.764 C 1.031 2.644 .267 2.998 -.741 2.773 L -1.599 2.58 C -1.527 2.55 -1.444 2.503 -1.416 2.368 L -.858 -.095 C -.825 -.243 -.88 -.315 -.931 -.373 L -.006 -.165 C .959 .054 1.432 .856 1.232 1.764 "/>
</g>
<clipPath id="cp39">
<path transform="matrix(6.7275087,0,0,-6.7275087,-1292.2988,3319.707)" d="M 144.066 318.898 L 336.615 318.898 L 336.615 507.756 L 144.066 507.756 Z "/>
</clipPath>
<g clip-path="url(#cp39)">
<path transform="matrix(6.7275087,0,0,-6.7275087,414.91346,289.7942)" d="M 0 0 C .001 -.025 .006 -.083 .031 -.192 L .471 -2.148 C .532 -2.417 .624 -2.47 .764 -2.47 C .82 -2.47 .891 -2.459 .978 -2.439 C 1.3 -2.367 1.548 -2.204 1.697 -1.967 C 1.861 -1.707 1.902 -1.37 1.815 -.992 C 1.665 -.313 1.194 .092 .554 .092 C .426 .092 .292 .076 .154 .045 C .084 .028 .03 .011 0 0 M .764 -2.571 C .55 -2.571 .436 -2.455 .372 -2.171 L -.068 -.215 C -.111 -.029 -.102 .033 -.093 .055 L -.085 .074 L -.066 .082 C -.063 .084 .011 .116 .13 .144 C .277 .177 .418 .193 .554 .193 C 1.245 .193 1.754 -.242 1.913 -.97 C 2.007 -1.373 1.961 -1.737 1.783 -2.02 C 1.618 -2.281 1.349 -2.46 1.001 -2.538 C .904 -2.56 .829 -2.571 .764 -2.571 M -.476 .07 C -.432 .03 -.394 -.025 -.376 -.11 L .181 -2.572 C .202 -2.664 .191 -2.732 .169 -2.785 L .973 -2.604 C 1.891 -2.397 2.373 -1.645 2.171 -.736 C 2.019 -.068 1.537 .3 .812 .3 C .638 .3 .452 .278 .259 .234 Z M -.078 -2.945 L .021 -2.829 C .063 -2.78 .111 -2.723 .082 -2.595 L -.475 -.131 C -.499 -.018 -.567 .019 -.63 .045 L -.776 .106 L .237 .334 C .438 .378 .631 .401 .812 .401 C 1.578 .401 2.11 -.005 2.27 -.714 C 2.481 -1.667 1.957 -2.485 .995 -2.702 Z "/>
</g>
<clipPath id="cp40">
<path transform="matrix(6.7275087,0,0,-6.7275087,-1292.2988,3319.707)" d="M 144.066 318.898 L 336.615 318.898 L 336.615 507.756 L 144.066 507.756 Z "/>
</clipPath>
<g clip-path="url(#cp40)">
<path transform="matrix(6.7275087,0,0,-6.7275087,401.365,310.30348)" d="M 0 0 L .635 .047 C .535 .109 .496 .172 .49 .295 L .306 2.795 C .296 2.917 .334 2.992 .418 3.068 L -.218 3.02 C -.117 2.958 -.078 2.895 -.067 2.772 L .112 .271 C .122 .147 .089 .073 0 0 "/>
</g>
<clipPath id="cp41">
<path transform="matrix(6.7275087,0,0,-6.7275087,-1292.2988,3319.707)" d="M 144.066 318.898 L 336.615 318.898 L 336.615 507.756 L 144.066 507.756 Z "/>
</clipPath>
<g clip-path="url(#cp41)">
<path transform="matrix(6.7275087,0,0,-6.7275087,400.76344,290.2622)" d="M 0 0 C .044 -.052 .065 -.115 .073 -.202 L .251 -2.705 C .259 -2.791 .247 -2.859 .21 -2.919 L .597 -2.89 C .554 -2.837 .533 -2.773 .529 -2.686 L .346 -.188 C .338 -.103 .351 -.033 .39 .029 Z M -.067 -3.041 L .057 -2.939 C .135 -2.876 .159 -2.817 .15 -2.713 L -.028 -.21 C -.038 -.104 -.067 -.055 -.155 -.002 L -.288 .081 L .65 .15 L .541 .051 C .462 -.02 .437 -.081 .446 -.18 L .631 -2.68 C .635 -2.786 .664 -2.835 .752 -2.889 L .885 -2.971 Z "/>
</g>
<clipPath id="cp42">
<path transform="matrix(6.7275087,0,0,-6.7275087,-1292.2988,3319.707)" d="M 144.066 318.898 L 336.615 318.898 L 336.615 507.756 L 144.066 507.756 Z "/>
</clipPath>
<g clip-path="url(#cp42)">
<path transform="matrix(6.7275087,0,0,-6.7275087,389.55677,300.61256)" d="M 0 0 L -.095 -.708 L -.168 -.569 L -1.795 1.959 L -1.812 1.689 L -2.179 -.778 C -2.196 -.91 -2.252 -.986 -2.38 -1.048 L -1.822 -1.123 C -1.951 -1.025 -1.967 -.942 -1.956 -.805 L -1.828 .35 L -1.728 1.159 L -1.672 1.056 L -.045 -1.437 L .373 1.346 C .39 1.48 .445 1.554 .573 1.613 L .017 1.689 C .139 1.597 .167 1.51 .15 1.371 Z "/>
</g>
<clipPath id="cp43">
<path transform="matrix(6.7275087,0,0,-6.7275087,-1292.2988,3319.707)" d="M 144.066 318.898 L 336.615 318.898 L 336.615 507.756 L 144.066 507.756 Z "/>
</clipPath>
<g clip-path="url(#cp43)">
<path transform="matrix(6.7275087,0,0,-6.7275087,377.72096,291.71998)" d="M 0 0 L .132 -.242 L 1.684 -2.62 L 2.083 .032 C 2.095 .131 2.128 .202 2.19 .259 L 1.914 .297 C 1.959 .228 1.972 .149 1.959 .043 L 1.809 -1.327 L 1.694 -2.194 L 1.546 -1.914 L .006 .48 L -.002 .364 L -.37 -2.107 C -.383 -2.207 -.416 -2.28 -.479 -2.337 L -.201 -2.376 C -.249 -2.301 -.255 -2.223 -.248 -2.123 L -.119 -.965 Z M 1.745 -2.898 L .063 -.321 L -.019 -.978 L -.147 -2.133 C -.157 -2.255 -.143 -2.321 -.032 -2.405 L .119 -2.521 L -.795 -2.397 L -.642 -2.324 C -.53 -2.27 -.485 -2.21 -.471 -2.093 L -.103 .375 L -.077 .794 L 1.635 -1.865 L 1.709 -1.315 L 1.859 .055 C 1.875 .185 1.847 .25 1.745 .326 L 1.59 .443 L 2.513 .318 L 2.354 .245 C 2.242 .195 2.197 .134 2.182 .017 Z "/>
</g>
<clipPath id="cp44">
<path transform="matrix(6.7275087,0,0,-6.7275087,-1292.2988,3319.707)" d="M 144.066 318.898 L 336.615 318.898 L 336.615 507.756 L 144.066 507.756 Z "/>
</clipPath>
<g clip-path="url(#cp44)">
<path transform="matrix(6.7275087,0,0,-6.7275087,360.53224,295.8125)" d="M 0 0 C -.183 .072 -.334 .138 -.422 .175 L -.384 .225 L .547 1.371 L .497 -.186 C .38 -.14 .173 -.073 0 0 M .346 -1.343 L .931 -1.575 C .831 -1.447 .825 -1.371 .836 -1.126 L .925 1.795 L .552 1.819 C .563 1.777 .552 1.708 .529 1.649 C .513 1.616 .485 1.564 .452 1.518 L -.562 .301 L -1.203 -.404 C -1.331 -.547 -1.432 -.573 -1.571 -.577 L -1.064 -.784 C -1.086 -.741 -1.076 -.699 -1.064 -.667 C -1.047 -.632 -1.003 -.571 -.963 -.515 L -.529 .042 C -.467 .02 -.301 -.031 -.05 -.131 C .201 -.232 .407 -.328 .491 -.368 L .474 -1.077 C .468 -1.215 .402 -1.312 .346 -1.343 "/>
</g>
<clipPath id="cp45">
<path transform="matrix(6.7275087,0,0,-6.7275087,-1292.2988,3319.707)" d="M 144.066 318.898 L 336.615 318.898 L 336.615 507.756 L 144.066 507.756 Z "/>
</clipPath>
<g clip-path="url(#cp45)">
<path transform="matrix(6.7275087,0,0,-6.7275087,358.22877,294.4878)" d="M 0 0 C .016 -.006 .032 -.014 .05 -.021 C .134 -.057 .24 -.103 .362 -.15 C .463 -.193 .577 -.234 .677 -.269 C .717 -.285 .756 -.297 .791 -.31 L .834 1.025 Z M .888 -.457 L .82 -.43 C .773 -.411 .711 -.389 .643 -.365 C .542 -.329 .427 -.288 .324 -.244 C .202 -.196 .095 -.15 .01 -.115 C -.032 -.097 -.07 -.081 -.1 -.068 L -.161 -.044 L -.082 .059 L .944 1.323 Z M .782 -1.523 L 1.155 -1.671 C 1.121 -1.582 1.121 -1.486 1.128 -1.321 L 1.216 1.55 L .949 1.568 C .947 1.52 .933 1.471 .919 1.435 C .899 1.392 .869 1.338 .834 1.291 L -.181 .071 L -.823 -.635 C -.901 -.721 -.97 -.769 -1.043 -.794 L -.783 -.9 C -.78 -.878 -.774 -.859 -.77 -.846 C -.752 -.81 -.718 -.763 -.683 -.712 L -.663 -.683 L -.204 -.095 L -.169 -.108 C -.154 -.114 -.132 -.12 -.104 -.13 C -.019 -.158 .123 -.206 .312 -.282 C .564 -.381 .768 -.478 .855 -.519 L .885 -.533 L .867 -1.274 C .863 -1.38 .827 -1.467 .782 -1.523 M 1.428 -1.887 L .57 -1.547 L .664 -1.496 C .701 -1.476 .761 -1.397 .766 -1.271 L .782 -.596 C .684 -.551 .498 -.465 .274 -.375 C .089 -.301 -.051 -.255 -.135 -.226 C -.148 -.221 -.159 -.218 -.169 -.215 L -.6 -.77 C -.63 -.813 -.664 -.861 -.676 -.886 C -.684 -.911 -.689 -.934 -.677 -.957 L -.611 -1.08 L -1.475 -.728 L -1.229 -.723 C -1.101 -.72 -1.014 -.696 -.899 -.567 L -.258 .138 L .755 1.354 C .784 1.392 .81 1.441 .827 1.474 C .847 1.528 .852 1.585 .846 1.609 L .827 1.677 L 1.32 1.645 L 1.229 -1.324 C 1.219 -1.565 1.224 -1.626 1.313 -1.74 Z "/>
</g>
<clipPath id="cp46">
<path transform="matrix(6.7275087,0,0,-6.7275087,-1292.2988,3319.707)" d="M 144.066 318.898 L 336.615 318.898 L 336.615 507.756 L 144.066 507.756 Z "/>
</clipPath>
<g clip-path="url(#cp46)">
<path transform="matrix(6.7275087,0,0,-6.7275087,329.15663,286.14283)" d="M 0 0 C -.017 .065 -.006 .142 .078 .251 L .853 1.259 L 1.198 1.661 L 1.226 1.715 L .891 -.565 L 2.836 .65 L 2.792 .592 L 1.984 -.978 C 1.917 -1.111 1.816 -1.179 1.739 -1.164 L 2.251 -1.51 C 2.224 -1.423 2.213 -1.329 2.296 -1.175 L 3.561 1.302 L 3.555 1.304 L 1.331 -.085 L 1.716 2.542 L 1.711 2.542 L .846 1.519 L -.123 .407 C -.19 .327 -.285 .259 -.401 .271 Z "/>
</g>
<clipPath id="cp47">
<path transform="matrix(6.7275087,0,0,-6.7275087,-1292.2988,3319.707)" d="M 144.066 318.898 L 336.615 318.898 L 336.615 507.756 L 144.066 507.756 Z "/>
</clipPath>
<g clip-path="url(#cp47)">
<path transform="matrix(6.7275087,0,0,-6.7275087,341.6947,294.13673)" d="M 0 0 L .316 -.214 C .315 -.146 .332 -.065 .388 .037 L 1.574 2.359 L -.598 1.001 L -.222 3.569 L -.978 2.674 L -1.948 1.561 C -2.002 1.497 -2.063 1.452 -2.128 1.427 L -1.917 1.285 C -1.906 1.343 -1.876 1.404 -1.826 1.47 L -1.051 2.479 L -.704 2.882 L -.683 2.927 L -.545 3.186 L -.906 .724 L 1.179 2.027 L .968 1.748 L .165 .187 C .122 .101 .063 .036 0 0 M .48 -.446 L -.354 .117 L -.116 .074 L -.114 .074 C -.054 .074 .02 .123 .075 .233 L .823 1.685 L -1.038 .522 L -.717 2.714 L -.973 2.414 L -1.746 1.408 C -1.828 1.302 -1.825 1.239 -1.815 1.201 L -1.782 1.073 L -2.459 1.529 L -2.26 1.509 C -2.156 1.497 -2.074 1.569 -2.025 1.628 L -1.055 2.74 L -.176 3.78 L -.094 3.78 L -.097 3.722 L -.466 1.203 L 1.687 2.549 L 1.761 2.517 L 1.743 2.466 L .477 -.009 C .398 -.157 .413 -.237 .436 -.307 Z "/>
</g>
<clipPath id="cp48">
<path transform="matrix(6.7275087,0,0,-6.7275087,-1292.2988,3319.707)" d="M 144.066 318.898 L 336.615 318.898 L 336.615 507.756 L 144.066 507.756 Z "/>
</clipPath>
<g clip-path="url(#cp48)">
<path transform="matrix(6.7275087,0,0,-6.7275087,314.57008,273.45167)" d="M 0 0 C .479 -.534 1.092 -.463 1.65 .039 C 2.418 .728 2.519 .817 2.842 1.062 C 2.937 1.134 3.009 1.162 3.121 1.134 L 2.775 1.519 C 2.792 1.404 2.759 1.338 2.675 1.246 C 2.385 .948 2.28 .848 1.482 .131 C 1.087 -.222 .585 -.298 .206 .126 C -.178 .552 -.034 .953 .335 1.282 L 1.611 2.43 C 1.705 2.511 1.777 2.53 1.895 2.506 L 1.466 2.984 C 1.476 2.87 1.449 2.793 1.36 2.714 L .084 1.569 C -.49 1.056 -.49 .547 0 0 "/>
</g>
<clipPath id="cp49">
<path transform="matrix(6.7275087,0,0,-6.7275087,-1292.2988,3319.707)" d="M 144.066 318.898 L 336.615 318.898 L 336.615 507.756 L 144.066 507.756 Z "/>
</clipPath>
<g clip-path="url(#cp49)">
<path transform="matrix(6.7275087,0,0,-6.7275087,324.72914,254.21631)" d="M 0 0 C -.016 -.07 -.054 -.127 -.117 -.183 L -1.392 -1.328 C -1.664 -1.57 -1.803 -1.808 -1.816 -2.053 C -1.83 -2.3 -1.717 -2.552 -1.472 -2.825 C -1.262 -3.059 -1.022 -3.178 -.759 -3.178 C -.482 -3.178 -.182 -3.042 .106 -2.782 C .883 -2.086 .979 -2.001 1.302 -1.757 C 1.356 -1.716 1.415 -1.677 1.49 -1.667 L 1.311 -1.467 C 1.295 -1.533 1.257 -1.588 1.202 -1.647 C .916 -1.942 .812 -2.042 .006 -2.765 C -.219 -2.968 -.466 -3.073 -.706 -3.073 C -.943 -3.073 -1.163 -2.968 -1.342 -2.767 C -1.511 -2.58 -1.591 -2.384 -1.58 -2.187 C -1.569 -1.967 -1.444 -1.749 -1.21 -1.539 L .066 -.392 C .136 -.332 .196 -.302 .264 -.295 Z M -.759 -3.279 L -.759 -3.279 C -1.052 -3.279 -1.317 -3.149 -1.548 -2.893 C -1.811 -2.599 -1.932 -2.322 -1.917 -2.048 C -1.902 -1.773 -1.752 -1.513 -1.46 -1.252 L -.184 -.107 C -.109 -.042 -.085 .02 -.095 .12 L -.11 .273 L .527 -.436 L .374 -.403 C .271 -.38 .218 -.394 .133 -.468 L -1.141 -1.615 C -1.356 -1.806 -1.469 -2 -1.479 -2.193 C -1.489 -2.362 -1.417 -2.532 -1.266 -2.7 C -1.104 -2.881 -.916 -2.972 -.706 -2.972 C -.491 -2.972 -.268 -2.874 -.062 -2.691 C .747 -1.964 .842 -1.874 1.129 -1.578 C 1.209 -1.49 1.228 -1.438 1.215 -1.348 L 1.19 -1.181 L 1.759 -1.814 L 1.599 -1.774 C 1.51 -1.751 1.458 -1.765 1.363 -1.838 C 1.043 -2.08 .948 -2.164 .173 -2.858 C -.134 -3.134 -.456 -3.279 -.759 -3.279 "/>
</g>
<clipPath id="cp50">
<path transform="matrix(6.7275087,0,0,-6.7275087,-1292.2988,3319.707)" d="M 144.066 318.898 L 336.615 318.898 L 336.615 507.756 L 144.066 507.756 Z "/>
</clipPath>
<g clip-path="url(#cp50)">
<path transform="matrix(6.7275087,0,0,-6.7275087,296.31227,245.61182)" d="M 0 0 L .318 -.558 C .328 -.441 .368 -.373 .474 -.315 L 1.5 .267 C 1.766 -.14 2.006 -.558 2.218 -1 L 1.193 -1.577 C 1.087 -1.639 1.009 -1.641 .903 -1.594 L 1.221 -2.148 C 1.232 -2.031 1.276 -1.967 1.383 -1.906 L 3.561 -.666 C 3.673 -.605 3.745 -.602 3.851 -.655 L 3.539 -.095 C 3.522 -.212 3.483 -.282 3.378 -.337 L 2.38 -.903 C 2.112 -.496 1.872 -.078 1.66 .359 L 2.659 .928 C 2.764 .986 2.842 .989 2.948 .939 L 2.63 1.493 C 2.62 1.379 2.58 1.315 2.469 1.251 L .289 .014 C .179 -.05 .106 -.05 0 0 "/>
</g>
<clipPath id="cp51">
<path transform="matrix(6.7275087,0,0,-6.7275087,-1292.2988,3319.707)" d="M 144.066 318.898 L 336.615 318.898 L 336.615 507.756 L 144.066 507.756 Z "/>
</clipPath>
<g clip-path="url(#cp51)">
<path transform="matrix(6.7275087,0,0,-6.7275087,303.09693,256.88844)" d="M 0 0 L .194 -.339 C .223 -.277 .272 -.23 .349 -.186 L 2.527 1.054 C 2.61 1.099 2.671 1.115 2.736 1.108 L 2.546 1.448 C 2.516 1.381 2.468 1.334 2.393 1.294 L 1.355 .706 L 1.329 .745 C 1.053 1.165 .817 1.58 .607 2.013 L .585 2.056 L 1.625 2.648 C 1.701 2.69 1.766 2.706 1.833 2.7 L 1.641 3.036 C 1.611 2.974 1.562 2.928 1.486 2.883 L -.694 1.646 C -.772 1.601 -.833 1.583 -.902 1.591 L -.71 1.255 C -.682 1.318 -.634 1.365 -.559 1.406 L .507 2.011 L .533 1.971 C .813 1.546 1.049 1.129 1.255 .698 L 1.275 .655 L .209 .055 C .133 .011 .069 -.007 0 0 M .248 -.636 L -.227 .192 L -.085 .128 C .011 .085 .066 .089 .158 .143 L 1.143 .697 C .951 1.095 .731 1.482 .475 1.876 L -.51 1.317 C -.598 1.268 -.631 1.217 -.641 1.114 L -.655 .954 L -1.131 1.79 L -.986 1.722 C -.888 1.675 -.84 1.679 -.744 1.734 L 1.435 2.971 C 1.53 3.026 1.561 3.073 1.572 3.174 L 1.587 3.333 L 2.065 2.5 L 1.918 2.569 C 1.823 2.614 1.769 2.612 1.675 2.56 L .718 2.015 C .915 1.614 1.134 1.229 1.387 .841 L 2.344 1.383 C 2.431 1.429 2.465 1.481 2.48 1.588 L 2.501 1.738 L 2.966 .903 L 2.82 .976 C 2.725 1.023 2.678 1.02 2.577 .966 L .399 -.274 C .306 -.327 .271 -.378 .263 -.477 Z "/>
</g>
<clipPath id="cp52">
<path transform="matrix(6.7275087,0,0,-6.7275087,-1292.2988,3319.707)" d="M 144.066 318.898 L 336.615 318.898 L 336.615 507.756 L 144.066 507.756 Z "/>
</clipPath>
<g clip-path="url(#cp52)">
<path transform="matrix(6.7275087,0,0,-6.7275087,398.4485,272.92408)" d="M 0 0 C 5.917 .054 10.704 4.933 10.642 10.85 C 10.586 16.774 5.712 21.556 -.21 21.5 C -6.131 21.444 -10.914 16.57 -10.857 10.647 C -10.796 4.726 -5.922 -.055 0 0 M -.18 18.345 L .991 14.998 L 3.628 17.364 L 2.969 13.885 L 6.437 14.61 L 4.124 11.928 L 7.49 10.824 L 4.144 9.654 L 6.509 7.015 L 3.025 7.677 L 3.756 4.207 L 1.073 6.522 L -.031 3.155 L -1.201 6.499 L -3.837 4.136 L -3.178 7.618 L -6.647 6.89 L -4.332 9.575 L -7.7 10.678 L -4.353 11.846 L -6.719 14.485 L -3.239 13.823 L -3.965 17.29 L -1.282 14.978 Z " fill-rule="evenodd"/>
</g>
<clipPath id="cp53">
<path transform="matrix(6.7275087,0,0,-6.7275087,-1292.2988,3319.707)" d="M 144.066 318.898 L 336.615 318.898 L 336.615 507.756 L 144.066 507.756 Z "/>
</clipPath>
<g clip-path="url(#cp53)">
<path transform="matrix(6.7275087,0,0,-6.7275087,379.92433,500.69606)" d="M 0 0 L 5.459 0 C 6.383 .079 7.294 .199 8.194 .358 L -2.731 .358 C -1.835 .199 -.923 .079 0 0 " fill-rule="evenodd"/>
</g>
<clipPath id="cp54">
<path transform="matrix(6.7275087,0,0,-6.7275087,-1292.2988,3319.707)" d="M 144.066 318.898 L 336.615 318.898 L 336.615 507.756 L 144.066 507.756 Z "/>
</clipPath>
<g clip-path="url(#cp54)">
<path transform="matrix(6.7275087,0,0,-6.7275087,317.66737,485.33766)" d="M 0 0 L 23.967 0 C 24.3 .139 24.628 .286 24.953 .434 L -.986 .434 C -.661 .286 -.332 .139 0 0 " fill-rule="evenodd"/>
</g>
<clipPath id="cp55">
<path transform="matrix(6.7275087,0,0,-6.7275087,-1292.2988,3319.707)" d="M 144.066 318.898 L 336.615 318.898 L 336.615 507.756 L 144.066 507.756 Z "/>
</clipPath>
<g clip-path="url(#cp55)">
<path transform="matrix(6.7275087,0,0,-6.7275087,288.05287,469.979)" d="M 0 0 L 32.776 0 C 33.041 .166 33.308 .337 33.57 .511 L -.794 .511 C -.532 .337 -.27 .166 0 0 " fill-rule="evenodd"/>
</g>
<clipPath id="cp56">
<path transform="matrix(6.7275087,0,0,-6.7275087,-1292.2988,3319.707)" d="M 144.066 318.898 L 336.615 318.898 L 336.615 507.756 L 144.066 507.756 Z "/>
</clipPath>
<g clip-path="url(#cp56)">
<path transform="matrix(6.7275087,0,0,-6.7275087,266.5962,454.62208)" d="M 0 0 L 39.154 0 C 39.389 .195 39.624 .388 39.855 .587 L -.7 .587 C -.473 .388 -.238 .195 0 0 " fill-rule="evenodd"/>
</g>
<clipPath id="cp57">
<path transform="matrix(6.7275087,0,0,-6.7275087,-1292.2988,3319.707)" d="M 144.066 318.898 L 336.615 318.898 L 336.615 507.756 L 144.066 507.756 Z "/>
</clipPath>
<g clip-path="url(#cp57)">
<path transform="matrix(6.7275087,0,0,-6.7275087,249.74768,439.25294)" d="M 0 0 L 44.163 0 C 44.377 .217 44.589 .44 44.797 .664 L -.634 .664 C -.426 .44 -.215 .217 0 0 " fill-rule="evenodd"/>
</g>
<clipPath id="cp58">
<path transform="matrix(6.7275087,0,0,-6.7275087,-1292.2988,3319.707)" d="M 144.066 318.898 L 336.615 318.898 L 336.615 507.756 L 144.066 507.756 Z "/>
</clipPath>
<g clip-path="url(#cp58)">
<path transform="matrix(6.7275087,0,0,-6.7275087,236.06128,423.89479)" d="M 0 0 L 48.231 0 C 48.428 .244 48.623 .49 48.811 .742 L -.583 .742 C -.392 .49 -.199 .244 0 0 " fill-rule="evenodd"/>
</g>
<clipPath id="cp59">
<path transform="matrix(6.7275087,0,0,-6.7275087,-1292.2988,3319.707)" d="M 144.066 318.898 L 336.615 318.898 L 336.615 507.756 L 144.066 507.756 Z "/>
</clipPath>
<g clip-path="url(#cp59)">
<path transform="matrix(6.7275087,0,0,-6.7275087,224.76929,408.53663)" d="M 0 0 L 51.59 0 C 51.769 .271 51.941 .543 52.113 .818 L -.524 .818 C -.356 .543 -.18 .271 0 0 " fill-rule="evenodd"/>
</g>
<clipPath id="cp60">
<path transform="matrix(6.7275087,0,0,-6.7275087,-1292.2988,3319.707)" d="M 144.066 318.898 L 336.615 318.898 L 336.615 507.756 L 144.066 507.756 Z "/>
</clipPath>
<g clip-path="url(#cp60)">
<path transform="matrix(6.7275087,0,0,-6.7275087,215.45093,393.17823)" d="M 0 0 L 54.356 0 C 54.52 .294 54.676 .593 54.829 .895 L -.47 .895 C -.317 .593 -.161 .294 0 0 " fill-rule="evenodd"/>
</g>
<clipPath id="cp61">
<path transform="matrix(6.7275087,0,0,-6.7275087,-1292.2988,3319.707)" d="M 144.066 318.898 L 336.615 318.898 L 336.615 507.756 L 144.066 507.756 Z "/>
</clipPath>
<g clip-path="url(#cp61)">
<path transform="matrix(6.7275087,0,0,-6.7275087,207.84143,377.81007)" d="M 0 0 L 56.622 0 C 56.763 .32 56.895 .644 57.032 .968 L -.411 .968 C -.278 .644 -.141 .32 0 0 " fill-rule="evenodd"/>
</g>
<clipPath id="cp62">
<path transform="matrix(6.7275087,0,0,-6.7275087,-1292.2988,3319.707)" d="M 144.066 318.898 L 336.615 318.898 L 336.615 507.756 L 144.066 507.756 Z "/>
</clipPath>
<g clip-path="url(#cp62)">
<path transform="matrix(6.7275087,0,0,-6.7275087,201.73145,362.4519)" d="M 0 0 L 58.437 0 C 58.558 .346 58.676 .694 58.785 1.044 L -.352 1.044 C -.238 .694 -.125 .346 0 0 " fill-rule="evenodd"/>
</g>
<clipPath id="cp63">
<path transform="matrix(6.7275087,0,0,-6.7275087,-1292.2988,3319.707)" d="M 144.066 318.898 L 336.615 318.898 L 336.615 507.756 L 144.066 507.756 Z "/>
</clipPath>
<g clip-path="url(#cp63)">
<path transform="matrix(6.7275087,0,0,-6.7275087,196.96912,347.0835)" d="M 0 0 L 59.85 0 C 59.951 .37 60.045 .744 60.132 1.122 L -.278 1.122 C -.192 .744 -.098 .37 0 0 " fill-rule="evenodd"/>
</g>
<clipPath id="cp64">
<path transform="matrix(1,0,0,-1,0,595.276)" d="M 144.066 318.898 L 336.615 318.898 L 336.615 507.756 L 144.066 507.756 Z "/>
</clipPath>
<g clip-path="url(#cp64)">
<g id="Layer-1" data-name="PlacedGraphic">
</g>
</g>
<clipPath id="cp65">
<path transform="matrix(1,0,0,-1,0,595.276)" d="M 403.937 63.932 L 573.02407 63.932 L 573.02407 250.29901 L 403.937 250.29901 Z "/>
</clipPath>
<g clip-path="url(#cp65)">
<g id="Layer-1" data-name="PlacedGraphic">
</g>
</g>
<g id="Layer-1" data-name="Span">
</g>
</g>
</svg>
