<?xml version="1.0"?>
<svg width="841.89" height="595.276" xmlns="http://www.w3.org/2000/svg" xmlns:svg="http://www.w3.org/2000/svg" xmlns:se="http://svg-edit.googlecode.com">

 <g class="layer">
  <title>Layer 1</title>
  <g id="svg_1">
   <g data-name="PlacedGraphic" id="Layer-1"/>
   <clipPath fill="#ffffff" id="cp0" transform="translate(111.332, 4.69141) scale(1.02792, 1.02792) translate(-111.332, -4.69141) translate(108.308, 577.646) scale(1.0017, 1.0034) translate(-108.308, -577.646)">
    <path d="m144.066,318.898l192.549,0l0,188.858l-192.549,0l0,-188.858z" fill="#ffffff" id="svg_2" transform="matrix(6.7275087,0,0,-6.7275087,-1292.2988,3319.707)"/>
   </clipPath>
   <g clip-path="url(#cp0)" id="svg_3">
    <path d="m406.378697,532.510852c-129.162182,0 -233.885654,-104.880163 -233.885654,-234.282092c0,-129.381113 104.723472,-234.275153 233.885654,-234.275153c129.196817,0 233.878727,104.894041 233.878727,234.275153c0,129.401929 -104.68191,234.282092 -233.878727,234.282092m0,-529.820028c-162.931657,0 -295.044771,132.32317 -295.044771,295.537936c0,163.221705 132.113114,295.544875 295.044771,295.544875c162.959365,0 295.044771,-132.32317 295.044771,-295.544875c0,-163.214766 -132.085406,-295.537936 -295.044771,-295.537936" fill="#ffffff" fill-rule="evenodd" id="svg_4"/>
   </g>
   <clipPath fill="#ffffff" id="cp1" transform="translate(111.332, 4.69141) scale(1.02792, 1.02792) translate(-111.332, -4.69141) translate(108.308, 577.646) scale(1.0017, 1.0034) translate(-108.308, -577.646)">
    <path d="m144.066,318.898l192.549,0l0,188.858l-192.549,0l0,-188.858z" fill="#ffffff" id="svg_5" transform="matrix(6.7275087,0,0,-6.7275087,-1292.2988,3319.707)"/>
   </clipPath>
   <g clip-path="url(#cp1)" id="svg_6">
    <path d="m433.206541,104.059346c0.581874,0.659187 1.620935,4.544923 1.544737,5.780031c-0.73427,0.666126 -4.246295,1.665315 -5.791032,1.568172c-0.810467,-1.269803 -1.586299,-3.906552 -1.53781,-5.780031c1.073696,-0.638371 3.858379,-1.658376 5.784105,-1.568172" fill="#ffffff" id="svg_7"/>
   </g>
   <clipPath fill="#ffffff" id="cp2" transform="translate(111.332, 4.69141) scale(1.02792, 1.02792) translate(-111.332, -4.69141) translate(108.308, 577.646) scale(1.0017, 1.0034) translate(-108.308, -577.646)">
    <path d="m144.066,318.898l192.549,0l0,188.858l-192.549,0l0,-188.858z" fill="#ffffff" id="svg_8" transform="matrix(6.7275087,0,0,-6.7275087,-1292.2988,3319.707)"/>
   </clipPath>
   <g clip-path="url(#cp2)" id="svg_9">
    <path d="m506.630775,215.932477c0.658072,0.603677 2.043486,4.364514 2.085049,5.606561c-0.658072,0.735514 -4.093899,2.04695 -5.597074,2.123277c-0.962863,-1.235109 -1.925726,-3.760837 -2.085049,-5.627378c1.004425,-0.749392 3.629786,-2.026133 5.597074,-2.10246" fill="#ffffff" id="svg_10"/>
   </g>
   <clipPath fill="#ffffff" id="cp3" transform="translate(111.332, 4.69141) scale(1.02792, 1.02792) translate(-111.332, -4.69141) translate(108.308, 577.646) scale(1.0017, 1.0034) translate(-108.308, -577.646)">
    <path d="m144.066,318.898l192.549,0l0,188.858l-192.549,0l0,-188.858z" fill="#ffffff" id="svg_11" transform="matrix(6.7275087,0,0,-6.7275087,-1292.2988,3319.707)"/>
   </clipPath>
   <g clip-path="url(#cp3)" id="svg_12">
    <path d="m309.673524,214.51983c0.540312,0.693881 1.426977,4.600433 1.316144,5.856358c-0.775832,0.617554 -4.322493,1.457151 -5.86723,1.318375c-0.775832,-1.332252 -1.433904,-3.982879 -1.316144,-5.863297c1.115259,-0.575922 3.941504,-1.505722 5.86723,-1.311436" fill="#ffffff" id="svg_13"/>
   </g>
   <clipPath fill="#ffffff" id="cp4" transform="translate(111.332, 4.69141) scale(1.02792, 1.02792) translate(-111.332, -4.69141) translate(108.308, 577.646) scale(1.0017, 1.0034) translate(-108.308, -577.646)">
    <path d="m144.066,318.898l192.549,0l0,188.858l-192.549,0l0,-188.858z" fill="#ffffff" id="svg_14" transform="matrix(6.7275087,0,0,-6.7275087,-1292.2988,3319.707)"/>
   </clipPath>
   <g clip-path="url(#cp4)" id="svg_15">
    <path d="m495.200546,185.03452c1.045988,5.356764 4.675773,6.362892 7.301134,5.856358c6.213583,-1.214292 4.592649,-10.283321 9.150662,-11.171489c1.226092,-0.256736 2.230517,-0.020816 3.082547,0.520411c0.124687,0.249797 0.422551,0.832658 0.581874,1.623682c0.387916,1.949807 -0.311718,3.691449 -2.043486,5.20411c1.191456,0.659187 2.043486,0.964495 3.394265,0.888168c0.540312,-1.512661 0.616509,-3.247365 0.270156,-5.03064c-0.85203,-4.38533 -3.969212,-5.641255 -6.442177,-5.155538c-5.950355,1.137965 -3.484317,10.005769 -9.503943,11.192306c-0.928228,0.17347 -2.161246,0.034694 -3.047912,-0.367757c-0.270156,-0.312247 -0.810467,-1.200415 -1.004425,-2.22042c-0.574947,-2.844913 0.505676,-4.898802 2.860881,-6.557179l-0.041562,-0.076327c-1.309217,-0.159593 -2.701558,-0.277553 -4.204733,0.090205c-0.387916,1.144904 -0.73427,3.400019 -0.353281,5.20411" fill="#ffffff" id="svg_16"/>
   </g>
   <clipPath fill="#ffffff" id="cp5" transform="translate(111.332, 4.69141) scale(1.02792, 1.02792) translate(-111.332, -4.69141) translate(108.308, 577.646) scale(1.0017, 1.0034) translate(-108.308, -577.646)">
    <path d="m144.066,318.898l192.549,0l0,188.858l-192.549,0l0,-188.858z" fill="#ffffff" id="svg_17" transform="matrix(6.7275087,0,0,-6.7275087,-1292.2988,3319.707)"/>
   </clipPath>
   <g clip-path="url(#cp5)" id="svg_18">
    <path d="m495.825232,180.133063c-0.318645,1.061638 -0.644218,3.143282 -0.277083,4.829414c0.997498,5.134722 4.350201,5.689827 5.742543,5.689827c0.380989,0 0.761978,-0.027755 1.142967,-0.104082c3.151818,-0.617554 4.170097,-3.386141 5.153741,-6.071462c0.872811,-2.393891 1.70406,-4.655944 3.99692,-5.100028c1.226092,-0.249797 2.355204,-0.062449 3.338849,0.568983l0.083125,0.055511l0.090052,0.187348c0.145469,0.298369 0.415624,0.860413 0.561093,1.609805c0.387916,1.922051 -0.214739,3.663693 -1.780257,5.190232c0.845103,0.430206 1.558591,0.631432 2.535308,0.624493c0.443333,-1.366946 0.505676,-2.962873 0.187031,-4.62125c-0.893592,-4.614311 -4.128535,-4.975129 -5.098325,-4.975129c-0.318645,0 -0.630364,0.034694 -0.942082,0.097143c-2.763902,0.52735 -3.581296,2.858791 -4.44718,5.329009c-0.900519,2.5743 -1.828747,5.231865 -5.049835,5.863297c-1.011352,0.187348 -2.348277,0.027755 -3.262651,-0.395512l-0.11776,-0.090205c-0.325572,-0.367757 -0.879738,-1.304497 -1.08755,-2.380013c-0.51953,-2.581239 0.256302,-4.690638 2.375986,-6.43228c-1.059842,-0.097143 -2.175101,-0.090205 -3.144891,0.124899m5.46546,11.227c-1.572445,0 -5.333845,-0.610616 -6.428323,-6.25881c-0.415624,-1.935929 -0.020781,-4.274309 0.360208,-5.37758l0.062344,-0.180409l0.187031,-0.055511c0.699634,-0.166532 1.42005,-0.249797 2.209736,-0.249797c0.741197,0 1.454685,0.069388 2.112757,0.152654l0.187031,0.020816l0.23552,0.437145l-0.214739,0.249797c-2.375986,1.679193 -3.234943,3.649816 -2.722339,6.203299c0.173177,0.908985 0.637291,1.700009 0.879738,1.998378c0.789686,0.340002 1.925726,0.4649 2.770829,0.312247c2.819318,-0.548166 3.64364,-2.907363 4.516451,-5.398397c0.893592,-2.553483 1.814893,-5.183294 4.980565,-5.793909c0.353281,-0.069388 0.713488,-0.104082 1.073696,-0.104082c2.27208,0 4.994419,1.457151 5.777178,5.544112c0.374062,1.87348 0.263229,3.677571 -0.277083,5.217988l-0.076198,0.215103l-0.23552,0.013878c-1.440831,0.076327 -2.375986,-0.270614 -3.588223,-0.93674l-0.443333,-0.23592l0.387916,-0.333063c1.627862,-1.429396 2.285934,-3.060017 1.925726,-4.871047c-0.124687,-0.659187 -0.374062,-1.165721 -0.505676,-1.443273c-0.824322,-0.499595 -1.710987,-0.631432 -2.74312,-0.423268c-1.911872,0.374696 -2.646141,2.359197 -3.484317,4.649005c-0.997498,2.733892 -2.126611,5.835542 -5.673272,6.522485c-0.422551,0.083266 -0.85203,0.124899 -1.274581,0.124899" fill="#ffffff" id="svg_19"/>
   </g>
   <clipPath fill="#ffffff" id="cp6" transform="translate(111.332, 4.69141) scale(1.02792, 1.02792) translate(-111.332, -4.69141) translate(108.308, 577.646) scale(1.0017, 1.0034) translate(-108.308, -577.646)">
    <path d="m144.066,318.898l192.549,0l0,188.858l-192.549,0l0,-188.858z" fill="#ffffff" id="svg_20" transform="matrix(6.7275087,0,0,-6.7275087,-1292.2988,3319.707)"/>
   </clipPath>
   <g clip-path="url(#cp6)" id="svg_21">
    <path d="m491.305365,167.654424c-0.193958,-0.485717 -0.076198,-1.061638 0.616509,-1.311436l7.183374,-2.942057c0.11776,-0.055511 0.187031,-0.020816 0.228593,0.055511l1.814893,4.50329c0.422551,0.971434 1.080623,2.088583 2.438329,1.824908c-0.429478,-0.742453 -0.886665,-1.686132 -1.316144,-2.69226l-1.620935,-4.038389c-0.041562,-0.138776 -0.11776,-0.256736 0.076198,-0.312247l5.825667,-2.393891c0.893592,-0.333063 1.468539,-0.444084 1.738695,-0.4649c0,0 0.270156,0.444084 0.581874,1.235109c1.849528,4.62125 1.115259,5.918808 -0.73427,7.556368l0,0.041633c1.662497,-0.152654 3.629786,-0.853474 4.551086,-1.221231l-4.668846,-11.539247c-0.159323,0.562044 -0.387916,1.137965 -1.233019,1.491845l-16.209348,6.584934c-1.011352,0.40939 -1.551664,0.124899 -2.015778,-0.145715l4.786607,11.789044c1.239946,-0.131837 3.512025,-0.749392 5.257648,-1.46409l0,-0.062449c-2.784683,0.11796 -4.904367,-0.520411 -6.684624,-4.947374l-0.616509,-1.547355z" fill="#ffffff" id="svg_22"/>
   </g>
   <clipPath fill="#ffffff" id="cp7" transform="translate(111.332, 4.69141) scale(1.02792, 1.02792) translate(-111.332, -4.69141) translate(108.308, 577.646) scale(1.0017, 1.0034) translate(-108.308, -577.646)">
    <path d="m144.066,318.898l192.549,0l0,188.858l-192.549,0l0,-188.858z" fill="#ffffff" id="svg_23" transform="matrix(6.7275087,0,0,-6.7275087,-1292.2988,3319.707)"/>
   </clipPath>
   <g clip-path="url(#cp7)" id="svg_24">
    <path d="m489.206196,164.539545l4.364055,10.755161c0.893592,-0.131837 2.154319,-0.451023 3.352703,-0.846535c-2.10583,-0.263675 -3.851452,-1.443273 -5.326918,-5.113905l-0.616509,-1.554294c-0.145469,-0.360818 -0.145469,-0.735514 0,-1.0547c0.096979,-0.228981 0.325572,-0.534289 0.824322,-0.714698l7.169519,-2.935118c0.187031,-0.104082 0.547239,-0.027755 0.678853,0.228981l1.82182,4.524106c0.332499,0.749392 0.768905,1.5196 1.530883,1.630621c-0.353281,-0.659187 -0.720415,-1.436334 -1.059842,-2.227359l-1.620935,-4.045328c-0.062344,-0.180409 -0.11776,-0.353879 -0.020781,-0.534289c0.055417,-0.11796 0.16625,-0.201226 0.325572,-0.249797l5.791032,-2.380013c1.059842,-0.395512 1.641716,-0.478778 1.842601,-0.492656l0.214739,-0.020816l0.11776,0.187348c0.006927,0.020816 0.28401,0.485717 0.602655,1.290619c1.593227,3.982879 1.37156,5.648194 -0.076198,7.230243c1.219165,-0.242858 2.445256,-0.673065 3.110255,-0.915923l-4.21166,-10.422098c-0.221666,0.353879 -0.554166,0.666126 -1.101404,0.895107l-16.209348,6.584934c-0.574947,0.228981 -1.094477,0.270614 -1.503175,0.180409m3.920723,11.51843l-5.271502,-12.996397l0.886665,0.520411c0.491822,0.284491 0.962863,0.430206 1.70406,0.131837l16.209348,-6.591873c0.706561,-0.29143 0.886665,-0.763269 1.025207,-1.262864l0.28401,-0.985311l5.18145,12.822927l-0.332499,0.124899c-0.623436,0.249797 -2.805464,1.068577 -4.641138,1.248986l-0.387916,0.027755l0,-0.541227l0.11776,-0.145715c1.662497,-1.46409 2.500673,-2.518789 0.637291,-7.167794c-0.173177,-0.444084 -0.339427,-0.791025 -0.443333,-0.985311c-0.318645,0.055511 -0.80354,0.187348 -1.42005,0.416329l-5.659418,2.324502l1.572445,3.962062c0.415624,0.978373 0.879738,1.915112 1.295362,2.643688l0.249375,0.423268l-0.484895,0.097143c-1.572445,0.319185 -2.348277,-0.950617 -2.819318,-2.026133l-1.745622,-4.322881l-7.030978,2.886546c-0.228593,0.083266 -0.367135,0.201226 -0.436406,0.346941c-0.062344,0.145715 -0.062344,0.326124 0.013854,0.513472l0.616509,1.547355c1.70406,4.239615 3.657494,4.857169 6.338271,4.725332l0.367135,-0.013878l0,0.603677l-0.214739,0.145715c-1.724841,0.707759 -4.024629,1.353069 -5.347699,1.498784l-0.263229,0.027755z" fill="#ffffff" id="svg_25"/>
   </g>
   <clipPath fill="#ffffff" id="cp8" transform="translate(111.332, 4.69141) scale(1.02792, 1.02792) translate(-111.332, -4.69141) translate(108.308, 577.646) scale(1.0017, 1.0034) translate(-108.308, -577.646)">
    <path d="m144.066,318.898l192.549,0l0,188.858l-192.549,0l0,-188.858z" fill="#ffffff" id="svg_26" transform="matrix(6.7275087,0,0,-6.7275087,-1292.2988,3319.707)"/>
   </clipPath>
   <g clip-path="url(#cp8)" id="svg_27">
    <path d="m484.280826,157.058054c0.041562,-0.811841 0.304791,-1.255925 1.004425,-1.720826l14.165862,-8.916375c0.387916,-0.228981 0.775832,-0.457962 1.233019,-0.541227l1.239946,2.012256c1.53781,2.400829 0.85203,3.615122 -0.810467,5.939624l0.041562,0.034694c0.263229,-0.131837 0.457187,-0.270614 0.886665,-0.520411c0.658072,-0.423268 2.964787,-2.109399 3.435828,-2.685321c-0.311718,-0.076327 -0.581874,-0.180409 -2.015778,-2.477156l-5.285356,-8.472291c-1.385414,-2.199604 -1.385414,-2.470218 -1.316144,-2.782464c-0.727343,0.152654 -3.234943,1.526539 -3.893014,1.915112c-0.429478,0.270614 -0.651145,0.451023 -0.886665,0.575922l0.034635,0.041633c2.819318,-0.499595 4.21166,-0.562044 5.680199,1.817969l1.309217,2.109399c-0.277083,0.346941 -0.651145,0.575922 -1.045988,0.832658l-14.165862,8.88862c-0.692707,0.444084 -1.233019,0.485717 -1.967288,0.194287l2.355204,3.753898z" fill="#ffffff" id="svg_28"/>
   </g>
   <clipPath fill="#ffffff" id="cp9" transform="translate(111.332, 4.69141) scale(1.02792, 1.02792) translate(-111.332, -4.69141) translate(108.308, 577.646) scale(1.0017, 1.0034) translate(-108.308, -577.646)">
    <path d="m144.066,318.898l192.549,0l0,188.858l-192.549,0l0,-188.858z" fill="#ffffff" id="svg_29" transform="matrix(6.7275087,0,0,-6.7275087,-1292.2988,3319.707)"/>
   </clipPath>
   <g clip-path="url(#cp9)" id="svg_30">
    <path d="m482.674772,153.841956l1.433904,2.289808c0.180104,-0.423268 0.484895,-0.756331 0.983644,-1.089394l14.172789,-8.916375c0.443333,-0.270614 0.858957,-0.506533 1.364633,-0.589799l0.228593,-0.041633l1.364633,2.213481c1.343852,2.088583 1.052915,3.427774 0.034635,5.065334c0.755051,-0.52735 2.008851,-1.46409 2.632287,-2.026133c-0.332499,-0.277553 -0.796613,-0.888168 -1.724841,-2.380013l-5.285356,-8.465352c-0.886665,-1.408579 -1.239946,-2.067766 -1.350779,-2.491034c-0.748124,0.305308 -2.071194,0.999189 -2.916297,1.471028c2.098903,-0.228981 3.297286,0.305308 4.474888,2.213481l1.440831,2.317564l-0.145469,0.194287c-0.290937,0.367757 -0.671926,0.610616 -1.039061,0.846535l-0.090052,0.062449l-14.172789,8.895559c-0.498749,0.319185 -0.928228,0.471839 -1.406196,0.430206m1.904945,4.350636l-3.518952,-5.606561l0.997498,0.395512c0.658072,0.256736 1.045988,0.215103 1.648643,-0.166532l14.255914,-8.951069c0.256302,-0.166532 0.505676,-0.326124 0.699634,-0.513472l-1.163748,-1.887357c-0.997498,-1.609805 -1.898018,-1.92899 -3.02713,-1.92899c-0.623436,0 -1.343852,0.104082 -2.292861,0.270614l-0.187031,0.034694l-0.45026,-0.457962l0.360208,-0.263675c0.124687,-0.069388 0.249375,-0.152654 0.40177,-0.263675c0.131614,-0.083266 0.28401,-0.187348 0.477968,-0.312247c0.394843,-0.228981 3.151818,-1.776336 4.010775,-1.956745l0.547239,-0.11796l-0.131614,0.548166c-0.04849,0.159593 -0.096979,0.360818 1.260727,2.51185l5.29921,8.472291c1.37156,2.213481 1.614008,2.275931 1.787185,2.317564l0.540312,0.131837l-0.346354,0.430206c-0.51953,0.64531 -2.944006,2.386952 -3.52588,2.761648l-0.40177,0.242858c-0.193958,0.11796 -0.332499,0.208164 -0.512603,0.298369l-0.221666,0.11796l-0.394843,-0.395512l0.138541,-0.277553c1.593227,-2.227359 2.230517,-3.309814 0.796613,-5.544112l-1.108331,-1.804091c-0.290937,0.090205 -0.56802,0.249797 -0.886665,0.444084l-14.165862,8.909436c-0.602655,0.402451 -0.80354,0.756331 -0.838176,1.443273l-0.04849,1.117149z" fill="#ffffff" id="svg_31"/>
   </g>
   <clipPath fill="#ffffff" id="cp10" transform="translate(111.332, 4.69141) scale(1.02792, 1.02792) translate(-111.332, -4.69141) translate(108.308, 577.646) scale(1.0017, 1.0034) translate(-108.308, -577.646)">
    <path d="m144.066,318.898l192.549,0l0,188.858l-192.549,0l0,-188.858z" fill="#ffffff" id="svg_32" transform="matrix(6.7275087,0,0,-6.7275087,-1292.2988,3319.707)"/>
   </clipPath>
   <g clip-path="url(#cp10)" id="svg_33">
    <path d="m485.748279,133.739545c-2.085049,1.949807 -4.634211,1.949807 -6.913218,-0.520411c-0.616509,-0.617554 -0.727343,-0.735514 -0.574947,-0.895107l5.13296,-4.85023c1.191456,-1.082455 1.620935,-1.221231 1.620935,-1.221231c0.270156,0.194287 0.574947,0.492656 0.85203,0.797964c2.466038,2.62981 1.579372,5.08615 -0.11776,6.689016m1.586299,-6.827792l-3.983066,-4.21186c0.076198,0.659187 0.041562,1.214292 -0.616509,1.859602l-12.780448,12.04578c-0.658072,0.562044 -1.233019,0.617554 -1.891091,0.478778l3.054839,3.247365c-0.083125,-0.652248 0,-1.235109 0.616509,-1.838786l5.437751,-5.120844c0.11776,-0.11796 0.23552,-0.131837 0.311718,-0.041633l0.810467,0.832658c0.775832,0.832658 0.623436,1.720826 0.152396,3.483284l-1.925726,6.092278c-0.311718,0.950617 -0.429478,1.408579 -0.658072,1.63756l2.819318,3.004506c-0.270156,-1.318375 -0.346354,-2.074705 0.152396,-3.753898l2.38984,-8.395964c1.586299,0.680004 4.56494,1.533478 7.07254,-0.846535c2.313642,-2.144093 2.161246,-5.08615 -0.962863,-8.472291" fill="#ffffff" id="svg_34"/>
   </g>
   <clipPath fill="#ffffff" id="cp11" transform="translate(111.332, 4.69141) scale(1.02792, 1.02792) translate(-111.332, -4.69141) translate(108.308, 577.646) scale(1.0017, 1.0034) translate(-108.308, -577.646)">
    <path d="m144.066,318.898l192.549,0l0,188.858l-192.549,0l0,-188.858z" fill="#ffffff" id="svg_35" transform="matrix(6.7275087,0,0,-6.7275087,-1292.2988,3319.707)"/>
   </clipPath>
   <g clip-path="url(#cp11)" id="svg_36">
    <path d="m478.609381,132.480248c0.096979,0.111021 0.277083,0.29143 0.471041,0.485717c2.05734,2.227359 4.419472,2.400829 6.428323,0.520411c0.609582,-0.58286 1.378487,-1.533478 1.510102,-2.74777c0.124687,-1.151843 -0.346354,-2.317564 -1.413123,-3.44859c-0.207812,-0.23592 -0.429478,-0.457962 -0.630364,-0.617554c-0.207812,0.124899 -0.630364,0.416329 -1.350779,1.068577l-5.0152,4.739209zm3.969212,3.018384c-1.385414,0 -2.770829,-0.707759 -4.003848,-2.040011c-0.637291,-0.64531 -0.96979,-0.971434 -0.56802,-1.380824l5.146814,-4.857169c1.191456,-1.082455 1.669424,-1.269803 1.752549,-1.297558l0.16625,-0.055511l0.145469,0.104082c0.28401,0.201226 0.609582,0.506533 0.907446,0.846535c1.205311,1.28368 1.738695,2.62981 1.593227,3.996756c-0.124687,1.131027 -0.727343,2.234298 -1.731768,3.177976c-1.045988,0.985311 -2.22359,1.505722 -3.408119,1.505722m-6.262073,9.853115l1.835674,1.949807c-0.083125,-0.811841 -0.006927,-1.575111 0.346354,-2.775525l2.5076,-8.77066l0.360208,0.152654c1.080623,0.4649 2.10583,0.693881 3.047912,0.693881c1.385414,0 2.604579,-0.492656 3.64364,-1.471028c2.833172,-2.636749 1.032134,-5.793909 -0.983644,-7.979635l-3.380411,-3.580428c-0.076198,0.388574 -0.270156,0.804902 -0.713488,1.235109l-12.780448,12.052719c-0.422551,0.360818 -0.831249,0.562044 -1.281508,0.624493l1.863382,1.984501c0.083125,-0.395512 0.28401,-0.804902 0.706561,-1.221231l5.444678,-5.127783c0.159323,-0.159593 0.325572,-0.201226 0.429478,-0.201226c0.159323,0 0.297864,0.076327 0.394843,0.201226l0.789686,0.797964c0.921301,0.999189 0.692707,2.10246 0.242448,3.816347l-2.078122,6.55024c-0.152396,0.485717 -0.263229,0.81878 -0.394843,1.068577m2.95786,4.177166l-3.899941,-4.156349l0.242448,-0.242858c0.131614,-0.131837 0.242448,-0.478778 0.429478,-1.061638l0.138541,-0.437145l1.932653,-6.092278c0.45026,-1.720826 0.561093,-2.442462 -0.076198,-3.136344l-0.720415,-0.735514l-5.347699,5.08615c-0.512603,0.499595 -0.574947,0.964495 -0.512603,1.540417l0.138541,1.0547l-4.551086,-4.836353l1.08755,0.228981c0.678853,0.138776 1.08755,0.027755 1.600154,-0.402451l12.766593,-12.038841c0.51953,-0.506533 0.574947,-0.922862 0.498749,-1.561233l-0.11776,-1.040822l4.703482,4.975129c3.158745,3.420835 3.491244,6.60575 0.942082,8.971886c-1.156821,1.103271 -2.542235,1.658376 -4.114681,1.658376c-0.928228,0 -1.918799,-0.194287 -2.95786,-0.596738l-2.279007,8.014329c-0.477968,1.602866 -0.422551,2.289808 -0.152396,3.587366l0.249375,1.221231z" fill="#ffffff" id="svg_37"/>
   </g>
   <clipPath fill="#ffffff" id="cp12" transform="translate(111.332, 4.69141) scale(1.02792, 1.02792) translate(-111.332, -4.69141) translate(108.308, 577.646) scale(1.0017, 1.0034) translate(-108.308, -577.646)">
    <path d="m144.066,318.898l192.549,0l0,188.858l-192.549,0l0,-188.858z" fill="#ffffff" id="svg_38" transform="matrix(6.7275087,0,0,-6.7275087,-1292.2988,3319.707)"/>
   </clipPath>
   <g clip-path="url(#cp12)" id="svg_39">
    <path d="m465.014503,124.537947c-0.727343,-0.485717 -2.008851,-1.297558 -3.047912,-2.053889c-1.122186,-0.791025 -2.008851,-1.484906 -2.549162,-1.87348l0.346354,-0.270614l8.146236,-6.189421l-2.895516,10.387404zm6.137386,-12.62864l-2.466038,-0.770208c0,0.29143 -0.193958,0.749392 -0.464114,1.103271c-0.11776,0.208164 -0.387916,0.520411 -0.73427,0.756331l-8.804308,6.55024l-5.479314,3.691449c-1.080623,0.735514 -1.814893,0.756331 -2.74312,0.541227l3.054839,2.206543c-0.076198,-0.29143 0.034635,-0.548166 0.187031,-0.735514c0.152396,-0.208164 0.547239,-0.562044 0.928228,-0.853474l3.823744,-3.053078c0.422551,0.249797 1.426977,0.867352 2.971714,1.956745c1.503175,1.096333 2.701558,2.067766 3.24187,2.470218l-1.274581,4.739209c-0.270156,0.943679 -0.886665,1.491845 -1.309217,1.602866l3.546661,2.532667c-0.457187,-1.020006 -0.339427,-1.582049 0.11776,-3.205732l5.403116,-19.532759z" fill="#ffffff" id="svg_40"/>
   </g>
   <clipPath fill="#ffffff" id="cp13" transform="translate(111.332, 4.69141) scale(1.02792, 1.02792) translate(-111.332, -4.69141) translate(108.308, 577.646) scale(1.0017, 1.0034) translate(-108.308, -577.646)">
    <path d="m144.066,318.898l192.549,0l0,188.858l-192.549,0l0,-188.858z" fill="#ffffff" id="svg_41" transform="matrix(6.7275087,0,0,-6.7275087,-1292.2988,3319.707)"/>
   </clipPath>
   <g clip-path="url(#cp13)" id="svg_42">
    <path d="m460.00143,120.605704c0.124687,0.090205 0.256302,0.187348 0.40177,0.298369c0.477968,0.360818 1.080623,0.811841 1.766403,1.297558c0.824322,0.596738 1.807966,1.242048 2.528381,1.706948l0.110833,0.076327l2.486819,-8.923314l-7.294207,5.544112zm5.223012,4.489412l-0.914373,-0.596738c-0.727343,-0.478778 -1.717914,-1.124088 -2.542235,-1.727765c-0.692707,-0.485717 -1.30229,-0.93674 -1.787185,-1.304497c-0.304791,-0.228981 -0.561093,-0.416329 -0.768905,-0.568983l-0.380989,-0.270614l0.720415,-0.562044l8.977485,-6.820853l-3.304213,11.851493zm-2.479892,7.056773l2.265152,1.623682c-0.076198,-0.680004 0.090052,-1.353069 0.40177,-2.428585l5.313064,-19.199696l-1.766403,-0.555105c-0.090052,0.284491 -0.256302,0.596738 -0.457187,0.860413c-0.103906,0.194287 -0.394843,0.548166 -0.817394,0.832658l-8.790454,6.543301l-5.493168,3.705326c-0.616509,0.416329 -1.156821,0.638371 -1.717914,0.70082l1.551664,1.124088c0.04849,-0.111021 0.11776,-0.222042 0.200885,-0.326124c0.180104,-0.256736 0.630364,-0.64531 0.983644,-0.908985l4.003848,-3.205732l0.207812,0.124899c0.353281,0.208164 1.350779,0.81878 2.999422,1.970623c1.059842,0.770208 1.953434,1.477967 2.590725,1.970623c0.277083,0.215103 0.491822,0.388574 0.658072,0.513472l0.193958,0.138776l-1.336925,4.96819c-0.207812,0.714698 -0.595728,1.242048 -0.990571,1.547355m3.747546,3.538795l-5.223012,-3.719204l0.720415,-0.194287c0.28401,-0.076327 0.831249,-0.513472 1.066769,-1.360007l1.212238,-4.510229c-0.138541,-0.104082 -0.297864,-0.228981 -0.477968,-0.367757c-0.630364,-0.492656 -1.523956,-1.193476 -2.569944,-1.956745c-1.37156,-0.957556 -2.279007,-1.533478 -2.736193,-1.81103l-3.636713,2.900424c-0.380989,0.29143 -0.73427,0.624493 -0.858957,0.791025c-0.16625,0.208164 -0.159323,0.346941 -0.138541,0.437145l0.242448,0.943679l-5.236866,-3.788592l1.683278,0.388574c0.325572,0.076327 0.581874,0.104082 0.817394,0.104082c0.533385,0 1.039061,-0.187348 1.65557,-0.596738l5.479314,-3.691449l8.790454,-6.543301c0.311718,-0.215103 0.547239,-0.478778 0.630364,-0.64531c0.277083,-0.360818 0.422551,-0.749392 0.422551,-0.93674l0,-0.471839l3.24187,1.013067l-5.486241,19.858884c-0.471041,1.651438 -0.533385,2.088583 -0.138541,2.969812l0.540312,1.186537z" fill="#ffffff" id="svg_43"/>
   </g>
   <clipPath fill="#ffffff" id="cp14" transform="translate(111.332, 4.69141) scale(1.02792, 1.02792) translate(-111.332, -4.69141) translate(108.308, 577.646) scale(1.0017, 1.0034) translate(-108.308, -577.646)">
    <path d="m144.066,318.898l192.549,0l0,188.858l-192.549,0l0,-188.858z" fill="#ffffff" id="svg_44" transform="matrix(6.7275087,0,0,-6.7275087,-1292.2988,3319.707)"/>
   </clipPath>
   <g clip-path="url(#cp14)" id="svg_45">
    <path d="m399.234174,114.386525c5.410043,-0.444084 6.795457,-4.003695 6.566864,-6.654322c-0.547239,-6.335137 -9.690974,-5.641255 -10.120452,-10.283321c-0.110833,-1.311436 0.23552,-2.241237 0.85203,-3.032261c0.270156,-0.076327 0.85203,-0.312247 1.697133,-0.367757c1.967288,-0.194287 3.629786,0.673065 4.89744,2.567361c0.817394,-1.117149 1.205311,-1.949807 1.281508,-3.302875c-1.468539,-0.714698 -3.172599,-0.950617 -4.980565,-0.770208c-4.440253,0.360818 -6.026553,3.302875 -5.791032,5.835542c0.505676,6.029829 9.573213,4.524106 10.071962,10.651078c0.124687,0.929801 -0.187031,2.16491 -0.651145,2.990629c-0.346354,0.277553 -1.274581,0.686943 -2.313642,0.777147c-2.895516,0.277553 -4.793534,-1.033883 -6.220511,-3.559611l-0.076198,0c-0.304791,1.360007 -0.540312,2.713076 -0.346354,4.218798c1.080623,0.541227 3.318067,1.089394 5.13296,0.929801" fill="#ffffff" id="svg_46"/>
   </g>
   <clipPath fill="#ffffff" id="cp15" transform="translate(111.332, 4.69141) scale(1.02792, 1.02792) translate(-111.332, -4.69141) translate(108.308, 577.646) scale(1.0017, 1.0034) translate(-108.308, -577.646)">
    <path d="m144.066,318.898l192.549,0l0,188.858l-192.549,0l0,-188.858z" fill="#ffffff" id="svg_47" transform="matrix(6.7275087,0,0,-6.7275087,-1292.2988,3319.707)"/>
   </clipPath>
   <g clip-path="url(#cp15)" id="svg_48">
    <path d="m394.428973,113.225691c1.066769,0.478778 3.124109,0.957556 4.77968,0.811841c2.251298,-0.187348 3.941504,-0.929801 5.022127,-2.213481c0.907446,-1.075516 1.350779,-2.553483 1.219165,-4.059206c-0.277083,-3.219609 -2.916297,-4.517167 -5.479314,-5.773093c-2.27208,-1.124088 -4.426399,-2.171849 -4.641138,-4.510229c-0.103906,-1.290619 0.187031,-2.331441 0.928228,-3.282059l0.069271,-0.090205l0.270156,-0.083266c0.325572,-0.104082 0.865884,-0.277553 1.614008,-0.326124c0.173177,-0.020816 0.360208,-0.027755 0.547239,-0.027755c1.717914,0 3.186453,0.784086 4.370982,2.33838c0.51953,-0.777147 0.817394,-1.457151 0.907446,-2.484095c-1.309217,-0.589799 -2.881662,-0.797964 -4.578794,-0.638371c-1.932653,0.159593 -3.456609,0.846535 -4.412545,1.991439c-0.796613,0.950617 -1.177602,2.178787 -1.059842,3.462468c0.23552,2.810219 2.459111,3.864919 4.807388,4.995946c2.466038,1.172659 5.001346,2.386952 5.271502,5.66901c0.110833,0.922862 -0.173177,2.241237 -0.706561,3.191854l-0.083125,0.104082c-0.443333,0.346941 -1.440831,0.749392 -2.500673,0.846535c-2.653069,0.249797 -4.599576,-0.721637 -6.15124,-3.066955c-0.180104,0.950617 -0.311718,2.005317 -0.193958,3.143282m4.149316,1.540417c-1.745622,0 -3.650567,-0.499595 -4.634211,-0.99225l-0.16625,-0.083266l-0.020781,-0.187348c-0.214739,-1.63756 0.069271,-3.10165 0.346354,-4.336758l0.069271,-0.277553l0.477968,0l0.180104,0.180409c1.454685,2.567361 3.290359,3.635938 5.874157,3.379202c0.921301,-0.083266 1.738695,-0.423268 2.078122,-0.659187c0.436406,-0.811841 0.678853,-1.942868 0.581874,-2.713076c-0.23552,-2.893485 -2.486819,-3.969001 -4.869732,-5.106967c-2.431402,-1.158782 -4.939002,-2.359197 -5.209158,-5.564928c-0.131614,-1.46409 0.297864,-2.879608 1.226092,-3.982879c1.080623,-1.28368 2.763902,-2.053889 4.883586,-2.227359c1.898018,-0.187348 3.685202,0.083266 5.167596,0.804902l0.207812,0.097143l-0.013854,0.23592c-0.090052,1.505722 -0.533385,2.386952 -1.343852,3.490223l-0.290937,0.40939l-0.28401,-0.416329c-1.191456,-1.783275 -2.756975,-2.615933 -4.571867,-2.421646c-0.671926,0.048572 -1.163748,0.208164 -1.454685,0.298369l-0.062344,0.020816c-0.588801,0.791025 -0.810467,1.630621 -0.713488,2.706137c0.173177,1.935929 2.064267,2.86573 4.253222,3.941246c2.597652,1.276742 5.548585,2.726954 5.853376,6.342075c0.152396,1.69307 -0.346354,3.358386 -1.37156,4.572678c-1.205311,1.436334 -3.061766,2.262053 -5.507022,2.45634c-0.221666,0.027755 -0.45026,0.034694 -0.68578,0.034694" fill="#ffffff" id="svg_49"/>
   </g>
   <clipPath fill="#ffffff" id="cp16" transform="translate(111.332, 4.69141) scale(1.02792, 1.02792) translate(-111.332, -4.69141) translate(108.308, 577.646) scale(1.0017, 1.0034) translate(-108.308, -577.646)">
    <path d="m144.066,318.898l192.549,0l0,188.858l-192.549,0l0,-188.858z" fill="#ffffff" id="svg_50" transform="matrix(6.7275087,0,0,-6.7275087,-1292.2988,3319.707)"/>
   </clipPath>
   <g clip-path="url(#cp16)" id="svg_51">
    <path d="m379.661638,109.435715c-1.350779,0.367757 -2.431402,0.638371 -3.082547,0.756331l0.034635,-0.430206l0.387916,-10.227811l6.178948,8.902497c-0.858957,0.249797 -2.244371,0.673065 -3.518952,0.999189m9.268422,2.803281l-11.540502,-16.625397l-2.168173,1.394701c0.200885,0.208164 0.464114,0.631432 0.581874,1.061638c0.076198,0.270614 0.11776,0.638371 0.11776,1.047761l-0.658072,10.956386l-0.623436,6.591873c-0.152396,1.318375 -0.574947,1.894296 -1.343852,2.477156l3.664421,-0.943679c-0.304791,-0.138776 -0.380989,-0.40939 -0.457187,-0.64531c-0.083125,-0.228981 -0.083125,-0.770208 -0.083125,-1.248986l0.110833,-4.898802c0.471041,-0.152654 1.586299,-0.534289 3.408119,-1.020006c1.77333,-0.444084 3.31114,-0.777147 3.969212,-0.929801l2.819318,4.024512c0.581874,0.784086 0.581874,1.602866 0.387916,2.005317l4.204733,-1.103271c-1.122186,-0.29143 -1.426977,-0.728575 -2.38984,-2.144093" fill="#ffffff" id="svg_52"/>
   </g>
   <clipPath fill="#ffffff" id="cp17" transform="translate(111.332, 4.69141) scale(1.02792, 1.02792) translate(-111.332, -4.69141) translate(108.308, 577.646) scale(1.0017, 1.0034) translate(-108.308, -577.646)">
    <path d="m144.066,318.898l192.549,0l0,188.858l-192.549,0l0,-188.858z" fill="#ffffff" id="svg_53" transform="matrix(6.7275087,0,0,-6.7275087,-1292.2988,3319.707)"/>
   </clipPath>
   <g clip-path="url(#cp17)" id="svg_54">
    <path d="m377.311311,100.601754l-0.346354,9.152295c0.609582,-0.131837 1.468539,-0.346941 2.611506,-0.659187c1.032134,-0.263675 2.154319,-0.603677 2.978641,-0.839596l0.055417,-0.020816l-5.29921,-7.632695zm-1.122186,10.019646l0.076198,-0.888168l0.422551,-11.254755l7.058686,10.151484l-0.997498,0.298369c-0.824322,0.242858 -1.953434,0.58286 -2.999422,0.846535c-1.475466,0.402451 -2.493746,0.652248 -3.110255,0.763269l-0.45026,0.083266zm-0.457187,-13.523747c0.16625,0.249797 0.325572,0.562044 0.408697,0.881229c0.083125,0.298369 0.131614,0.686943 0.131614,1.137965l-0.658072,10.977203l-0.623436,6.60575c-0.090052,0.797964 -0.28401,1.353069 -0.56802,1.790214l1.870309,-0.485717c-0.04849,-0.111021 -0.090052,-0.215103 -0.11776,-0.305308c-0.096979,-0.298369 -0.110833,-0.742453 -0.110833,-1.394701l0.124687,-5.148599l0.346354,-0.11796c0.526457,-0.17347 1.614008,-0.541227 3.304213,-0.99225c1.343852,-0.333063 2.549162,-0.603677 3.345776,-0.784086l0.879738,-0.201226l2.950933,4.21186c0.436406,0.596738 0.588801,1.221231 0.561093,1.734703l2.646141,-0.693881c-0.547239,-0.360818 -0.935155,-0.915923 -1.586299,-1.87348l-11.339617,-16.347844l-1.565518,1.006128zm-4.052337,22.821757l1.399269,-1.0547c0.692707,-0.520411 1.073696,-1.013067 1.219165,-2.241237l0.616509,-6.577995l0.651145,-10.956386c0,-0.353879 -0.034635,-0.686943 -0.103906,-0.922862c-0.090052,-0.353879 -0.318645,-0.728575 -0.498749,-0.922862l-0.28401,-0.305308l2.798537,-1.804091l11.73446,16.902949c0.942082,1.380824 1.198383,1.748581 2.195882,2.012256l1.309217,0.333063l-6.241292,1.63756l0.325572,-0.680004c0.131614,-0.284491 0.152396,-0.964495 -0.353281,-1.651438l-2.694631,-3.837164l-0.415624,0.097143c-0.796613,0.17347 -1.98807,0.444084 -3.318067,0.777147c-1.544737,0.416329 -2.590725,0.756331 -3.144891,0.93674l-0.103906,4.649005c0,0.374696 0,0.950617 0.055417,1.131027c0.096979,0.270614 0.138541,0.374696 0.270156,0.430206l0.928228,0.416329l-6.345198,1.630621z" fill="#ffffff" id="svg_55"/>
   </g>
   <clipPath fill="#ffffff" id="cp18" transform="translate(111.332, 4.69141) scale(1.02792, 1.02792) translate(-111.332, -4.69141) translate(108.308, 577.646) scale(1.0017, 1.0034) translate(-108.308, -577.646)">
    <path d="m144.066,318.898l192.549,0l0,188.858l-192.549,0l0,-188.858z" fill="#ffffff" id="svg_56" transform="matrix(6.7275087,0,0,-6.7275087,-1292.2988,3319.707)"/>
   </clipPath>
   <g clip-path="url(#cp18)" id="svg_57">
    <path d="m366.615236,122.507616l4.010775,-1.894296c-0.810467,-0.131837 -1.233019,-0.4649 -1.614008,-1.242048l-7.377332,-15.758045c-0.380989,-0.770208 -0.346354,-1.290619 0.041562,-2.005317l-4.017702,1.894296c0.817394,0.131837 1.233019,0.4649 1.627862,1.255925l7.370404,15.737229c0.346354,0.791025 0.346354,1.297558 -0.041562,2.012256" fill="#ffffff" id="svg_58"/>
   </g>
   <clipPath fill="#ffffff" id="cp19" transform="translate(111.332, 4.69141) scale(1.02792, 1.02792) translate(-111.332, -4.69141) translate(108.308, 577.646) scale(1.0017, 1.0034) translate(-108.308, -577.646)">
    <path d="m144.066,318.898l192.549,0l0,188.858l-192.549,0l0,-188.858z" fill="#ffffff" id="svg_59" transform="matrix(6.7275087,0,0,-6.7275087,-1292.2988,3319.707)"/>
   </clipPath>
   <g clip-path="url(#cp19)" id="svg_60">
    <path d="m358.604927,103.444679c0.408697,0.23592 0.720415,0.603677 0.990571,1.158782l7.377332,15.744167c0.249375,0.575922 0.339427,1.020006 0.263229,1.477967l2.445256,-1.158782c-0.408697,-0.228981 -0.713488,-0.589799 -0.983644,-1.137965l-7.377332,-15.764984c-0.263229,-0.534289 -0.360208,-0.99225 -0.270156,-1.471028l-2.445256,1.151843zm7.190301,19.838067l0.512603,-0.943679c0.332499,-0.610616 0.332499,-0.99225 0.020781,-1.700009l-7.363477,-15.73029c-0.339427,-0.686943 -0.664999,-0.950617 -1.364633,-1.061638l-1.108331,-0.180409l6.005771,-2.837975l-0.512603,0.943679c-0.353281,0.64531 -0.353281,1.040822 -0.041562,1.686132l7.384259,15.764984c0.332499,0.673065 0.664999,0.929801 1.357706,1.040822l1.115259,0.187348l-6.005771,2.831036z" fill="#ffffff" id="svg_61"/>
   </g>
   <clipPath fill="#ffffff" id="cp20" transform="translate(111.332, 4.69141) scale(1.02792, 1.02792) translate(-111.332, -4.69141) translate(108.308, 577.646) scale(1.0017, 1.0034) translate(-108.308, -577.646)">
    <path d="m144.066,318.898l192.549,0l0,188.858l-192.549,0l0,-188.858z" fill="#ffffff" id="svg_62" transform="matrix(6.7275087,0,0,-6.7275087,-1292.2988,3319.707)"/>
   </clipPath>
   <g clip-path="url(#cp20)" id="svg_63">
    <path d="m362.253994,124.345822c-0.304791,-1.061638 -1.468539,-3.288998 -2.396767,-4.642066l-0.034635,0.020816c1.191456,3.691449 0.464114,5.315131 -1.738695,6.820853c-4.170097,2.86573 -8.797381,0.929801 -11.85222,-3.517978c-1.849528,-2.761648 -2.5076,-5.627378 -2.348277,-8.257188c0.380989,-0.693881 1.184529,-1.734703 2.466038,-2.602055c1.392341,-0.971434 3.435828,-1.686132 5.943428,-0.915923c0.270156,-1.020006 0.311718,-2.359197 -0.270156,-3.538795c-1.468539,0.29143 -3.512025,0.971434 -5.13296,2.109399c-5.098325,3.483284 -6.061188,9.991891 -2.085049,15.834372c3.35963,4.91268 8.575715,6.071462 13.320759,2.803281c2.078122,-1.450212 3.124109,-2.726954 4.128535,-4.114716" fill="#ffffff" id="svg_64"/>
   </g>
   <clipPath fill="#ffffff" id="cp21" transform="translate(111.332, 4.69141) scale(1.02792, 1.02792) translate(-111.332, -4.69141) translate(108.308, 577.646) scale(1.0017, 1.0034) translate(-108.308, -577.646)">
    <path d="m144.066,318.898l192.549,0l0,188.858l-192.549,0l0,-188.858z" fill="#ffffff" id="svg_65" transform="matrix(6.7275087,0,0,-6.7275087,-1292.2988,3319.707)"/>
   </clipPath>
   <g clip-path="url(#cp21)" id="svg_66">
    <path d="m351.82048,108.115735c-0.907446,0.201226 -2.985568,0.770208 -4.73119,1.998378c-5.001346,3.413896 -5.825667,9.728216 -1.994997,15.348655c1.981143,2.893485 4.661919,4.489412 7.543581,4.489412c1.787185,0 3.567442,-0.596738 5.285356,-1.783275c2.022705,-1.40164 3.034057,-2.643688 3.941504,-3.885735c-0.207812,-0.631432 -0.671926,-1.609805 -1.198383,-2.5743c0.318645,2.289808 -0.415624,3.781653 -2.382913,5.127783c-1.364633,0.93674 -2.819318,1.408579 -4.322493,1.408579c-2.90937,0 -5.825667,-1.824908 -8.021549,-5.016762c-1.752549,-2.615933 -2.583798,-5.544112 -2.410621,-8.47923l0.04849,-0.145715c0.256302,-0.471839 1.032134,-1.679193 2.569944,-2.726954c0.85203,-0.596738 2.251298,-1.304497 4.04541,-1.304497c0.602655,0 1.219165,0.083266 1.842601,0.242858c0.110833,-0.624493 0.200885,-1.672254 -0.214739,-2.699198m0.817394,22.544204l0,0c-3.124109,0 -6.005771,-1.706948 -8.118528,-4.801659c-4.066191,-5.960441 -3.172599,-12.677212 2.175101,-16.327028c2.05734,-1.450212 4.544159,-2.019195 5.257648,-2.16491l0.270156,-0.048572l0.110833,0.242858c0.540312,1.089394 0.644218,2.463279 0.297864,3.781653l-0.090052,0.353879l-0.353281,-0.104082c-0.664999,-0.208164 -1.343852,-0.312247 -1.994997,-0.312247c-1.614008,0 -2.874735,0.638371 -3.64364,1.172659c-1.378487,0.93674 -2.091976,2.019195 -2.320569,2.421646c-0.152396,2.74777 0.644218,5.502479 2.292861,7.958819c2.05734,2.997567 4.765825,4.711454 7.439675,4.711454c1.357706,0 2.680777,-0.430206 3.92765,-1.290619c1.953434,-1.332252 2.784683,-2.754709 1.600154,-6.418402l-0.096979,-0.29143l0.547239,-0.270614l0.207812,0.228981c0.96979,1.415518 2.133538,3.677571 2.438329,4.746148l0.04849,0.166532l-0.096979,0.131837c-0.976717,1.34613 -2.022705,2.678382 -4.218587,4.204921c-1.835674,1.262864 -3.747546,1.908174 -5.680199,1.908174" fill="#ffffff" id="svg_67"/>
   </g>
   <clipPath fill="#ffffff" id="cp22" transform="translate(111.332, 4.69141) scale(1.02792, 1.02792) translate(-111.332, -4.69141) translate(108.308, 577.646) scale(1.0017, 1.0034) translate(-108.308, -577.646)">
    <path d="m144.066,318.898l192.549,0l0,188.858l-192.549,0l0,-188.858z" fill="#ffffff" id="svg_68" transform="matrix(6.7275087,0,0,-6.7275087,-1292.2988,3319.707)"/>
   </clipPath>
   <g clip-path="url(#cp22)" id="svg_69">
    <path d="m339.513919,130.319985l3.47739,3.538795l-1.080623,-0.201226l-20.774288,-1.852663l1.468539,1.262864l11.893782,12.503742c0.651145,0.638371 0.85203,1.276742 0.651145,2.22042l2.74312,-2.720015c-1.039061,0.284491 -1.620935,0.034694 -2.27208,-0.624493l-5.791032,-5.585745l-3.983066,-4.024512l0.775832,0.138776l20.573403,1.706948l-13.431592,-14.134363c-0.658072,-0.680004 -0.85203,-1.297558 -0.658072,-2.268992l-2.784683,2.74777c1.08755,-0.29143 1.627862,-0.055511 2.320569,0.624493l6.871655,6.6682z" fill="#ffffff" id="svg_70"/>
   </g>
   <clipPath fill="#ffffff" id="cp23" transform="translate(111.332, 4.69141) scale(1.02792, 1.02792) translate(-111.332, -4.69141) translate(108.308, 577.646) scale(1.0017, 1.0034) translate(-108.308, -577.646)">
    <path d="m144.066,318.898l192.549,0l0,188.858l-192.549,0l0,-188.858z" fill="#ffffff" id="svg_71" transform="matrix(6.7275087,0,0,-6.7275087,-1292.2988,3319.707)"/>
   </clipPath>
   <g clip-path="url(#cp23)" id="svg_72">
    <path d="m322.199054,132.254386l0.637291,0.541227l11.914564,12.531497c0.491822,0.478778 0.755051,0.978373 0.810467,1.568172l1.37156,-1.366946c-0.706561,-0.055511 -1.184529,-0.444084 -1.565518,-0.832658l-5.791032,-5.578806l-4.751971,-4.815536l1.856455,0.333063l19.631322,1.623682l-12.801229,-13.468237c-0.498749,-0.513472 -0.755051,-1.013067 -0.810467,-1.609805l-1.399269,1.380824c0.644218,0.048572 1.108331,0.367757 1.586299,0.832658l6.871655,6.675138l4.260149,4.329819l-2.175101,-0.395512l-19.645176,-1.748581zm12.378677,16.611519l0.23552,-1.137965c0.16625,-0.832658 0.013854,-1.34613 -0.561093,-1.901235l-11.900709,-12.517619l-2.27208,-1.949807l21.889547,1.956745l-2.701558,-2.74777l-6.864728,-6.6682c-0.713488,-0.693881 -1.101404,-0.770208 -1.981143,-0.534289l-1.288435,0.346941l4.544159,-4.489412l-0.221666,1.124088c-0.173177,0.839596 -0.020781,1.34613 0.554166,1.949807l14.082737,14.807428l-21.245329,-1.75552l3.228015,3.268181l5.784105,5.578806c0.664999,0.666126 1.101404,0.770208 1.946507,0.534289l1.281508,-0.346941l-4.509524,4.482473z" fill="#ffffff" id="svg_73"/>
   </g>
   <clipPath fill="#ffffff" id="cp24" transform="translate(111.332, 4.69141) scale(1.02792, 1.02792) translate(-111.332, -4.69141) translate(108.308, 577.646) scale(1.0017, 1.0034) translate(-108.308, -577.646)">
    <path d="m144.066,318.898l192.549,0l0,188.858l-192.549,0l0,-188.858z" fill="#ffffff" id="svg_74" transform="matrix(6.7275087,0,0,-6.7275087,-1292.2988,3319.707)"/>
   </clipPath>
   <g clip-path="url(#cp24)" id="svg_75">
    <path d="m327.009635,157.502995c-0.311718,0.4649 -0.85203,0.673065 -1.468539,0.305308l-6.566864,-4.135533c-0.110833,-0.097143 -0.152396,-0.187348 -0.076198,-0.263675l2.549162,-4.086961c0.574947,-0.908985 1.122186,-2.10246 0.11776,-3.018384c-0.346354,0.763269 -0.85203,1.706948 -1.433904,2.595116l-2.348277,3.691449c-0.041562,0.11796 -0.11776,0.215103 -0.277083,0.11796l-5.361554,-3.386141c-0.768905,-0.457962 -1.191456,-0.908985 -1.392341,-1.124088c0,0 0.23552,-0.457962 0.699634,-1.172659c2.618433,-4.218798 4.128535,-4.371452 6.559937,-3.809409l0,-0.020816c-1.080623,-1.276742 -2.777756,-2.470218 -3.629786,-2.997567l-6.601499,10.540057c0.464114,-0.194287 1.129113,-0.353879 1.891091,0.131837l14.782371,9.339643c0.928228,0.562044 1.011352,1.179598 1.052915,1.741642l6.78853,-10.789855c-0.845103,-0.929801 -2.659996,-2.400829 -4.246295,-3.420835l-0.034635,0.034694c1.697133,2.206543 2.38984,4.315942 -0.11776,8.312698l-0.886665,1.415518z" fill="#ffffff" id="svg_76"/>
   </g>
   <clipPath fill="#ffffff" id="cp25" transform="translate(111.332, 4.69141) scale(1.02792, 1.02792) translate(-111.332, -4.69141) translate(108.308, 577.646) scale(1.0017, 1.0034) translate(-108.308, -577.646)">
    <path d="m144.066,318.898l192.549,0l0,188.858l-192.549,0l0,-188.858z" fill="#ffffff" id="svg_77" transform="matrix(6.7275087,0,0,-6.7275087,-1292.2988,3319.707)"/>
   </clipPath>
   <g clip-path="url(#cp25)" id="svg_78">
    <path d="m308.626768,150.19753c0.422551,0 0.838176,0.124899 1.233019,0.381635l14.789298,9.332704c0.56802,0.346941 0.865884,0.721637 1.025207,1.11021l6.178948,-9.818421c-0.623436,-0.638371 -1.607081,-1.46409 -2.632287,-2.227359c1.01828,1.935929 1.011352,4.045328 -1.025207,7.299632l-0.886665,1.415518c-0.45026,0.673065 -1.239946,0.846535 -1.946507,0.423268l-6.573791,-4.142472c-0.187031,-0.159593 -0.270156,-0.305308 -0.277083,-0.4649c-0.006927,-0.124899 0.041562,-0.249797 0.145469,-0.353879l2.493746,-4.017573c0.609582,-0.964495 0.768905,-1.644499 0.491822,-2.178787c-0.360208,0.714698 -0.789686,1.471028 -1.212238,2.130216l-2.355204,3.698387c-0.083125,0.284491 -0.367135,0.312247 -0.45026,0.312247c-0.096979,0 -0.200885,-0.027755 -0.297864,-0.090205l-5.368481,-3.386141c-0.831249,-0.499595 -1.288435,-0.999189 -1.461612,-1.179598l-0.16625,-0.180409l0.110833,-0.222042c0.006927,-0.013878 0.249375,-0.485717 0.713488,-1.207354c1.884164,-3.025323 3.338849,-4.204921 5.188377,-4.204921c0.221666,0 0.45026,0.020816 0.692707,0.048572c-0.942082,-0.908985 -2.022705,-1.651438 -2.542235,-1.991439l-5.964209,9.513113c0.027708,0 0.062344,0 0.096979,0m16.597264,12.850682l-0.069271,-1.075516c-0.034635,-0.478778 -0.069271,-0.971434 -0.879738,-1.46409l-14.789298,-9.339643c-0.505676,-0.319185 -0.96979,-0.360818 -1.572445,-0.111021l-1.011352,0.416329l7.370404,-11.75435l0.290937,0.180409c1.080623,0.659187 2.694631,1.859602 3.719838,3.066955l0.083125,0.097143l0,0.568983l-0.429478,-0.076327c-0.68578,-0.159593 -1.163748,-0.228981 -1.593227,-0.228981c-1.343852,0 -2.590725,0.652248 -4.592649,3.878797c-0.270156,0.40939 -0.457187,0.735514 -0.56802,0.93674c0.214739,0.215103 0.581874,0.548166 1.142967,0.881229l5.216085,3.288998l2.292861,-3.601244c0.526457,-0.797964 1.032134,-1.727765 1.413123,-2.553483l0.193958,-0.437145l0.360208,0.326124c1.357706,1.22817 0.290937,2.914302 -0.055417,3.462468l-2.459111,3.941246l6.442177,4.059206c0.145469,0.090205 0.290937,0.131837 0.429478,0.131837c0.290937,0 0.471041,-0.208164 0.561093,-0.333063l0.879738,-1.408579c2.334423,-3.726143 1.82182,-5.724521 0.131614,-7.910247l-0.187031,-0.249797l0.422551,-0.40939l0.277083,0.111021c1.579372,1.020006 3.428901,2.518789 4.308639,3.476345l0.180104,0.201226l-7.508946,11.92782z" fill="#ffffff" id="svg_79"/>
   </g>
   <clipPath fill="#ffffff" id="cp26" transform="translate(111.332, 4.69141) scale(1.02792, 1.02792) translate(-111.332, -4.69141) translate(108.308, 577.646) scale(1.0017, 1.0034) translate(-108.308, -577.646)">
    <path d="m144.066,318.898l192.549,0l0,188.858l-192.549,0l0,-188.858z" fill="#ffffff" id="svg_80" transform="matrix(6.7275087,0,0,-6.7275087,-1292.2988,3319.707)"/>
   </clipPath>
   <g clip-path="url(#cp26)" id="svg_81">
    <path d="m321.409966,170.903761l1.586299,-4.163288c-0.658072,0.471839 -1.198383,0.52735 -2.008851,0.222042l-16.257838,-6.168605c-0.768905,-0.270614 -1.156821,-0.70082 -1.343852,-1.491845l-1.586299,4.156349c0.692707,-0.423268 1.239946,-0.506533 2.001924,-0.208164l16.257838,6.161666c0.810467,0.312247 1.156821,0.693881 1.350779,1.491845" fill="#ffffff" id="svg_82"/>
   </g>
   <clipPath fill="#ffffff" id="cp27" transform="translate(111.332, 4.69141) scale(1.02792, 1.02792) translate(-111.332, -4.69141) translate(108.308, 577.646) scale(1.0017, 1.0034) translate(-108.308, -577.646)">
    <path d="m144.066,318.898l192.549,0l0,188.858l-192.549,0l0,-188.858z" fill="#ffffff" id="svg_83" transform="matrix(6.7275087,0,0,-6.7275087,-1292.2988,3319.707)"/>
   </clipPath>
   <g clip-path="url(#cp27)" id="svg_84">
    <path d="m302.966632,162.722238c0.297864,0 0.616509,0.062449 0.962863,0.201226l16.250911,6.161666c0.574947,0.215103 0.955936,0.478778 1.219165,0.87429l0.955936,-2.518789c-0.457187,0.11796 -0.907446,0.069388 -1.496248,-0.152654l-16.250911,-6.168605c-0.554166,-0.194287 -0.942082,-0.471839 -1.212238,-0.87429l-0.96979,2.546544c0.187031,-0.048572 0.360208,-0.069388 0.540312,-0.069388m18.370595,9.360459l-0.270156,-1.096333c-0.159323,-0.686943 -0.429478,-0.971434 -1.13604,-1.248986l-16.243983,-6.161666c-0.658072,-0.249797 -1.066769,-0.208164 -1.70406,0.180409l-0.872811,0.541227l2.34135,-6.175544l0.270156,1.096333c0.16625,0.673065 0.471041,1.013067 1.122186,1.242048l16.271692,6.168605c0.713488,0.277553 1.08755,0.242858 1.676351,-0.17347l0.942082,-0.666126l-2.396767,6.293504z" fill="#ffffff" id="svg_85"/>
   </g>
   <clipPath fill="#ffffff" id="cp28" transform="translate(111.332, 4.69141) scale(1.02792, 1.02792) translate(-111.332, -4.69141) translate(108.308, 577.646) scale(1.0017, 1.0034) translate(-108.308, -577.646)">
    <path d="m144.066,318.898l192.549,0l0,188.858l-192.549,0l0,-188.858z" fill="#ffffff" id="svg_86" transform="matrix(6.7275087,0,0,-6.7275087,-1292.2988,3319.707)"/>
   </clipPath>
   <g clip-path="url(#cp28)" id="svg_87">
    <path d="m319.552876,176.488881c-0.921301,-0.562044 -3.318067,-1.353069 -4.939002,-1.741642l0,0.041633c3.435828,1.87348 3.983066,3.559611 3.435828,6.189421c-1.115259,4.96819 -5.791032,6.682077 -11.076388,5.530234c-3.207234,-0.721637 -5.680199,-2.345319 -7.335769,-4.392269c-0.23552,-0.756331 -0.311718,-2.088583 0,-3.580428c0.380989,-1.658376 1.350779,-3.594305 3.705983,-4.753087c-0.505676,-0.908985 -1.350779,-1.894296 -2.583798,-2.400829c-0.886665,1.221231 -1.891091,3.136344 -2.313642,5.065334c-1.357706,6.036768 2.38984,11.449042 9.29613,12.975581c5.797959,1.276742 10.383681,-1.471028 11.623627,-7.091467c0.581874,-2.497973 0.422551,-4.142472 0.187031,-5.842481" fill="#ffffff" id="svg_88"/>
   </g>
   <clipPath fill="#ffffff" id="cp29" transform="translate(111.332, 4.69141) scale(1.02792, 1.02792) translate(-111.332, -4.69141) translate(108.308, 577.646) scale(1.0017, 1.0034) translate(-108.308, -577.646)">
    <path d="m144.066,318.898l192.549,0l0,188.858l-192.549,0l0,-188.858z" fill="#ffffff" id="svg_89" transform="matrix(6.7275087,0,0,-6.7275087,-1292.2988,3319.707)"/>
   </clipPath>
   <g clip-path="url(#cp29)" id="svg_90">
    <path d="m300.878774,171.823116c-0.782759,1.131027 -1.690206,2.893485 -2.091976,4.704515c-0.602655,2.685321 -0.187031,5.273498 1.212238,7.473102c1.593227,2.51185 4.370982,4.315942 7.820664,5.079211c0.907446,0.201226 1.794112,0.298369 2.646141,0.298369c4.377909,0 7.57129,-2.664504 8.554934,-7.126161c0.547239,-2.345319 0.429478,-3.913491 0.207812,-5.544112c-0.561093,-0.305308 -1.558591,-0.686943 -2.583798,-1.013067c1.994997,1.609805 2.182028,3.254303 1.752549,5.349825c-0.886665,3.92043 -3.934577,6.154727 -8.367903,6.154727c-1.004425,0 -2.05734,-0.11796 -3.131036,-0.353879c-3.103328,-0.693881 -5.707907,-2.255114 -7.529727,-4.510229l-0.069271,-0.11796c-0.221666,-0.735514 -0.346354,-2.109399 -0.006927,-3.746959c0.498749,-2.151032 1.724841,-3.809409 3.560515,-4.829414c-0.367135,-0.568983 -1.004425,-1.34613 -1.974215,-1.817969m9.587067,18.262957l0,0c-0.900519,0 -1.842601,-0.111021 -2.798537,-0.319185c-3.629786,-0.804902 -6.566864,-2.720015 -8.263997,-5.384519c-1.496248,-2.366135 -1.946507,-5.134722 -1.30229,-8.007391c0.45026,-2.040011 1.517029,-4.024512 2.369059,-5.197171l0.159323,-0.222042l0.263229,0.104082c1.510102,0.617554 2.375986,1.859602 2.756975,2.553483l0.180104,0.319185l-0.332499,0.159593c-1.849528,0.922862 -3.040985,2.442462 -3.518952,4.524106c-0.297864,1.457151 -0.207812,2.685321 -0.027708,3.33063c1.731768,2.10246 4.177024,3.559611 7.100249,4.21186c1.025207,0.228981 2.022705,0.340002 2.978641,0.340002c4.080045,0 6.878582,-2.040011 7.682123,-5.599622c0.491822,-2.393891 0.11776,-3.955124 -3.262651,-5.807787l-0.187031,-0.097143l0,-0.652248l0.436406,0.069388c1.669424,0.395512 4.093899,1.207354 5.035981,1.776336l0.145469,0.090205l0.020781,0.159593c0.242448,1.762459 0.394843,3.427774 -0.193958,5.967379c-1.052915,4.808598 -4.509524,7.681266 -9.240714,7.681266" fill="#ffffff" id="svg_91"/>
   </g>
   <clipPath fill="#ffffff" id="cp30" transform="translate(111.332, 4.69141) scale(1.02792, 1.02792) translate(-111.332, -4.69141) translate(108.308, 577.646) scale(1.0017, 1.0034) translate(-108.308, -577.646)">
    <path d="m144.066,318.898l192.549,0l0,188.858l-192.549,0l0,-188.858z" fill="#ffffff" id="svg_92" transform="matrix(6.7275087,0,0,-6.7275087,-1292.2988,3319.707)"/>
   </clipPath>
   <g clip-path="url(#cp30)" id="svg_93">
    <path d="m505.858531,262.491167c2.853954,-4.600433 0.85203,-7.83392 -1.385414,-9.242499c-5.410043,-3.365324 -10.349045,4.426963 -14.325185,1.970623c-1.080623,-0.673065 -1.662497,-1.505722 -1.891091,-2.477156c0.076198,-0.249797 0.228593,-0.888168 0.692707,-1.582049c1.039061,-1.679193 2.701558,-2.497973 4.980565,-2.421646c-0.380989,-1.290619 -0.85203,-2.123277 -1.891091,-2.990629c-1.426977,0.749392 -2.62536,2.005317 -3.59515,3.559611c-2.313642,3.788592 -0.921301,6.820853 1.239946,8.139228c5.13296,3.184915 9.34462,-5.016762 14.553778,-1.762459c0.810467,0.478778 1.620935,1.450212 2.001924,2.33838c0,0.40939 -0.180104,1.429396 -0.761978,2.303686c-1.510102,2.477156 -3.671348,3.247365 -6.525302,2.879608l-0.083125,0.055511c0.893592,1.068577 1.856455,2.088583 3.172599,2.803281c1.115259,-0.541227 2.853954,-2.005317 3.816817,-3.573489" fill="#ffffff" id="svg_94"/>
   </g>
   <clipPath fill="#ffffff" id="cp31" transform="translate(111.332, 4.69141) scale(1.02792, 1.02792) translate(-111.332, -4.69141) translate(108.308, 577.646) scale(1.0017, 1.0034) translate(-108.308, -577.646)">
    <path d="m144.066,318.898l192.549,0l0,188.858l-192.549,0l0,-188.858z" fill="#ffffff" id="svg_95" transform="matrix(6.7275087,0,0,-6.7275087,-1292.2988,3319.707)"/>
   </clipPath>
   <g clip-path="url(#cp31)" id="svg_96">
    <path d="m499.644723,263.621548c0.671926,0.756331 1.440831,1.491845 2.396767,2.04695c1.08755,-0.58286 2.646141,-1.942868 3.512025,-3.365324c2.62536,-4.218798 1.066769,-7.285754 -1.267654,-8.756782c-0.872811,-0.541227 -1.766403,-0.804902 -2.729266,-0.804902c-1.77333,0 -3.505098,0.888168 -5.18145,1.748581c-1.565518,0.804902 -3.054839,1.568172 -4.49567,1.568172c-0.699634,0 -1.323071,-0.17347 -1.918799,-0.541227c-1.108331,-0.693881 -1.780257,-1.575111 -2.050413,-2.69226l-0.020781,-0.090205l0.027708,-0.090205c0.110833,-0.381635 0.290937,-1.006128 0.741197,-1.679193c1.025207,-1.658376 2.639214,-2.532667 4.786607,-2.5743c-0.332499,-0.964495 -0.748124,-1.595927 -1.447758,-2.22042c-1.212238,0.693881 -2.306715,1.81103 -3.248797,3.323692c-1.01828,1.651438 -1.364633,3.302875 -1.011352,4.760026c0.290937,1.207354 1.045988,2.234298 2.126611,2.893485c0.761978,0.471839 1.523956,0.693881 2.348277,0.693881c1.517029,0 2.978641,-0.770208 4.523378,-1.595927c1.565518,-0.832658 3.186453,-1.69307 4.911294,-1.69307c0.976717,0 1.884164,0.270614 2.777756,0.832658c0.845103,0.506533 1.710987,1.512661 2.140465,2.497973l0.027708,0.138776c0,0.506533 -0.221666,1.582049 -0.824322,2.497973c-1.378487,2.262053 -3.345776,3.288998 -6.123532,3.10165m2.382913,2.837975l-0.159323,-0.083266c-1.385414,-0.756331 -2.38984,-1.838786 -3.262651,-2.893485l-0.242448,-0.284491l0.491822,-0.360818l0.145469,0.013878c2.881662,0.374696 4.807388,-0.4649 6.172021,-2.713076c0.512603,-0.763269 0.699634,-1.658376 0.720415,-2.04695c-0.380989,-0.825719 -1.122186,-1.686132 -1.828747,-2.109399c-0.789686,-0.492656 -1.579372,-0.728575 -2.417548,-0.728575c-1.544737,0 -3.020203,0.784086 -4.585722,1.609805c-1.551664,0.832658 -3.158745,1.679193 -4.84895,1.679193c-0.955936,0 -1.842601,-0.256736 -2.715412,-0.797964c-1.239946,-0.756331 -2.10583,-1.935929 -2.445256,-3.323692c-0.394843,-1.644499 -0.013854,-3.476345 1.094477,-5.301253c1.073696,-1.706948 2.320569,-2.942057 3.726765,-3.68451l0.207812,-0.104082l0.187031,0.145715c1.025207,0.860413 1.565518,1.713887 1.994997,3.164099l0.145469,0.471839l-0.491822,-0.020816c-0.096979,-0.006939 -0.187031,-0.006939 -0.28401,-0.006939c-2.008851,0 -3.442755,0.742453 -4.384836,2.262053c-0.387916,0.58286 -0.547239,1.117149 -0.623436,1.40164c0.23552,0.888168 0.796613,1.602866 1.710987,2.171849c0.471041,0.29143 0.976717,0.437145 1.544737,0.437145c1.274581,0 2.680777,-0.728575 4.177024,-1.491845c1.745622,-0.895107 3.553588,-1.824908 5.500095,-1.824908c1.101404,0 2.112757,0.298369 3.096401,0.908985c2.5076,1.575111 4.391764,5.065334 1.503175,9.728216c-1.01828,1.658376 -2.805464,3.143282 -3.969212,3.705326l-0.159323,0.076327z" fill="#ffffff" id="svg_97"/>
   </g>
   <clipPath fill="#ffffff" id="cp32" transform="translate(111.332, 4.69141) scale(1.02792, 1.02792) translate(-111.332, -4.69141) translate(108.308, 577.646) scale(1.0017, 1.0034) translate(-108.308, -577.646)">
    <path d="m144.066,318.898l192.549,0l0,188.858l-192.549,0l0,-188.858z" fill="#ffffff" id="svg_98" transform="matrix(6.7275087,0,0,-6.7275087,-1292.2988,3319.707)"/>
   </clipPath>
   <g clip-path="url(#cp32)" id="svg_99">
    <path d="m491.266389,278.406253c-0.429478,0.402451 -0.962863,0.499595 -1.503175,0l-5.562439,-5.356764c-0.110833,-0.11796 -0.110833,-0.23592 -0.076198,-0.29143l3.35963,-3.476345c0.73427,-0.777147 1.510102,-1.838786 0.699634,-2.942057c-0.505676,0.673065 -1.198383,1.46409 -1.93958,2.241237l-3.006349,3.171038c-0.11776,0.076327 -0.187031,0.17347 -0.311718,0.034694l-4.592649,-4.38533c-0.658072,-0.617554 -1.004425,-1.144904 -1.115259,-1.373885c0,0 0.304791,-0.402451 0.886665,-1.026944c3.47739,-3.573489 4.945929,-3.441651 7.218009,-2.393891l0,-0.020816c-0.810467,-1.484906 -2.244371,-2.997567 -2.930151,-3.656755l-8.617277,8.971886c0.540312,-0.097143 1.163748,-0.131837 1.856455,0.52735l12.628052,12.115168c0.761978,0.763269 0.73427,1.373885 0.651145,1.901235l8.797381,-9.186989c-0.609582,-1.061638 -2.119684,-2.900424 -3.470463,-4.218798l-0.076198,0.041633c1.274581,2.497973 1.544737,4.704515 -1.738695,8.132289l-1.156821,1.193476z" fill="#ffffff" id="svg_100"/>
   </g>
   <clipPath fill="#ffffff" id="cp33" transform="translate(111.332, 4.69141) scale(1.02792, 1.02792) translate(-111.332, -4.69141) translate(108.308, 577.646) scale(1.0017, 1.0034) translate(-108.308, -577.646)">
    <path d="m144.066,318.898l192.549,0l0,188.858l-192.549,0l0,-188.858z" fill="#ffffff" id="svg_101" transform="matrix(6.7275087,0,0,-6.7275087,-1292.2988,3319.707)"/>
   </clipPath>
   <g clip-path="url(#cp33)" id="svg_102">
    <path d="m474.631142,267.524065c0.45026,0.062449 0.85203,0.284491 1.246873,0.64531l12.621125,12.122107c0.464114,0.4649 0.678853,0.881229 0.761978,1.28368l8.014622,-8.368209c-0.477968,-0.742453 -1.288435,-1.776336 -2.154319,-2.726954c0.658072,2.095522 0.242448,4.170227 -2.438329,6.973507l-1.163748,1.193476c-0.616509,0.589799 -1.378487,0.589799 -1.994997,0.013878l-5.569366,-5.356764c-0.249375,-0.263675 -0.242448,-0.562044 -0.124687,-0.735514l3.401192,-3.531856c0.782759,-0.832658 1.073696,-1.471028 0.893592,-2.053889c-0.436406,0.541227 -0.990571,1.172659 -1.620935,1.838786l-3.110255,3.247365c-0.069271,0.055511 -0.187031,0.138776 -0.353281,0.138776c-0.096979,0 -0.242448,-0.034694 -0.374062,-0.180409l-4.571867,-4.371452c-0.644218,-0.603677 -1.039061,-1.158782 -1.198383,-1.471028l-0.090052,-0.194287l0.131614,-0.17347c0.013854,-0.013878 0.325572,-0.430206 0.907446,-1.0547c2.175101,-2.241237 3.671348,-3.150221 5.160669,-3.150221c0.498749,0 0.997498,0.104082 1.468539,0.270614c-0.623436,-0.908985 -1.426977,-1.804091 -2.078122,-2.45634l-7.765248,8.097595zm13.771019,15.966209l0.16625,-1.103271c0.076198,-0.492656 0.083125,-0.964495 -0.554166,-1.588988l-12.628052,-12.115168c-0.45026,-0.430206 -0.817394,-0.485717 -1.08755,-0.485717c-0.159323,0 -0.311718,0.020816 -0.457187,0.048572l-1.059842,0.194287l9.600922,-10.005769l0.249375,0.242858c0.332499,0.312247 2.043486,1.977562 2.999422,3.74002l0.041562,0.166532l0,0.548166l-0.498749,-0.208164c-0.80354,-0.367757 -1.475466,-0.610616 -2.168173,-0.610616c-1.281508,0 -2.62536,0.846535 -4.654992,2.935118c-0.325572,0.353879 -0.56802,0.638371 -0.713488,0.811841c0.16625,0.249797 0.464114,0.64531 0.942082,1.082455l4.481815,4.295125l2.937078,-3.10165c0.782759,-0.832658 1.447758,-1.595927 1.904945,-2.206543l0.277083,-0.381635l0.277083,0.381635c1.094477,1.477967 -0.270156,2.92124 -0.720415,3.39308l-3.228015,3.337569l5.500095,5.294315c0.339427,0.319185 0.678853,0.319185 1.01828,0l1.142967,-1.200415c3.068693,-3.191854 2.944006,-5.245743 1.676351,-7.709022l-0.152396,-0.305308l0.526457,-0.29143l0.263229,0.138776c1.364633,1.332252 2.881662,3.177976 3.532807,4.295125l0.131614,0.228981l-9.74639,10.179239z" fill="#ffffff" id="svg_103"/>
   </g>
   <clipPath fill="#ffffff" id="cp34" transform="translate(111.332, 4.69141) scale(1.02792, 1.02792) translate(-111.332, -4.69141) translate(108.308, 577.646) scale(1.0017, 1.0034) translate(-108.308, -577.646)">
    <path d="m144.066,318.898l192.549,0l0,188.858l-192.549,0l0,-188.858z" fill="#ffffff" id="svg_104" transform="matrix(6.7275087,0,0,-6.7275087,-1292.2988,3319.707)"/>
   </clipPath>
   <g clip-path="url(#cp34)" id="svg_105">
    <path d="m474.088016,293.153693c-1.974215,1.561233 -3.013276,1.588988 -4.551086,-0.326124l-8.651913,-10.866182c-0.886665,-1.117149 -0.928228,-1.415518 -0.928228,-1.415518c0,0 0.353281,-0.423268 1.045988,-0.943679c5.091398,-4.080022 10.383681,-3.018384 13.971904,1.505722c3.35963,4.191043 3.089474,8.853926 -0.886665,12.04578m2.320569,-14.738039c-3.941504,-4.905741 -9.732536,-4.808598 -15.32961,-0.305308l-4.751971,3.774714c0.498749,-0.041633 1.156821,0.013878 1.780257,0.749392l10.88243,13.68334c0.658072,0.839596 0.547239,1.477967 0.387916,1.977562l5.167596,-4.0939c5.333845,-4.274309 5.874157,-10.755161 1.863382,-15.7858" fill="#ffffff" id="svg_106"/>
   </g>
   <clipPath fill="#ffffff" id="cp35" transform="translate(111.332, 4.69141) scale(1.02792, 1.02792) translate(-111.332, -4.69141) translate(108.308, 577.646) scale(1.0017, 1.0034) translate(-108.308, -577.646)">
    <path d="m144.066,318.898l192.549,0l0,188.858l-192.549,0l0,-188.858z" fill="#ffffff" id="svg_107" transform="matrix(6.7275087,0,0,-6.7275087,-1292.2988,3319.707)"/>
   </clipPath>
   <g clip-path="url(#cp35)" id="svg_108">
    <path d="m460.368293,280.623166c0.090052,0.166532 0.304791,0.506533 0.796613,1.117149l8.644986,10.87312c0.755051,0.929801 1.336925,1.339191 1.932653,1.339191c0.540312,0 1.198383,-0.333063 2.126611,-1.075516c1.863382,-1.498784 2.923224,-3.365324 3.061766,-5.391458c0.145469,-2.033072 -0.630364,-4.163288 -2.230517,-6.161666c-2.029632,-2.553483 -4.530305,-3.92043 -7.224936,-3.92043c-2.10583,0 -4.21166,0.839596 -6.255146,2.470218c-0.415624,0.312247 -0.699634,0.58286 -0.85203,0.749392m11.374252,14.03028c-0.831249,0 -1.579372,-0.485717 -2.479892,-1.602866l-8.651913,-10.866182c-0.609582,-0.784086 -0.962863,-1.339191 -0.997498,-1.588988l-0.020781,-0.145715l0.096979,-0.124899c0.013854,-0.020816 0.380989,-0.457962 1.101404,-1.006128c2.161246,-1.727765 4.412545,-2.608994 6.684624,-2.608994c2.874735,0 5.631709,1.484906 7.772175,4.177166c1.710987,2.137154 2.542235,4.433902 2.38984,6.640444c-0.159323,2.241237 -1.309217,4.281248 -3.331922,5.897991c-1.073696,0.860413 -1.835674,1.22817 -2.563017,1.22817m-14.512216,-13.031091c0.429478,0.124899 0.810467,0.381635 1.142967,0.791025l10.896284,13.690279c0.394843,0.506533 0.554166,0.964495 0.574947,1.366946l4.488743,-3.545734c5.029054,-4.031451 5.763324,-10.318015 1.801039,-15.286206c-1.863382,-2.324502 -4.239368,-3.552672 -6.864728,-3.552672c-2.535308,0 -5.292283,1.137965 -7.97306,3.295936l-4.066191,3.240426zm11.478158,17.652341l0.332499,-1.089394c0.145469,-0.451023 0.228593,-0.943679 -0.318645,-1.644499l-10.889357,-13.68334c-0.56802,-0.673065 -1.115259,-0.64531 -1.475466,-0.617554l-1.142967,0.083266l5.645564,-4.489412c2.805464,-2.255114 5.714834,-3.44859 8.409465,-3.44859c2.847027,0 5.403116,1.318375 7.411967,3.809409c4.225514,5.294315 3.442755,11.990269 -1.911872,16.278456l-6.061188,4.801659z" fill="#ffffff" id="svg_109"/>
   </g>
   <clipPath fill="#ffffff" id="cp36" transform="translate(111.332, 4.69141) scale(1.02792, 1.02792) translate(-111.332, -4.69141) translate(108.308, 577.646) scale(1.0017, 1.0034) translate(-108.308, -577.646)">
    <path d="m144.066,318.898l192.549,0l0,188.858l-192.549,0l0,-188.858z" fill="#ffffff" id="svg_110" transform="matrix(6.7275087,0,0,-6.7275087,-1292.2988,3319.707)"/>
   </clipPath>
   <g clip-path="url(#cp36)" id="svg_111">
    <path d="m451.579351,299.553399c-1.233019,0.64531 -2.27208,1.124088 -2.895516,1.387763l-0.034635,-0.416329l-1.738695,-10.095973l7.876081,7.403714c-0.775832,0.430206 -2.085049,1.144904 -3.207234,1.720826m9.656338,0.804902l-14.789298,-13.842933l-1.814893,1.824908c0.23552,0.152654 0.581874,0.52735 0.768905,0.929801c0.11776,0.215103 0.277083,0.596738 0.353281,0.978373l1.662497,10.859243l0.73427,6.584934c0.152396,1.332252 -0.159323,1.956745 -0.782759,2.69226l3.35963,-1.700009c-0.304791,-0.062449 -0.457187,-0.29143 -0.574947,-0.52735c-0.110833,-0.208164 -0.23552,-0.714698 -0.311718,-1.200415l-0.921301,-4.808598c0.415624,-0.249797 1.426977,-0.87429 3.089474,-1.706948c1.65557,-0.846535 3.124109,-1.46409 3.705983,-1.741642l3.588223,3.33063c0.727343,0.680004 0.928228,1.450212 0.810467,1.894296l3.899941,-1.970623c-1.122186,-0.055511 -1.544737,-0.40939 -2.777756,-1.595927" fill="#ffffff" id="svg_112"/>
   </g>
   <clipPath fill="#ffffff" id="cp37" transform="translate(111.332, 4.69141) scale(1.02792, 1.02792) translate(-111.332, -4.69141) translate(108.308, 577.646) scale(1.0017, 1.0034) translate(-108.308, -577.646)">
    <path d="m144.066,318.898l192.549,0l0,188.858l-192.549,0l0,-188.858z" fill="#ffffff" id="svg_113" transform="matrix(6.7275087,0,0,-6.7275087,-1292.2988,3319.707)"/>
   </clipPath>
   <g clip-path="url(#cp37)" id="svg_114">
    <path d="m447.436803,291.403355l1.551664,9.020457c0.540312,-0.23592 1.399269,-0.64531 2.431402,-1.179598c0.935155,-0.485717 2.001924,-1.0547 2.770829,-1.484906l-6.753895,-6.355953zm0.949009,10.05434l-0.083125,-0.902046l-1.911872,-11.102101l8.984412,8.458413l-0.422551,0.228981c-0.768905,0.430206 -2.085049,1.144904 -3.207234,1.727765c-1.413123,0.721637 -2.514527,1.214292 -2.916297,1.40164l-0.443333,0.187348zm-3.234943,-13.142112c0.207812,0.208164 0.422551,0.499595 0.56802,0.804902c0.124687,0.222042 0.290937,0.64531 0.380989,1.061638l1.662497,10.87312l0.73427,6.598811c0.090052,0.784086 0.027708,1.360007 -0.159323,1.845724l1.70406,-0.860413c-0.103906,-0.124899 -0.16625,-0.256736 -0.200885,-0.319185c-0.173177,-0.319185 -0.297864,-1.020006 -0.346354,-1.304497l-0.96979,-5.044517l0.311718,-0.187348c0.477968,-0.284491 1.468539,-0.888168 3.020203,-1.651438c1.2538,-0.652248 2.38984,-1.151843 3.144891,-1.491845c0.23552,-0.104082 0.422551,-0.187348 0.56802,-0.256736l0.214739,-0.097143l3.754473,3.483284c0.554166,0.513472 0.838176,1.096333 0.928228,1.582049l2.472965,-1.248986c-0.609582,-0.23592 -1.115259,-0.686943 -1.946507,-1.491845l-14.539924,-13.600074l-1.30229,1.304497zm0.85203,23.15482l1.101404,-1.318375c0.581874,-0.693881 0.831249,-1.22817 0.692707,-2.414707l-0.73427,-6.598811l-1.65557,-10.831488c-0.069271,-0.333063 -0.207812,-0.680004 -0.311718,-0.867352c-0.180104,-0.374696 -0.484895,-0.693881 -0.658072,-0.804902l-0.353281,-0.23592l2.355204,-2.366135l15.038673,14.078852c1.2538,1.200415 1.586299,1.436334 2.549162,1.491845l1.323071,0.062449l-5.763324,2.92124l0.187031,-0.749392c0.076198,-0.29143 -0.055417,-0.943679 -0.706561,-1.547355l-3.415046,-3.171038c-0.110833,0.041633 -0.228593,0.097143 -0.360208,0.166532c-0.748124,0.326124 -1.877236,0.832658 -3.124109,1.471028c-1.42005,0.714698 -2.355204,1.262864 -2.860881,1.568172l0.879738,4.565739c0.096979,0.58286 0.207812,0.978373 0.277083,1.096333c0.110833,0.23592 0.200885,0.319185 0.339427,0.353879l0.997498,0.194287l-5.797959,2.935118z" fill="#ffffff" id="svg_115"/>
   </g>
   <clipPath fill="#ffffff" id="cp38" transform="translate(111.332, 4.69141) scale(1.02792, 1.02792) translate(-111.332, -4.69141) translate(108.308, 577.646) scale(1.0017, 1.0034) translate(-108.308, -577.646)">
    <path d="m144.066,318.898l192.549,0l0,188.858l-192.549,0l0,-188.858z" fill="#ffffff" id="svg_116" transform="matrix(6.7275087,0,0,-6.7275087,-1292.2988,3319.707)"/>
   </clipPath>
   <g clip-path="url(#cp38)" id="svg_117">
    <path d="m430.773768,314.016061c-2.431402,0.562044 -3.394265,0.11796 -3.934577,-2.28287l-3.054839,-13.56538c-0.311718,-1.373885 -0.187031,-1.672254 -0.187031,-1.672254c0,0 0.498749,-0.208164 1.309217,-0.402451c6.331344,-1.429396 10.695399,1.852663 11.928418,7.459224c1.198383,5.238804 -1.080623,9.346582 -6.061188,10.46373m8.534153,-12.240067c-1.392341,-6.106156 -6.684624,-8.562496 -13.667113,-7.001263l-5.943428,1.339191c0.498749,0.208164 1.073696,0.534289 1.267654,1.471028l3.865306,17.090297c0.228593,1.026944 -0.152396,1.526539 -0.505676,1.92899l6.407541,-1.443273c6.684624,-1.5196 9.961129,-7.084528 8.575715,-13.384971" fill="#ffffff" id="svg_118"/>
   </g>
   <clipPath fill="#ffffff" id="cp39" transform="translate(111.332, 4.69141) scale(1.02792, 1.02792) translate(-111.332, -4.69141) translate(108.308, 577.646) scale(1.0017, 1.0034) translate(-108.308, -577.646)">
    <path d="m144.066,318.898l192.549,0l0,188.858l-192.549,0l0,-188.858z" fill="#ffffff" id="svg_119" transform="matrix(6.7275087,0,0,-6.7275087,-1292.2988,3319.707)"/>
   </clipPath>
   <g clip-path="url(#cp39)" id="svg_120">
    <path d="m423.918829,296.749019c0.006927,0.17347 0.041562,0.575922 0.214739,1.332252l3.047912,13.572319c0.422551,1.866541 1.059842,2.234298 2.029632,2.234298c0.387916,0 0.879738,-0.076327 1.482393,-0.215103c2.230517,-0.499595 3.948431,-1.630621 4.980565,-3.27512c1.13604,-1.804091 1.42005,-4.142472 0.817394,-6.765343c-1.039061,-4.711454 -4.301712,-7.521674 -8.735038,-7.521674c-0.886665,0 -1.814893,0.111021 -2.770829,0.326124c-0.484895,0.11796 -0.858957,0.23592 -1.066769,0.312247m5.292283,17.839689c-1.482393,0 -2.27208,-0.804902 -2.715412,-2.775525l-3.047912,-13.572319c-0.297864,-1.290619 -0.23552,-1.720826 -0.173177,-1.87348l0.055417,-0.131837l0.131614,-0.055511c0.020781,-0.013878 0.533385,-0.23592 1.357706,-0.430206c1.01828,-0.228981 1.994997,-0.340002 2.937078,-0.340002c4.786607,0 8.312486,3.018384 9.413891,8.06984c0.651145,2.796342 0.332499,5.32207 -0.900519,7.285754c-1.142967,1.81103 -3.006349,3.053078 -5.41697,3.594305c-0.671926,0.152654 -1.191456,0.228981 -1.641716,0.228981m-8.589569,-18.325406c0.304791,0.277553 0.56802,0.659187 0.692707,1.248986l3.858379,17.083358c0.145469,0.638371 0.069271,1.11021 -0.083125,1.477967l5.569366,-1.255925c6.359052,-1.436334 9.697901,-6.654322 8.298632,-12.961703c-1.052915,-4.635127 -4.391764,-7.188611 -9.413891,-7.188611c-1.205311,0 -2.493746,0.152654 -3.830671,0.457962l-5.091398,1.137965zm2.756975,20.920522l0.68578,-0.804902c0.290937,-0.340002 0.623436,-0.735514 0.422551,-1.623682l-3.858379,-17.097236c-0.16625,-0.784086 -0.637291,-1.040822 -1.073696,-1.221231l-1.011352,-0.423268l7.017124,-1.582049c1.392341,-0.305308 2.729266,-0.4649 3.983066,-0.4649c5.306137,0 8.991339,2.817158 10.099671,7.736777c1.461612,6.612689 -2.168173,12.288638 -8.832017,13.794361l-7.432748,1.686132z" fill="#ffffff" id="svg_121"/>
   </g>
   <clipPath fill="#ffffff" id="cp40" transform="translate(111.332, 4.69141) scale(1.02792, 1.02792) translate(-111.332, -4.69141) translate(108.308, 577.646) scale(1.0017, 1.0034) translate(-108.308, -577.646)">
    <path d="m144.066,318.898l192.549,0l0,188.858l-192.549,0l0,-188.858z" fill="#ffffff" id="svg_122" transform="matrix(6.7275087,0,0,-6.7275087,-1292.2988,3319.707)"/>
   </clipPath>
   <g clip-path="url(#cp40)" id="svg_123">
    <path d="m409.96846,317.902472l4.398691,-0.326124c-0.692707,-0.430206 -0.962863,-0.867352 -1.004425,-1.720826l-1.274581,-17.347033c-0.069271,-0.846535 0.193958,-1.366946 0.775832,-1.894296l-4.405618,0.333063c0.699634,0.430206 0.96979,0.867352 1.045988,1.720826l1.239946,17.353972c0.069271,0.860413 -0.159323,1.373885 -0.775832,1.880418" fill="#ffffff" id="svg_124"/>
   </g>
   <clipPath fill="#ffffff" id="cp41" transform="translate(111.332, 4.69141) scale(1.02792, 1.02792) translate(-111.332, -4.69141) translate(108.308, 577.646) scale(1.0017, 1.0034) translate(-108.308, -577.646)">
    <path d="m144.066,318.898l192.549,0l0,188.858l-192.549,0l0,-188.858z" fill="#ffffff" id="svg_125" transform="matrix(6.7275087,0,0,-6.7275087,-1292.2988,3319.707)"/>
   </clipPath>
   <g clip-path="url(#cp41)" id="svg_126">
    <path d="m409.349063,297.231731c0.304791,0.360818 0.45026,0.797964 0.505676,1.40164l1.233019,17.36785c0.055417,0.596738 -0.027708,1.068577 -0.28401,1.484906l2.680777,-0.201226c-0.297864,-0.367757 -0.443333,-0.811841 -0.471041,-1.415518l-1.267654,-17.333156c-0.055417,-0.589799 0.034635,-1.075516 0.304791,-1.505722l-2.701558,0.201226zm-0.464114,21.100931l0.858957,-0.707759c0.540312,-0.437145 0.706561,-0.846535 0.644218,-1.568172l-1.233019,-17.36785c-0.069271,-0.735514 -0.270156,-1.075516 -0.879738,-1.443273l-0.921301,-0.575922l6.497593,-0.478778l-0.755051,0.686943c-0.547239,0.492656 -0.720415,0.915923 -0.658072,1.602866l1.281508,17.347033c0.027708,0.735514 0.228593,1.075516 0.838176,1.450212l0.921301,0.568983l-6.594572,0.485717z" fill="#ffffff" id="svg_127"/>
   </g>
   <clipPath fill="#ffffff" id="cp42" transform="translate(111.332, 4.69141) scale(1.02792, 1.02792) translate(-111.332, -4.69141) translate(108.308, 577.646) scale(1.0017, 1.0034) translate(-108.308, -577.646)">
    <path d="m144.066,318.898l192.549,0l0,188.858l-192.549,0l0,-188.858z" fill="#ffffff" id="svg_128" transform="matrix(6.7275087,0,0,-6.7275087,-1292.2988,3319.707)"/>
   </clipPath>
   <g clip-path="url(#cp42)" id="svg_129">
    <path d="m397.809947,307.907165l-0.658072,4.91268l-0.505676,-0.964495l-11.270346,-17.54132l-0.11776,1.87348l-2.542235,17.118052c-0.11776,0.915923 -0.505676,1.443273 -1.392341,1.87348l3.865306,0.520411c-0.893592,-0.680004 -1.004425,-1.255925 -0.928228,-2.206543l0.886665,-8.014329l0.692707,-5.6135l0.387916,0.714698l11.270346,17.298462l2.895516,-19.310717c0.11776,-0.929801 0.498749,-1.443273 1.385414,-1.852663l-3.851452,-0.52735c0.845103,0.638371 1.039061,1.242048 0.921301,2.206543l-1.039061,9.513113z" fill="#ffffff" id="svg_130"/>
   </g>
   <clipPath fill="#ffffff" id="cp43" transform="translate(111.332, 4.69141) scale(1.02792, 1.02792) translate(-111.332, -4.69141) translate(108.308, 577.646) scale(1.0017, 1.0034) translate(-108.308, -577.646)">
    <path d="m144.066,318.898l192.549,0l0,188.858l-192.549,0l0,-188.858z" fill="#ffffff" id="svg_131" transform="matrix(6.7275087,0,0,-6.7275087,-1292.2988,3319.707)"/>
   </clipPath>
   <g clip-path="url(#cp43)" id="svg_132">
    <path d="m385.623034,298.735292l0.914373,1.679193l10.750816,16.500498l2.763902,-18.401733c0.083125,-0.686943 0.311718,-1.179598 0.741197,-1.575111l-1.911872,-0.263675c0.311718,0.478778 0.40177,1.026944 0.311718,1.762459l-1.039061,9.506174l-0.796613,6.015951l-1.025207,-1.942868l-10.667691,-16.611519l-0.055417,0.804902l-2.549162,17.145808c-0.090052,0.693881 -0.318645,1.200415 -0.755051,1.595927l1.925726,0.270614c-0.332499,-0.520411 -0.374062,-1.061638 -0.325572,-1.75552l0.893592,-8.035146l0.824322,-6.695955zm12.08774,20.108681l-11.651335,-17.881322l-0.56802,4.5588l-0.886665,8.014329c-0.069271,0.846535 0.027708,1.304497 0.796613,1.887357l1.045988,0.804902l-6.331344,-0.860413l1.059842,-0.506533c0.775832,-0.374696 1.08755,-0.791025 1.184529,-1.602866l2.549162,-17.124991l0.180104,-2.907363l11.859147,18.450305l0.512603,-3.816347l1.039061,-9.506174c0.110833,-0.902046 -0.083125,-1.353069 -0.789686,-1.880418l-1.073696,-0.811841l6.393687,0.867352l-1.101404,0.506533c-0.775832,0.346941 -1.08755,0.770208 -1.191456,1.582049l-3.02713,20.226641z" fill="#ffffff" id="svg_133"/>
   </g>
   <clipPath fill="#ffffff" id="cp44" transform="translate(111.332, 4.69141) scale(1.02792, 1.02792) translate(-111.332, -4.69141) translate(108.308, 577.646) scale(1.0017, 1.0034) translate(-108.308, -577.646)">
    <path d="m144.066,318.898l192.549,0l0,188.858l-192.549,0l0,-188.858z" fill="#ffffff" id="svg_134" transform="matrix(6.7275087,0,0,-6.7275087,-1292.2988,3319.707)"/>
   </clipPath>
   <g clip-path="url(#cp44)" id="svg_135">
    <path d="m367.924431,302.956362c-1.267654,-0.499595 -2.313642,-0.957556 -2.923224,-1.214292l0.263229,-0.346941l6.449104,-7.95188l-0.346354,10.803732c-0.810467,-0.319185 -2.244371,-0.784086 -3.442755,-1.290619m2.396767,9.318826l4.052337,1.609805c-0.692707,-0.888168 -0.73427,-1.415518 -0.658072,-3.115527l0.616509,-20.268274l-2.583798,-0.166532c0.076198,0.29143 0,0.770208 -0.159323,1.179598c-0.110833,0.228981 -0.304791,0.589799 -0.533385,0.908985l-7.024051,8.444536l-4.440253,4.891863c-0.886665,0.99225 -1.586299,1.172659 -2.549162,1.200415l3.512025,1.436334c-0.152396,-0.298369 -0.083125,-0.589799 0,-0.811841c0.11776,-0.242858 0.422551,-0.666126 0.699634,-1.0547l3.006349,-3.864919c0.429478,0.152654 1.579372,0.506533 3.318067,1.200415c1.738695,0.70082 3.165672,1.366946 3.747546,1.644499l-0.11776,4.919619c-0.041562,0.957556 -0.498749,1.630621 -0.886665,1.845724" fill="#ffffff" id="svg_136"/>
   </g>
   <clipPath fill="#ffffff" id="cp45" transform="translate(111.332, 4.69141) scale(1.02792, 1.02792) translate(-111.332, -4.69141) translate(108.308, 577.646) scale(1.0017, 1.0034) translate(-108.308, -577.646)">
    <path d="m144.066,318.898l192.549,0l0,188.858l-192.549,0l0,-188.858z" fill="#ffffff" id="svg_137" transform="matrix(6.7275087,0,0,-6.7275087,-1292.2988,3319.707)"/>
   </clipPath>
   <g clip-path="url(#cp45)" id="svg_138">
    <path d="m365.552645,301.590045c0.110833,0.041633 0.221666,0.097143 0.346354,0.145715c0.581874,0.249797 1.316144,0.568983 2.161246,0.895107c0.699634,0.298369 1.48932,0.58286 2.182028,0.825719c0.277083,0.111021 0.547239,0.194287 0.789686,0.284491l0.297864,-9.263316l-5.777178,7.112284zm6.15124,3.171038l-0.471041,-0.187348c-0.325572,-0.131837 -0.755051,-0.284491 -1.226092,-0.451023c-0.699634,-0.249797 -1.496248,-0.534289 -2.209736,-0.839596c-0.845103,-0.333063 -1.586299,-0.652248 -2.175101,-0.895107c-0.290937,-0.124899 -0.554166,-0.23592 -0.761978,-0.326124l-0.422551,-0.166532l0.547239,-0.714698l7.107176,-8.77066l-0.387916,12.351088zm-0.73427,7.396775l2.583798,1.026944c-0.23552,-0.617554 -0.23552,-1.28368 -0.187031,-2.428585l0.609582,-19.921333l-1.849528,-0.124899c-0.013854,0.333063 -0.110833,0.673065 -0.207812,0.922862c-0.138541,0.298369 -0.346354,0.673065 -0.588801,0.999189l-7.030978,8.465352l-4.44718,4.898802c-0.540312,0.596738 -1.01828,0.929801 -1.523956,1.103271l1.801039,0.735514c0.020781,-0.152654 0.062344,-0.284491 0.090052,-0.374696c0.124687,-0.249797 0.360208,-0.575922 0.602655,-0.929801l0.138541,-0.201226l3.179526,-4.080022l0.242448,0.090205c0.103906,0.041633 0.256302,0.083266 0.45026,0.152654c0.588801,0.194287 1.572445,0.52735 2.881662,1.0547c1.745622,0.686943 3.158745,1.360007 3.7614,1.644499l0.207812,0.097143l-0.124687,5.141661c-0.027708,0.735514 -0.277083,1.339191 -0.588801,1.727765m4.474888,2.525728l-5.943428,-2.359197l0.651145,-0.353879c0.256302,-0.138776 0.671926,-0.686943 0.706561,-1.561233l0.110833,-4.683699c-0.678853,-0.312247 -1.967288,-0.908985 -3.518952,-1.533478c-1.281508,-0.513472 -2.251298,-0.832658 -2.833172,-1.033883c-0.090052,-0.034694 -0.16625,-0.055511 -0.23552,-0.076327l-2.985568,3.851041c-0.207812,0.298369 -0.443333,0.631432 -0.526457,0.804902c-0.055417,0.17347 -0.090052,0.333063 -0.006927,0.492656l0.457187,0.853474l-5.98499,-2.442462l1.70406,-0.034694c0.886665,-0.020816 1.48932,-0.187348 2.285934,-1.082455l4.440253,-4.891863l7.017124,-8.437597c0.200885,-0.263675 0.380989,-0.603677 0.498749,-0.832658c0.138541,-0.374696 0.173177,-0.770208 0.131614,-0.93674l-0.131614,-0.471839l3.415046,0.222042l-0.630364,20.601337c-0.069271,1.672254 -0.034635,2.095522 0.581874,2.886546l0.796613,1.020006z" fill="#ffffff" id="svg_139"/>
   </g>
   <clipPath fill="#ffffff" id="cp46" transform="translate(111.332, 4.69141) scale(1.02792, 1.02792) translate(-111.332, -4.69141) translate(108.308, 577.646) scale(1.0017, 1.0034) translate(-108.308, -577.646)">
    <path d="m144.066,318.898l192.549,0l0,188.858l-192.549,0l0,-188.858z" fill="#ffffff" id="svg_140" transform="matrix(6.7275087,0,0,-6.7275087,-1292.2988,3319.707)"/>
   </clipPath>
   <g clip-path="url(#cp46)" id="svg_141">
    <path d="m335.618096,292.982949c-0.11776,-0.451023 -0.041562,-0.985311 0.540312,-1.741642l5.368481,-6.994324l2.38984,-2.789403l0.193958,-0.374696l-2.320569,15.820494l13.473155,-8.430658l-0.304791,0.402451l-5.597074,10.893937c-0.464114,0.922862 -1.163748,1.394701 -1.697133,1.290619l3.546661,2.400829c-0.187031,-0.603677 -0.263229,-1.255925 0.311718,-2.324502l8.762746,-17.187441l-0.041562,-0.013878l-15.405808,9.638012l2.666923,-18.228263l-0.034635,0l-5.991917,7.098406l-6.712333,7.71596c-0.464114,0.555105 -1.122186,1.026944 -1.925726,0.943679l2.777756,1.880418z" fill="#ffffff" id="svg_142"/>
   </g>
   <clipPath fill="#ffffff" id="cp47" transform="translate(111.332, 4.69141) scale(1.02792, 1.02792) translate(-111.332, -4.69141) translate(108.308, 577.646) scale(1.0017, 1.0034) translate(-108.308, -577.646)">
    <path d="m144.066,318.898l192.549,0l0,188.858l-192.549,0l0,-188.858z" fill="#ffffff" id="svg_143" transform="matrix(6.7275087,0,0,-6.7275087,-1292.2988,3319.707)"/>
   </clipPath>
   <g clip-path="url(#cp47)" id="svg_144">
    <path d="m348.528127,301.227949l2.188955,1.484906c-0.006927,-0.471839 0.110833,-1.033883 0.498749,-1.741642l8.215507,-16.111924l-15.0456,9.422908l2.604579,-17.818873l-5.236866,6.210238l-6.71926,7.722899c-0.374062,0.444084 -0.796613,0.756331 -1.246873,0.929801l1.461612,0.985311c0.076198,-0.402451 0.28401,-0.825719 0.630364,-1.28368l5.368481,-7.001263l2.403694,-2.796342l0.145469,-0.312247l0.955936,-1.797153l-2.500673,17.083358l14.442945,-9.041274l-1.461612,1.935929l-5.562439,10.831488c-0.297864,0.596738 -0.706561,1.047761 -1.142967,1.297558m3.324994,3.094711l-5.777178,-3.906552l1.648643,0.298369l0.013854,0c0.415624,0 0.928228,-0.340002 1.309217,-1.103271l5.18145,-10.075157l-12.891281,8.06984l2.22359,-15.209879l-1.77333,2.081644l-5.354627,6.980446c-0.56802,0.735514 -0.547239,1.172659 -0.477968,1.436334l0.228593,0.888168l-4.689628,-3.164099l1.378487,0.138776c0.720415,0.083266 1.288435,-0.416329 1.627862,-0.825719l6.71926,-7.71596l6.088896,-7.216366l0.56802,0l-0.020781,0.402451l-2.55609,17.478871l14.913986,-9.339643l0.512603,0.222042l-0.124687,0.353879l-8.769673,17.173563c-0.547239,1.026944 -0.443333,1.582049 -0.28401,2.067766l0.304791,0.964495z" fill="#ffffff" id="svg_145"/>
   </g>
   <clipPath fill="#ffffff" id="cp48" transform="translate(111.332, 4.69141) scale(1.02792, 1.02792) translate(-111.332, -4.69141) translate(108.308, 577.646) scale(1.0017, 1.0034) translate(-108.308, -577.646)">
    <path d="m144.066,318.898l192.549,0l0,188.858l-192.549,0l0,-188.858z" fill="#ffffff" id="svg_146" transform="matrix(6.7275087,0,0,-6.7275087,-1292.2988,3319.707)"/>
   </clipPath>
   <g clip-path="url(#cp48)" id="svg_147">
    <path d="m320.598869,279.893188c3.318067,3.705326 7.564362,3.212671 11.429669,-0.270614c5.319991,-4.780842 6.019625,-5.398397 8.25707,-7.098406c0.658072,-0.499595 1.156821,-0.693881 1.932653,-0.499595l-2.396767,-2.671443c0.11776,0.797964 -0.110833,1.255925 -0.692707,1.894296c-2.008851,2.067766 -2.736193,2.761648 -8.263997,7.736777c-2.736193,2.449401 -6.213583,2.976751 -8.838944,0.034694c-2.659996,-2.955934 -1.662497,-5.738399 0.893592,-8.021268l8.838944,-7.965758c0.651145,-0.562044 1.149894,-0.693881 1.967288,-0.52735l-2.971714,-3.316753c0.069271,0.791025 -0.11776,1.325313 -0.73427,1.87348l-8.838944,7.944941c-3.976139,3.559611 -3.976139,7.091467 -0.581874,10.886998" fill="#ffffff" id="svg_148"/>
   </g>
   <clipPath fill="#ffffff" id="cp49" transform="translate(111.332, 4.69141) scale(1.02792, 1.02792) translate(-111.332, -4.69141) translate(108.308, 577.646) scale(1.0017, 1.0034) translate(-108.308, -577.646)">
    <path d="m144.066,318.898l192.549,0l0,188.858l-192.549,0l0,-188.858z" fill="#ffffff" id="svg_149" transform="matrix(6.7275087,0,0,-6.7275087,-1292.2988,3319.707)"/>
   </clipPath>
   <g clip-path="url(#cp49)" id="svg_150">
    <path d="m331.059284,260.053659c-0.110833,0.485717 -0.374062,0.881229 -0.810467,1.269803l-8.832017,7.944941c-1.884164,1.679193 -2.847027,3.33063 -2.937078,5.03064c-0.096979,1.713887 0.68578,3.462468 2.382913,5.356764c1.454685,1.623682 3.117182,2.449401 4.939002,2.449401c1.918799,0 3.99692,-0.943679 5.991917,-2.74777c5.382335,-4.829414 6.047334,-5.419213 8.284778,-7.112284c0.374062,-0.284491 0.782759,-0.555105 1.30229,-0.624493l-1.239946,-1.387763c-0.110833,0.457962 -0.374062,0.839596 -0.755051,1.248986c-1.981143,2.04695 -2.701558,2.740831 -8.284778,7.757593c-1.558591,1.408579 -3.269578,2.137154 -4.932075,2.137154c-1.641716,0 -3.165672,-0.728575 -4.405618,-2.123277c-1.170675,-1.297558 -1.724841,-2.657565 -1.648643,-4.024512c0.076198,-1.526539 0.942082,-3.0392 2.563017,-4.496351l8.838944,-7.958819c0.484895,-0.416329 0.900519,-0.624493 1.37156,-0.673065l-1.828747,-2.04695zm-5.257648,22.752369l0,0c-2.029632,0 -3.865306,-0.902046 -5.46546,-2.678382c-1.82182,-2.040011 -2.659996,-3.962062 -2.55609,-5.863297c0.103906,-1.908174 1.142967,-3.712265 3.165672,-5.523295l8.838944,-7.944941c0.51953,-0.451023 0.68578,-0.881229 0.616509,-1.575111l-0.103906,-1.061638l4.412545,4.919619l-1.059842,-0.228981c-0.713488,-0.159593 -1.080623,-0.062449 -1.669424,0.451023l-8.82509,7.958819c-1.48932,1.325313 -2.27208,2.671443 -2.34135,4.010634c-0.069271,1.172659 0.429478,2.352258 1.475466,3.517978c1.122186,1.255925 2.424475,1.887357 3.87916,1.887357c1.48932,0 3.034057,-0.680004 4.461034,-1.949807c5.604001,-5.044517 6.262073,-5.66901 8.250143,-7.722899c0.554166,-0.610616 0.68578,-0.971434 0.595728,-1.595927l-0.173177,-1.158782l3.941504,4.392269l-1.108331,-0.277553c-0.616509,-0.159593 -0.976717,-0.062449 -1.634789,0.444084c-2.216663,1.679193 -2.874735,2.262053 -8.243216,7.07759c-2.126611,1.915112 -4.357128,2.92124 -6.456031,2.92124" fill="#ffffff" id="svg_151"/>
   </g>
   <clipPath fill="#ffffff" id="cp50" transform="translate(111.332, 4.69141) scale(1.02792, 1.02792) translate(-111.332, -4.69141) translate(108.308, 577.646) scale(1.0017, 1.0034) translate(-108.308, -577.646)">
    <path d="m144.066,318.898l192.549,0l0,188.858l-192.549,0l0,-188.858z" fill="#ffffff" id="svg_152" transform="matrix(6.7275087,0,0,-6.7275087,-1292.2988,3319.707)"/>
   </clipPath>
   <g clip-path="url(#cp50)" id="svg_153">
    <path d="m301.799463,251.178919l2.202809,3.871858c0.069271,-0.811841 0.346354,-1.28368 1.080623,-1.686132l7.107176,-4.038389c1.842601,2.824097 3.505098,5.724521 4.973638,8.791476l-7.100249,4.003695c-0.73427,0.430206 -1.274581,0.444084 -2.008851,0.11796l2.202809,3.844103c0.076198,-0.811841 0.380989,-1.255925 1.122186,-1.679193l15.087162,-8.604128c0.775832,-0.423268 1.274581,-0.444084 2.008851,-0.076327l-2.161246,-3.885735c-0.11776,0.811841 -0.387916,1.297558 -1.115259,1.679193l-6.913218,3.927368c-1.856455,-2.824097 -3.518952,-5.724521 -4.987492,-8.756782l6.920145,-3.948185c0.727343,-0.402451 1.267654,-0.423268 2.001924,-0.076327l-2.202809,-3.844103c-0.069271,0.791025 -0.346354,1.235109 -1.115259,1.679193l-15.101017,8.583312c-0.761978,0.444084 -1.267654,0.444084 -2.001924,0.097143" fill="#ffffff" id="svg_154"/>
   </g>
   <clipPath fill="#ffffff" id="cp51" transform="translate(111.332, 4.69141) scale(1.02792, 1.02792) translate(-111.332, -4.69141) translate(108.308, 577.646) scale(1.0017, 1.0034) translate(-108.308, -577.646)">
    <path d="m144.066,318.898l192.549,0l0,188.858l-192.549,0l0,-188.858z" fill="#ffffff" id="svg_155" transform="matrix(6.7275087,0,0,-6.7275087,-1292.2988,3319.707)"/>
   </clipPath>
   <g clip-path="url(#cp51)" id="svg_156">
    <path d="m308.785392,262.809719l1.343852,2.352258c0.200885,-0.430206 0.540312,-0.756331 1.073696,-1.061638l15.087162,-8.604128c0.574947,-0.312247 0.997498,-0.423268 1.447758,-0.374696l-1.316144,-2.359197c-0.207812,0.4649 -0.540312,0.791025 -1.059842,1.068577l-7.190301,4.080022l-0.180104,-0.270614c-1.911872,-2.914302 -3.546661,-5.793909 -5.001346,-8.798415l-0.152396,-0.298369l7.204155,-4.107777c0.526457,-0.29143 0.976717,-0.402451 1.440831,-0.360818l-1.329998,-2.331441c-0.207812,0.430206 -0.547239,0.749392 -1.073696,1.061638l-15.101017,8.583312c-0.540312,0.312247 -0.962863,0.437145 -1.440831,0.381635l1.329998,2.331441c0.193958,-0.437145 0.526457,-0.763269 1.045988,-1.047761l7.384259,-4.197982l0.180104,0.277553c1.93958,2.948996 3.574369,5.842481 5.001346,8.833109l0.138541,0.298369l-7.384259,4.163288c-0.526457,0.305308 -0.96979,0.430206 -1.447758,0.381635m1.717914,4.413085l-3.290359,-5.745337l0.983644,0.444084c0.664999,0.298369 1.045988,0.270614 1.683278,-0.104082l6.823166,-3.844103c-1.329998,-2.761648 -2.853954,-5.446968 -4.627284,-8.180861l-6.823166,3.878797c-0.609582,0.340002 -0.838176,0.693881 -0.907446,1.408579l-0.096979,1.11021l-3.297286,-5.800848l1.004425,0.471839c0.678853,0.326124 1.011352,0.298369 1.676351,-0.083266l15.09409,-8.583312c0.658072,-0.381635 0.872811,-0.707759 0.949009,-1.408579l0.103906,-1.103271l3.31114,5.780031l-1.01828,-0.478778c-0.658072,-0.312247 -1.032134,-0.298369 -1.683278,0.062449l-6.629208,3.781653c1.364633,2.782464 2.881662,5.453907 4.634211,8.146167l6.629208,-3.760837c0.602655,-0.319185 0.838176,-0.680004 0.942082,-1.422457l0.145469,-1.040822l3.221088,5.793909l-1.011352,-0.506533c-0.658072,-0.326124 -0.983644,-0.305308 -1.683278,0.069388l-15.087162,8.604128c-0.644218,0.367757 -0.886665,0.721637 -0.942082,1.408579l-0.103906,1.103271z" fill="#ffffff" id="svg_157"/>
   </g>
   <clipPath fill="#ffffff" id="cp52" transform="translate(111.332, 4.69141) scale(1.02792, 1.02792) translate(-111.332, -4.69141) translate(108.308, 577.646) scale(1.0017, 1.0034) translate(-108.308, -577.646)">
    <path d="m144.066,318.898l192.549,0l0,188.858l-192.549,0l0,-188.858z" fill="#ffffff" id="svg_158" transform="matrix(6.7275087,0,0,-6.7275087,-1292.2988,3319.707)"/>
   </clipPath>
   <g clip-path="url(#cp52)" id="svg_159">
    <path d="m406.965446,279.349019c40.987484,-0.374696 74.147377,-34.229166 73.717899,-75.286124c-0.387916,-41.10553 -34.150464,-74.286935 -75.172584,-73.898362c-41.015192,0.388574 -74.147377,34.20835 -73.752534,75.306941c0.422551,41.084714 34.1851,74.25918 75.207219,73.877545m-1.246873,-127.29253l8.111601,23.224208l18.266688,-16.417232l-4.56494,24.140131l24.023085,-5.03064l-16.022317,18.609897l23.316524,7.66045l-23.177982,8.118412l16.382525,18.311528l-24.133918,-4.593494l5.06369,24.077682l-18.585334,-16.063353l-7.647487,23.362984l-8.104674,-23.203392l-18.259761,16.396416l4.56494,-24.160948l-24.030012,5.051456l16.036171,-18.630714l-23.330378,-7.653511l23.184909,-8.104534l-16.389452,-18.311528l24.10621,4.593494l-5.029054,-24.056866l18.585334,16.042536l7.633633,-23.362984z" fill="#ffffff" fill-rule="evenodd" id="svg_160"/>
   </g>
   <clipPath fill="#ffffff" id="cp53" transform="translate(111.332, 4.69141) scale(1.02792, 1.02792) translate(-111.332, -4.69141) translate(108.308, 577.646) scale(1.0017, 1.0034) translate(-108.308, -577.646)">
    <path d="m144.066,318.898l192.549,0l0,188.858l-192.549,0l0,-188.858z" fill="#ffffff" id="svg_161" transform="matrix(6.7275087,0,0,-6.7275087,-1292.2988,3319.707)"/>
   </clipPath>
   <g clip-path="url(#cp53)" id="svg_162">
    <path d="m387.891771,514.275077l37.814885,0c6.400614,-0.548166 12.711177,-1.380824 18.945542,-2.484095l-75.67826,0c6.206656,1.103271 12.524146,1.935929 18.917833,2.484095" fill="#ffffff" fill-rule="evenodd" id="svg_163"/>
   </g>
   <clipPath fill="#ffffff" id="cp54" transform="translate(111.332, 4.69141) scale(1.02792, 1.02792) translate(-111.332, -4.69141) translate(108.308, 577.646) scale(1.0017, 1.0034) translate(-108.308, -577.646)">
    <path d="m144.066,318.898l192.549,0l0,188.858l-192.549,0l0,-188.858z" fill="#ffffff" id="svg_164" transform="matrix(6.7275087,0,0,-6.7275087,-1292.2988,3319.707)"/>
   </clipPath>
   <g clip-path="url(#cp54)" id="svg_165">
    <path d="m323.78805,498.434308l166.021131,0c2.306715,-0.964495 4.578794,-1.984501 6.830093,-3.011445l-179.681317,0c2.251298,1.026944 4.530305,2.04695 6.830093,3.011445" fill="#ffffff" fill-rule="evenodd" id="svg_166"/>
   </g>
   <clipPath fill="#ffffff" id="cp55" transform="translate(111.332, 4.69141) scale(1.02792, 1.02792) translate(-111.332, -4.69141) translate(108.308, 577.646) scale(1.0017, 1.0034) translate(-108.308, -577.646)">
    <path d="m144.066,318.898l192.549,0l0,188.858l-192.549,0l0,-188.858z" fill="#ffffff" id="svg_167" transform="matrix(6.7275087,0,0,-6.7275087,-1292.2988,3319.707)"/>
   </clipPath>
   <g clip-path="url(#cp55)" id="svg_168">
    <path d="m293.29506,482.593263l227.041707,0c1.835674,-1.151843 3.685202,-2.33838 5.500095,-3.545734l-238.041897,0c1.814893,1.207354 3.629786,2.393891 5.500095,3.545734" fill="#ffffff" fill-rule="evenodd" id="svg_169"/>
   </g>
   <clipPath fill="#ffffff" id="cp56" transform="translate(111.332, 4.69141) scale(1.02792, 1.02792) translate(-111.332, -4.69141) translate(108.308, 577.646) scale(1.0017, 1.0034) translate(-108.308, -577.646)">
    <path d="m144.066,318.898l192.549,0l0,188.858l-192.549,0l0,-188.858z" fill="#ffffff" id="svg_170" transform="matrix(6.7275087,0,0,-6.7275087,-1292.2988,3319.707)"/>
   </clipPath>
   <g clip-path="url(#cp56)" id="svg_171">
    <path d="m271.201895,466.753995l271.222571,0c1.627862,-1.353069 3.255724,-2.69226 4.855877,-4.073083l-280.927399,0c1.572445,1.380824 3.200307,2.720015 4.84895,4.073083" fill="#ffffff" fill-rule="evenodd" id="svg_172"/>
   </g>
   <clipPath fill="#ffffff" id="cp57" transform="translate(111.332, 4.69141) scale(1.02792, 1.02792) translate(-111.332, -4.69141) translate(108.308, 577.646) scale(1.0017, 1.0034) translate(-108.308, -577.646)">
    <path d="m144.066,318.898l192.549,0l0,188.858l-192.549,0l0,-188.858z" fill="#ffffff" id="svg_173" transform="matrix(6.7275087,0,0,-6.7275087,-1292.2988,3319.707)"/>
   </clipPath>
   <g clip-path="url(#cp57)" id="svg_174">
    <path d="m253.853602,450.90211l305.920274,0c1.482393,-1.505722 2.950933,-3.053078 4.391764,-4.607372l-314.703801,0c1.440831,1.554294 2.902443,3.10165 4.391764,4.607372" fill="#ffffff" fill-rule="evenodd" id="svg_175"/>
   </g>
   <clipPath fill="#ffffff" id="cp58" transform="translate(111.332, 4.69141) scale(1.02792, 1.02792) translate(-111.332, -4.69141) translate(108.308, 577.646) scale(1.0017, 1.0034) translate(-108.308, -577.646)">
    <path d="m144.066,318.898l192.549,0l0,188.858l-192.549,0l0,-188.858z" fill="#ffffff" id="svg_176" transform="matrix(6.7275087,0,0,-6.7275087,-1292.2988,3319.707)"/>
   </clipPath>
   <g clip-path="url(#cp58)" id="svg_177">
    <path d="m239.761223,435.061555l334.099602,0c1.364633,-1.69307 2.715412,-3.400019 4.017702,-5.148599l-342.155787,0c1.323071,1.748581 2.659996,3.455529 4.038483,5.148599" fill="#ffffff" fill-rule="evenodd" id="svg_178"/>
   </g>
   <clipPath fill="#ffffff" id="cp59" transform="translate(111.332, 4.69141) scale(1.02792, 1.02792) translate(-111.332, -4.69141) translate(108.308, 577.646) scale(1.0017, 1.0034) translate(-108.308, -577.646)">
    <path d="m144.066,318.898l192.549,0l0,188.858l-192.549,0l0,-188.858z" fill="#ffffff" id="svg_179" transform="matrix(6.7275087,0,0,-6.7275087,-1292.2988,3319.707)"/>
   </clipPath>
   <g clip-path="url(#cp59)" id="svg_180">
    <path d="m228.134266,419.221031l357.367637,0c1.239946,-1.880418 2.431402,-3.767776 3.622859,-5.675949l-364.620281,0c1.163748,1.908174 2.382913,3.795531 3.629786,5.675949" fill="#ffffff" fill-rule="evenodd" id="svg_181"/>
   </g>
   <clipPath fill="#ffffff" id="cp60" transform="translate(111.332, 4.69141) scale(1.02792, 1.02792) translate(-111.332, -4.69141) translate(108.308, 577.646) scale(1.0017, 1.0034) translate(-108.308, -577.646)">
    <path d="m144.066,318.898l192.549,0l0,188.858l-192.549,0l0,-188.858z" fill="#ffffff" id="svg_182" transform="matrix(6.7275087,0,0,-6.7275087,-1292.2988,3319.707)"/>
   </clipPath>
   <g clip-path="url(#cp60)" id="svg_183">
    <path d="m218.539484,403.380231l376.527917,0c1.13604,-2.040011 2.216663,-4.114716 3.276505,-6.210238l-383.060146,0c1.059842,2.095522 2.140465,4.170227 3.255724,6.210238" fill="#ffffff" fill-rule="evenodd" id="svg_184"/>
   </g>
   <clipPath fill="#ffffff" id="cp61" transform="translate(111.332, 4.69141) scale(1.02792, 1.02792) translate(-111.332, -4.69141) translate(108.308, 577.646) scale(1.0017, 1.0034) translate(-108.308, -577.646)">
    <path d="m144.066,318.898l192.549,0l0,188.858l-192.549,0l0,-188.858z" fill="#ffffff" id="svg_185" transform="matrix(6.7275087,0,0,-6.7275087,-1292.2988,3319.707)"/>
   </clipPath>
   <g clip-path="url(#cp61)" id="svg_186">
    <path d="m210.704261,387.529388l392.224662,0c0.976717,-2.22042 1.891091,-4.468596 2.840099,-6.716771l-397.911788,0c0.921301,2.248176 1.870309,4.496351 2.847027,6.716771" fill="#ffffff" fill-rule="evenodd" id="svg_187"/>
   </g>
   <clipPath fill="#ffffff" id="cp62" transform="translate(111.332, 4.69141) scale(1.02792, 1.02792) translate(-111.332, -4.69141) translate(108.308, 577.646) scale(1.0017, 1.0034) translate(-108.308, -577.646)">
    <path d="m144.066,318.898l192.549,0l0,188.858l-192.549,0l0,-188.858z" fill="#ffffff" id="svg_188" transform="matrix(6.7275087,0,0,-6.7275087,-1292.2988,3319.707)"/>
   </clipPath>
   <g clip-path="url(#cp62)" id="svg_189">
    <path d="m204.413036,371.688833l404.797298,0c0.838176,-2.400829 1.65557,-4.815536 2.410621,-7.244121l-409.646248,0c0.789686,2.428585 1.572445,4.843292 2.438329,7.244121" fill="#ffffff" fill-rule="evenodd" id="svg_190"/>
   </g>
   <clipPath fill="#ffffff" id="cp63" transform="translate(111.332, 4.69141) scale(1.02792, 1.02792) translate(-111.332, -4.69141) translate(108.308, 577.646) scale(1.0017, 1.0034) translate(-108.308, -577.646)">
    <path d="m144.066,318.898l192.549,0l0,188.858l-192.549,0l0,-188.858z" fill="#ffffff" id="svg_191" transform="matrix(6.7275087,0,0,-6.7275087,-1292.2988,3319.707)"/>
   </clipPath>
   <g clip-path="url(#cp63)" id="svg_192">
    <path d="m199.509432,355.837714l414.58525,0c0.699634,-2.567361 1.350779,-5.162477 1.953434,-7.785349l-418.46441,0c0.595728,2.622871 1.246873,5.217988 1.925726,7.785349" fill="#ffffff" fill-rule="evenodd" id="svg_193"/>
   </g>
   <clipPath fill="#ffffff" id="cp64" transform="translate(111.332, 4.69141) scale(1.02792, 1.02792) translate(-111.332, -4.69141) translate(108.308, 577.646) scale(1.0017, 1.0034) translate(-108.308, -577.646)">
    <path d="m144.066,318.898l192.549,0l0,188.858l-192.549,0l0,-188.858z" fill="#ffffff" id="svg_194" transform="matrix(1,0,0,-1,0,595.276)"/>
   </clipPath>
   <g clip-path="url(#cp64)" id="svg_195">
    <g data-name="PlacedGraphic" id="Layer-1"/>
   </g>
   <clipPath fill="#ffffff" id="cp65" transform="translate(111.332, 4.69141) scale(1.02792, 1.02792) translate(-111.332, -4.69141) translate(108.308, 577.646) scale(1.0017, 1.0034) translate(-108.308, -577.646)">
    <path d="m403.937,63.932l169.08707,0l0,186.36701l-169.08707,0l0,-186.36701z" fill="#ffffff" id="svg_196" transform="matrix(1, 0, 0, -1, 173, 386.276)"/>
   </clipPath>
   <g clip-path="url(#cp65)" id="svg_197">
    <g data-name="PlacedGraphic" id="Layer-1"/>
   </g>
   <g data-name="Span" id="Layer-1"/>
  </g>
 </g>
</svg>